%FSLAX46Y46*%
G04 Gerber Fmt 4.6, Leading zero omitted, Abs format (unit mm)*
G04 Created by KiCad (PCBNEW (2014-jan-25)-product) date Mon 28 Jul 2014 17:11:54 BST*
%MOMM*%
G01*
G04 APERTURE LIST*
%ADD10C,0.100000*%
%ADD11C,0.500000*%
%ADD12C,0.200000*%
%ADD13C,0.300000*%
%ADD14C,0.400000*%
%ADD15C,0.381000*%
%ADD16C,0.254000*%
%ADD17C,0.127000*%
%ADD18C,0.150000*%
%ADD19C,0.099060*%
%ADD20C,0.203200*%
%ADD21C,5.500000*%
%ADD22C,5.000000*%
%ADD23R,2.032000X2.032000*%
%ADD24C,2.032000*%
%ADD25C,2.000000*%
%ADD26R,1.498600X1.300480*%
%ADD27R,1.300480X1.498600*%
%ADD28R,1.270000X0.508000*%
%ADD29R,3.000000X5.000000*%
%ADD30O,3.000000X5.000000*%
%ADD31R,0.500000X1.000000*%
%ADD32R,1.000000X0.500000*%
%ADD33R,1.397000X0.889000*%
%ADD34R,0.889000X1.397000*%
%ADD35R,0.599440X1.399540*%
%ADD36O,2.032000X2.032000*%
%ADD37R,1.727200X1.727200*%
%ADD38O,1.727200X1.727200*%
G04 APERTURE END LIST*
D10*
D11*
X115874742Y-148626343D02*
X114684266Y-148626343D01*
X114684266Y-145626343D01*
X117184267Y-145626343D02*
X117660457Y-145626343D01*
X117898552Y-145769200D01*
X118136648Y-146054914D01*
X118255695Y-146626343D01*
X118255695Y-147626343D01*
X118136648Y-148197771D01*
X117898552Y-148483486D01*
X117660457Y-148626343D01*
X117184267Y-148626343D01*
X116946171Y-148483486D01*
X116708076Y-148197771D01*
X116589028Y-147626343D01*
X116589028Y-146626343D01*
X116708076Y-146054914D01*
X116946171Y-145769200D01*
X117184267Y-145626343D01*
X120755696Y-148626343D02*
X119922362Y-147197771D01*
X119327124Y-148626343D02*
X119327124Y-145626343D01*
X120279505Y-145626343D01*
X120517600Y-145769200D01*
X120636648Y-145912057D01*
X120755696Y-146197771D01*
X120755696Y-146626343D01*
X120636648Y-146912057D01*
X120517600Y-147054914D01*
X120279505Y-147197771D01*
X119327124Y-147197771D01*
X121708076Y-147769200D02*
X122898553Y-147769200D01*
X121469981Y-148626343D02*
X122303315Y-145626343D01*
X123136648Y-148626343D01*
X123969981Y-148626343D02*
X123969981Y-145626343D01*
X125160457Y-148626343D02*
X125160457Y-145626343D01*
X126589029Y-148626343D01*
X126589029Y-145626343D01*
X127779505Y-147054914D02*
X128612838Y-147054914D01*
X128969981Y-148626343D02*
X127779505Y-148626343D01*
X127779505Y-145626343D01*
X128969981Y-145626343D01*
D12*
X123930210Y-113030000D02*
G75*
G03X123930210Y-113030000I-359210J0D01*
G74*
G01*
D13*
X104965572Y-105390143D02*
X106108429Y-105390143D01*
X105537000Y-105961571D02*
X105537000Y-104818714D01*
X106870572Y-105644143D02*
X108013429Y-105644143D01*
X107442000Y-106215571D02*
X107442000Y-105072714D01*
D12*
X108803057Y-112282541D02*
X108820487Y-112347590D01*
X108790297Y-112495117D01*
X108742678Y-112577596D01*
X108630010Y-112677505D01*
X108499913Y-112712365D01*
X108393625Y-112705985D01*
X108204858Y-112651986D01*
X108081139Y-112580557D01*
X107939992Y-112444080D01*
X107881323Y-112355222D01*
X107846463Y-112225124D01*
X107876653Y-112077596D01*
X107924272Y-111995117D01*
X108036940Y-111895209D01*
X108101989Y-111877779D01*
X109099821Y-111959007D02*
X108233796Y-111459007D01*
X108646188Y-111697102D02*
X108931903Y-111202230D01*
X109385535Y-111464135D02*
X108519510Y-110964135D01*
X108816274Y-110640600D02*
X108798844Y-110575552D01*
X108805224Y-110469264D01*
X108924272Y-110263067D01*
X109013130Y-110204397D01*
X109078179Y-110186968D01*
X109184467Y-110193347D01*
X109266946Y-110240966D01*
X109366854Y-110353634D01*
X109576011Y-111134221D01*
X109885535Y-110598109D01*
X140950467Y-104609602D02*
X140885418Y-104592172D01*
X140772751Y-104492264D01*
X140725132Y-104409785D01*
X140694942Y-104262257D01*
X140729801Y-104132159D01*
X140788470Y-104043301D01*
X140929618Y-103906824D01*
X141053337Y-103835395D01*
X141242103Y-103781396D01*
X141348391Y-103775016D01*
X141478489Y-103809876D01*
X141591157Y-103909785D01*
X141638776Y-103992264D01*
X141668965Y-104139791D01*
X141651535Y-104204840D01*
X141082274Y-105028374D02*
X141948299Y-104528374D01*
X141535907Y-104766469D02*
X141821621Y-105261341D01*
X141367989Y-105523246D02*
X142234014Y-105023246D01*
X142686395Y-105806793D02*
X142591156Y-105641835D01*
X142502298Y-105583166D01*
X142437249Y-105565736D01*
X142265913Y-105554686D01*
X142077146Y-105608685D01*
X141747231Y-105799162D01*
X141688562Y-105888020D01*
X141671132Y-105953069D01*
X141677512Y-106059357D01*
X141772751Y-106224314D01*
X141861609Y-106282984D01*
X141926658Y-106300413D01*
X142032946Y-106294034D01*
X142239142Y-106174986D01*
X142297812Y-106086127D01*
X142315242Y-106021079D01*
X142308862Y-105914790D01*
X142213623Y-105749833D01*
X142124765Y-105691164D01*
X142059716Y-105673734D01*
X141953427Y-105680114D01*
X123896524Y-140692143D02*
X123848905Y-140739762D01*
X123706048Y-140787381D01*
X123610810Y-140787381D01*
X123467952Y-140739762D01*
X123372714Y-140644524D01*
X123325095Y-140549286D01*
X123277476Y-140358810D01*
X123277476Y-140215952D01*
X123325095Y-140025476D01*
X123372714Y-139930238D01*
X123467952Y-139835000D01*
X123610810Y-139787381D01*
X123706048Y-139787381D01*
X123848905Y-139835000D01*
X123896524Y-139882619D01*
X124325095Y-140787381D02*
X124325095Y-139787381D01*
X124325095Y-140263571D02*
X124896524Y-140263571D01*
X124896524Y-140787381D02*
X124896524Y-139787381D01*
X125563190Y-139787381D02*
X125658429Y-139787381D01*
X125753667Y-139835000D01*
X125801286Y-139882619D01*
X125848905Y-139977857D01*
X125896524Y-140168333D01*
X125896524Y-140406429D01*
X125848905Y-140596905D01*
X125801286Y-140692143D01*
X125753667Y-140739762D01*
X125658429Y-140787381D01*
X125563190Y-140787381D01*
X125467952Y-140739762D01*
X125420333Y-140692143D01*
X125372714Y-140596905D01*
X125325095Y-140406429D01*
X125325095Y-140168333D01*
X125372714Y-139977857D01*
X125420333Y-139882619D01*
X125467952Y-139835000D01*
X125563190Y-139787381D01*
X108854905Y-144946667D02*
X109331096Y-144946667D01*
X108759667Y-145232381D02*
X109093000Y-144232381D01*
X109426334Y-145232381D01*
X111704429Y-144581571D02*
X111847286Y-144629190D01*
X111894905Y-144676810D01*
X111942524Y-144772048D01*
X111942524Y-144914905D01*
X111894905Y-145010143D01*
X111847286Y-145057762D01*
X111752048Y-145105381D01*
X111371095Y-145105381D01*
X111371095Y-144105381D01*
X111704429Y-144105381D01*
X111799667Y-144153000D01*
X111847286Y-144200619D01*
X111894905Y-144295857D01*
X111894905Y-144391095D01*
X111847286Y-144486333D01*
X111799667Y-144533952D01*
X111704429Y-144581571D01*
X111371095Y-144581571D01*
X105354429Y-147248571D02*
X105497286Y-147296190D01*
X105544905Y-147343810D01*
X105592524Y-147439048D01*
X105592524Y-147581905D01*
X105544905Y-147677143D01*
X105497286Y-147724762D01*
X105402048Y-147772381D01*
X105021095Y-147772381D01*
X105021095Y-146772381D01*
X105354429Y-146772381D01*
X105449667Y-146820000D01*
X105497286Y-146867619D01*
X105544905Y-146962857D01*
X105544905Y-147058095D01*
X105497286Y-147153333D01*
X105449667Y-147200952D01*
X105354429Y-147248571D01*
X105021095Y-147248571D01*
X105044905Y-144819667D02*
X105521096Y-144819667D01*
X104949667Y-145105381D02*
X105283000Y-144105381D01*
X105616334Y-145105381D01*
X141017667Y-129754381D02*
X141636715Y-129754381D01*
X141303381Y-130135333D01*
X141446239Y-130135333D01*
X141541477Y-130182952D01*
X141589096Y-130230571D01*
X141636715Y-130325810D01*
X141636715Y-130563905D01*
X141589096Y-130659143D01*
X141541477Y-130706762D01*
X141446239Y-130754381D01*
X141160524Y-130754381D01*
X141065286Y-130706762D01*
X141017667Y-130659143D01*
X141668477Y-127420714D02*
X141668477Y-128087381D01*
X141430381Y-127039762D02*
X141192286Y-127754048D01*
X141811334Y-127754048D01*
X141430381Y-137247381D02*
X141525620Y-137247381D01*
X141620858Y-137295000D01*
X141668477Y-137342619D01*
X141716096Y-137437857D01*
X141763715Y-137628333D01*
X141763715Y-137866429D01*
X141716096Y-138056905D01*
X141668477Y-138152143D01*
X141620858Y-138199762D01*
X141525620Y-138247381D01*
X141430381Y-138247381D01*
X141335143Y-138199762D01*
X141287524Y-138152143D01*
X141239905Y-138056905D01*
X141192286Y-137866429D01*
X141192286Y-137628333D01*
X141239905Y-137437857D01*
X141287524Y-137342619D01*
X141335143Y-137295000D01*
X141430381Y-137247381D01*
X141763715Y-135580381D02*
X141192286Y-135580381D01*
X141478000Y-135580381D02*
X141478000Y-134580381D01*
X141382762Y-134723238D01*
X141287524Y-134818476D01*
X141192286Y-134866095D01*
X141065286Y-132389619D02*
X141112905Y-132342000D01*
X141208143Y-132294381D01*
X141446239Y-132294381D01*
X141541477Y-132342000D01*
X141589096Y-132389619D01*
X141636715Y-132484857D01*
X141636715Y-132580095D01*
X141589096Y-132722952D01*
X141017667Y-133294381D01*
X141636715Y-133294381D01*
X141716096Y-124547381D02*
X141239905Y-124547381D01*
X141192286Y-125023571D01*
X141239905Y-124975952D01*
X141335143Y-124928333D01*
X141573239Y-124928333D01*
X141668477Y-124975952D01*
X141716096Y-125023571D01*
X141763715Y-125118810D01*
X141763715Y-125356905D01*
X141716096Y-125452143D01*
X141668477Y-125499762D01*
X141573239Y-125547381D01*
X141335143Y-125547381D01*
X141239905Y-125499762D01*
X141192286Y-125452143D01*
X141668477Y-122134381D02*
X141478000Y-122134381D01*
X141382762Y-122182000D01*
X141335143Y-122229619D01*
X141239905Y-122372476D01*
X141192286Y-122562952D01*
X141192286Y-122943905D01*
X141239905Y-123039143D01*
X141287524Y-123086762D01*
X141382762Y-123134381D01*
X141573239Y-123134381D01*
X141668477Y-123086762D01*
X141716096Y-123039143D01*
X141763715Y-122943905D01*
X141763715Y-122705810D01*
X141716096Y-122610571D01*
X141668477Y-122562952D01*
X141573239Y-122515333D01*
X141382762Y-122515333D01*
X141287524Y-122562952D01*
X141239905Y-122610571D01*
X141192286Y-122705810D01*
X141144667Y-119594381D02*
X141811334Y-119594381D01*
X141382762Y-120594381D01*
D13*
X116558164Y-138915243D02*
X116045134Y-137505704D01*
X116380739Y-137383554D01*
X116606531Y-137377386D01*
X116789634Y-137462767D01*
X116905614Y-137572579D01*
X117070456Y-137816633D01*
X117143745Y-138017995D01*
X117174344Y-138310909D01*
X117156084Y-138469581D01*
X117070701Y-138652683D01*
X116893769Y-138793093D01*
X116558164Y-138915243D01*
X117754002Y-138023918D02*
X118425211Y-137779618D01*
X117766340Y-138475503D02*
X117723156Y-136894954D01*
X118706033Y-138133483D01*
X118461486Y-136626224D02*
X119444363Y-137864753D01*
X119401179Y-136284204D01*
X120384055Y-137522733D02*
X119871025Y-136113194D01*
X121055265Y-137278433D02*
X120542234Y-135868894D01*
X120877839Y-135746743D01*
X121103631Y-135740575D01*
X121286734Y-135825956D01*
X121402714Y-135935768D01*
X121567556Y-136179822D01*
X121640845Y-136381184D01*
X121671444Y-136674099D01*
X121653184Y-136832770D01*
X121567801Y-137015872D01*
X121390869Y-137156282D01*
X121055265Y-137278433D01*
X122824345Y-135038273D02*
X123629796Y-134745113D01*
X123740101Y-136301232D02*
X123227071Y-134891693D01*
X124099642Y-134574103D02*
X124514952Y-135715159D01*
X124630932Y-135824971D01*
X124722484Y-135867662D01*
X124881155Y-135885922D01*
X125149639Y-135788202D01*
X125259452Y-135672222D01*
X125302142Y-135580670D01*
X125320403Y-135421999D01*
X124905093Y-134280943D01*
X126894783Y-135153022D02*
X126180637Y-134652823D01*
X126089332Y-135446182D02*
X125576302Y-134036643D01*
X126113269Y-133841203D01*
X126271942Y-133859464D01*
X126363492Y-133902155D01*
X126479473Y-134011967D01*
X126552763Y-134213329D01*
X126534502Y-134372002D01*
X126491812Y-134463552D01*
X126381999Y-134579533D01*
X125845032Y-134774973D01*
X127498871Y-134933151D02*
X126985841Y-133523613D01*
X128304322Y-134639991D01*
X127791292Y-133230452D01*
X128706801Y-133657361D02*
X129176648Y-133486351D01*
X129646741Y-134151391D02*
X128975531Y-134395691D01*
X128462501Y-132986152D01*
X129133711Y-132741852D01*
X131056280Y-133638361D02*
X130342134Y-133138162D01*
X130250829Y-133931521D02*
X129737799Y-132521982D01*
X130274765Y-132326542D01*
X130433438Y-132344803D01*
X130524988Y-132387495D01*
X130640970Y-132497306D01*
X130714260Y-132698668D01*
X130695999Y-132857341D01*
X130653308Y-132948891D01*
X130543496Y-133064873D01*
X130006529Y-133260313D01*
X118373487Y-140352470D02*
X119044696Y-140108170D01*
X118385825Y-140804055D02*
X118342642Y-139223506D01*
X119325518Y-140462035D01*
X119795364Y-140291025D02*
X119282334Y-138881486D01*
X119617939Y-138759336D01*
X119843731Y-138753167D01*
X120026834Y-138838549D01*
X120142814Y-138948361D01*
X120307655Y-139192415D01*
X120380945Y-139393777D01*
X120411544Y-139686691D01*
X120393284Y-139845363D01*
X120307901Y-140028465D01*
X120130969Y-140168875D01*
X119795364Y-140291025D01*
X120991202Y-139399700D02*
X121662411Y-139155400D01*
X121003540Y-139851285D02*
X120960356Y-138270736D01*
X121943233Y-139509265D01*
X122413079Y-139338255D02*
X121900049Y-137928716D01*
X122736346Y-138764520D01*
X122839742Y-137586696D01*
X123352772Y-138996234D01*
X125347645Y-136749907D02*
X125188973Y-136731645D01*
X124987610Y-136804935D01*
X124810678Y-136945346D01*
X124725296Y-137128448D01*
X124707035Y-137287120D01*
X124737634Y-137580034D01*
X124810924Y-137781396D01*
X124975766Y-138025450D01*
X125091746Y-138135262D01*
X125274849Y-138220644D01*
X125500640Y-138214474D01*
X125634882Y-138165614D01*
X125811815Y-138025204D01*
X125854506Y-137933652D01*
X125683496Y-137463806D01*
X125415012Y-137561526D01*
X127312905Y-137554864D02*
X126598759Y-137054666D01*
X126507454Y-137848024D02*
X125994424Y-136438485D01*
X126531391Y-136243045D01*
X126690064Y-136261306D01*
X126781614Y-136303998D01*
X126897595Y-136413809D01*
X126970885Y-136615171D01*
X126952624Y-136773844D01*
X126909934Y-136865394D01*
X126800121Y-136981376D01*
X126263155Y-137176816D01*
X127648263Y-136596664D02*
X128118110Y-136425654D01*
X128588203Y-137090694D02*
X127916993Y-137334994D01*
X127403963Y-135925455D01*
X128075172Y-135681155D01*
X129192291Y-136870824D02*
X128679260Y-135461285D01*
X130113229Y-135015376D02*
X129954558Y-134997114D01*
X129753195Y-135070404D01*
X129576263Y-135210816D01*
X129490880Y-135393918D01*
X129472620Y-135552589D01*
X129503219Y-135845503D01*
X129576509Y-136046865D01*
X129741350Y-136290920D01*
X129857330Y-136400731D01*
X130040433Y-136486113D01*
X130266225Y-136479943D01*
X130400467Y-136431083D01*
X130577400Y-136290673D01*
X130620091Y-136199121D01*
X130449081Y-135729275D01*
X130180596Y-135826995D01*
X146113572Y-117455143D02*
X147256429Y-117455143D01*
X146685000Y-118026571D02*
X146685000Y-116883714D01*
X147510572Y-139807143D02*
X148653429Y-139807143D01*
X148082000Y-140378571D02*
X148082000Y-139235714D01*
D14*
X133604000Y-100965000D02*
X124460000Y-100965000D01*
X124460000Y-109855000D02*
X124460000Y-100965000D01*
X133604000Y-109855000D02*
X133604000Y-100965000D01*
X133604000Y-101219000D02*
X124460000Y-101219000D01*
D15*
X124531120Y-109997240D02*
X133532880Y-109997240D01*
D16*
X123317000Y-115824000D02*
X120777000Y-115824000D01*
X120777000Y-115824000D02*
X120777000Y-113284000D01*
X123317000Y-113284000D02*
X115697000Y-113284000D01*
X115697000Y-113284000D02*
X115697000Y-118364000D01*
X115697000Y-118364000D02*
X120777000Y-118364000D01*
X123317000Y-113284000D02*
X123317000Y-115824000D01*
X123317000Y-118364000D02*
X123317000Y-115824000D01*
X120777000Y-118364000D02*
X123317000Y-118364000D01*
D15*
X103505000Y-127635000D02*
X102870000Y-127635000D01*
X102870000Y-127635000D02*
X102870000Y-117475000D01*
X102870000Y-117475000D02*
X103505000Y-117475000D01*
X107315000Y-127635000D02*
X103505000Y-127635000D01*
X103505000Y-127635000D02*
X103505000Y-117475000D01*
X103505000Y-117475000D02*
X107315000Y-117475000D01*
X107315000Y-117475000D02*
X107315000Y-127635000D01*
X111998760Y-141097000D02*
X111597440Y-141297660D01*
X111597440Y-141297660D02*
X110998000Y-141399260D01*
X110998000Y-141399260D02*
X110497620Y-141297660D01*
X110497620Y-141297660D02*
X109799120Y-140898880D01*
X109799120Y-140898880D02*
X109397800Y-140296900D01*
X109397800Y-140296900D02*
X109197140Y-139697460D01*
X109197140Y-139697460D02*
X109197140Y-133098540D01*
X109197140Y-133098540D02*
X109397800Y-132397500D01*
X109397800Y-132397500D02*
X109697520Y-131998720D01*
X109697520Y-131998720D02*
X110197900Y-131597400D01*
X110197900Y-131597400D02*
X110797340Y-131396740D01*
X110797340Y-131396740D02*
X111297720Y-131396740D01*
X111297720Y-131396740D02*
X111798100Y-131597400D01*
X111798100Y-131597400D02*
X112397540Y-132097780D01*
X112397540Y-132097780D02*
X112697260Y-132598160D01*
X112697260Y-132598160D02*
X112798860Y-133098540D01*
X112798860Y-133197600D02*
X112798860Y-139799060D01*
X112798860Y-139799060D02*
X112697260Y-140197840D01*
X112697260Y-140197840D02*
X112397540Y-140698220D01*
X112397540Y-140698220D02*
X111897160Y-141198600D01*
X113327180Y-133207760D02*
X113278920Y-132748020D01*
X113278920Y-132748020D02*
X113167160Y-132349240D01*
X113167160Y-132349240D02*
X112948720Y-131917440D01*
X112948720Y-131917440D02*
X112717580Y-131627880D01*
X112717580Y-131627880D02*
X112367060Y-131297680D01*
X112367060Y-131297680D02*
X111828580Y-131008120D01*
X111828580Y-131008120D02*
X111229140Y-130878580D01*
X111229140Y-130878580D02*
X110718600Y-130878580D01*
X110718600Y-130878580D02*
X110017560Y-131048760D01*
X110017560Y-131048760D02*
X109428280Y-131447540D01*
X109428280Y-131447540D02*
X109057440Y-131907280D01*
X109057440Y-131907280D02*
X108849160Y-132328920D01*
X108849160Y-132328920D02*
X108689140Y-132778500D01*
X108689140Y-132778500D02*
X108658660Y-133217920D01*
X108877100Y-140558520D02*
X109098080Y-140936980D01*
X109098080Y-140936980D02*
X109377480Y-141257020D01*
X109377480Y-141257020D02*
X109707680Y-141508480D01*
X109707680Y-141508480D02*
X110258860Y-141808200D01*
X110258860Y-141808200D02*
X110728760Y-141917420D01*
X110728760Y-141917420D02*
X111188500Y-141937740D01*
X111188500Y-141937740D02*
X111648240Y-141848840D01*
X111648240Y-141848840D02*
X112097820Y-141658340D01*
X112097820Y-141658340D02*
X112567720Y-141297660D01*
X112567720Y-141297660D02*
X112887760Y-140947140D01*
X112887760Y-140947140D02*
X113118900Y-140558520D01*
X113118900Y-140558520D02*
X113258600Y-140129260D01*
X113258600Y-140129260D02*
X113327180Y-139687300D01*
X108668820Y-133197600D02*
X108668820Y-139649200D01*
X108668820Y-139649200D02*
X108706920Y-140068300D01*
X108706920Y-140068300D02*
X108877100Y-140558520D01*
X113327180Y-133197600D02*
X113327180Y-139649200D01*
D16*
X120514000Y-143914000D02*
X125594000Y-143914000D01*
X125594000Y-143914000D02*
X125594000Y-141374000D01*
X125594000Y-141374000D02*
X120514000Y-141374000D01*
X117974000Y-141374000D02*
X120514000Y-141374000D01*
X120514000Y-141374000D02*
X120514000Y-143914000D01*
X117974000Y-141374000D02*
X117974000Y-143914000D01*
X117974000Y-143914000D02*
X120514000Y-143914000D01*
X142655148Y-104535148D02*
X145195148Y-108934557D01*
X145195148Y-108934557D02*
X147394852Y-107664557D01*
X147394852Y-107664557D02*
X144854852Y-103265148D01*
X143584852Y-101065443D02*
X144854852Y-103265148D01*
X144854852Y-103265148D02*
X142655148Y-104535148D01*
X143584852Y-101065443D02*
X141385148Y-102335443D01*
X141385148Y-102335443D02*
X142655148Y-104535148D01*
X106754852Y-112882852D02*
X109294852Y-108483443D01*
X109294852Y-108483443D02*
X107095148Y-107213443D01*
X107095148Y-107213443D02*
X104555148Y-111612852D01*
X103285148Y-113812557D02*
X104555148Y-111612852D01*
X104555148Y-111612852D02*
X106754852Y-112882852D01*
X103285148Y-113812557D02*
X105484852Y-115082557D01*
X105484852Y-115082557D02*
X106754852Y-112882852D01*
D17*
X114173000Y-135509000D02*
X115443000Y-135509000D01*
X114173000Y-136779000D02*
X115417600Y-136779000D01*
X114173000Y-137160000D02*
X114173000Y-135128000D01*
X114173000Y-135128000D02*
X115443000Y-135128000D01*
X115443000Y-135128000D02*
X115443000Y-137160000D01*
X115443000Y-137160000D02*
X114173000Y-137160000D01*
X115443000Y-140843000D02*
X114173000Y-140843000D01*
X115443000Y-139573000D02*
X114198400Y-139573000D01*
X115443000Y-139192000D02*
X115443000Y-141224000D01*
X115443000Y-141224000D02*
X114173000Y-141224000D01*
X114173000Y-141224000D02*
X114173000Y-139192000D01*
X114173000Y-139192000D02*
X115443000Y-139192000D01*
X109728000Y-123698000D02*
X108458000Y-123698000D01*
X109728000Y-122428000D02*
X108483400Y-122428000D01*
X109728000Y-122047000D02*
X109728000Y-124079000D01*
X109728000Y-124079000D02*
X108458000Y-124079000D01*
X108458000Y-124079000D02*
X108458000Y-122047000D01*
X108458000Y-122047000D02*
X109728000Y-122047000D01*
X108204000Y-142240000D02*
X108204000Y-143510000D01*
X106934000Y-142240000D02*
X106934000Y-143484600D01*
X106553000Y-142240000D02*
X108585000Y-142240000D01*
X108585000Y-142240000D02*
X108585000Y-143510000D01*
X108585000Y-143510000D02*
X106553000Y-143510000D01*
X106553000Y-143510000D02*
X106553000Y-142240000D01*
X108458000Y-118110000D02*
X109728000Y-118110000D01*
X108458000Y-119380000D02*
X109702600Y-119380000D01*
X108458000Y-119761000D02*
X108458000Y-117729000D01*
X108458000Y-117729000D02*
X109728000Y-117729000D01*
X109728000Y-117729000D02*
X109728000Y-119761000D01*
X109728000Y-119761000D02*
X108458000Y-119761000D01*
X127127000Y-118618000D02*
X127127000Y-119888000D01*
X125857000Y-118618000D02*
X125857000Y-119862600D01*
X125476000Y-118618000D02*
X127508000Y-118618000D01*
X127508000Y-118618000D02*
X127508000Y-119888000D01*
X127508000Y-119888000D02*
X125476000Y-119888000D01*
X125476000Y-119888000D02*
X125476000Y-118618000D01*
X117094000Y-133223000D02*
X124460000Y-133223000D01*
X124460000Y-120523000D02*
X117094000Y-120523000D01*
X117094000Y-133223000D02*
X117094000Y-120523000D01*
X124460000Y-120523000D02*
X124460000Y-133223000D01*
X121412000Y-120523000D02*
X121412000Y-121793000D01*
X121412000Y-121793000D02*
X120142000Y-121793000D01*
X120142000Y-121793000D02*
X120142000Y-120523000D01*
D18*
X112522000Y-104267000D02*
X121285000Y-104267000D01*
X116840000Y-100965000D02*
X116840000Y-110490000D01*
X121285000Y-110490000D02*
X121285000Y-104267000D01*
X121285000Y-104267000D02*
X119507000Y-100965000D01*
X119507000Y-100965000D02*
X116840000Y-100965000D01*
X112522000Y-110490000D02*
X112522000Y-104267000D01*
X112522000Y-104267000D02*
X114046000Y-100965000D01*
X114046000Y-100965000D02*
X116840000Y-100965000D01*
X121285000Y-110490000D02*
X112522000Y-110490000D01*
X146837400Y-142036800D02*
G75*
G03X146837400Y-142036800I-254000J0D01*
G74*
G01*
X145288000Y-141478000D02*
X145097500Y-141478000D01*
X146240500Y-141478000D02*
X146050000Y-141478000D01*
X145288000Y-143002000D02*
X145097500Y-143002000D01*
X146240500Y-143002000D02*
X146050000Y-143002000D01*
X144145000Y-141478000D02*
X144335500Y-141478000D01*
X144145000Y-143002000D02*
X144335500Y-143002000D01*
X147193000Y-141478000D02*
X147002500Y-141478000D01*
X147193000Y-143002000D02*
X147002500Y-143002000D01*
X144145000Y-143002000D02*
X144145000Y-141478000D01*
X147193000Y-143002000D02*
X147193000Y-141478000D01*
X137464800Y-145008600D02*
G75*
G03X137464800Y-145008600I-254000J0D01*
G74*
G01*
X136652000Y-146304000D02*
X136652000Y-146494500D01*
X136652000Y-145351500D02*
X136652000Y-145542000D01*
X138176000Y-146304000D02*
X138176000Y-146494500D01*
X138176000Y-145351500D02*
X138176000Y-145542000D01*
X136652000Y-147447000D02*
X136652000Y-147256500D01*
X138176000Y-147447000D02*
X138176000Y-147256500D01*
X136652000Y-144399000D02*
X136652000Y-144589500D01*
X138176000Y-144399000D02*
X138176000Y-144589500D01*
X138176000Y-147447000D02*
X136652000Y-147447000D01*
X138176000Y-144399000D02*
X136652000Y-144399000D01*
X137464800Y-139928600D02*
G75*
G03X137464800Y-139928600I-254000J0D01*
G74*
G01*
X136652000Y-141224000D02*
X136652000Y-141414500D01*
X136652000Y-140271500D02*
X136652000Y-140462000D01*
X138176000Y-141224000D02*
X138176000Y-141414500D01*
X138176000Y-140271500D02*
X138176000Y-140462000D01*
X136652000Y-142367000D02*
X136652000Y-142176500D01*
X138176000Y-142367000D02*
X138176000Y-142176500D01*
X136652000Y-139319000D02*
X136652000Y-139509500D01*
X138176000Y-139319000D02*
X138176000Y-139509500D01*
X138176000Y-142367000D02*
X136652000Y-142367000D01*
X138176000Y-139319000D02*
X136652000Y-139319000D01*
X137464800Y-134848600D02*
G75*
G03X137464800Y-134848600I-254000J0D01*
G74*
G01*
X136652000Y-136144000D02*
X136652000Y-136334500D01*
X136652000Y-135191500D02*
X136652000Y-135382000D01*
X138176000Y-136144000D02*
X138176000Y-136334500D01*
X138176000Y-135191500D02*
X138176000Y-135382000D01*
X136652000Y-137287000D02*
X136652000Y-137096500D01*
X138176000Y-137287000D02*
X138176000Y-137096500D01*
X136652000Y-134239000D02*
X136652000Y-134429500D01*
X138176000Y-134239000D02*
X138176000Y-134429500D01*
X138176000Y-137287000D02*
X136652000Y-137287000D01*
X138176000Y-134239000D02*
X136652000Y-134239000D01*
X137464800Y-129768600D02*
G75*
G03X137464800Y-129768600I-254000J0D01*
G74*
G01*
X136652000Y-131064000D02*
X136652000Y-131254500D01*
X136652000Y-130111500D02*
X136652000Y-130302000D01*
X138176000Y-131064000D02*
X138176000Y-131254500D01*
X138176000Y-130111500D02*
X138176000Y-130302000D01*
X136652000Y-132207000D02*
X136652000Y-132016500D01*
X138176000Y-132207000D02*
X138176000Y-132016500D01*
X136652000Y-129159000D02*
X136652000Y-129349500D01*
X138176000Y-129159000D02*
X138176000Y-129349500D01*
X138176000Y-132207000D02*
X136652000Y-132207000D01*
X138176000Y-129159000D02*
X136652000Y-129159000D01*
X137464800Y-124688600D02*
G75*
G03X137464800Y-124688600I-254000J0D01*
G74*
G01*
X136652000Y-125984000D02*
X136652000Y-126174500D01*
X136652000Y-125031500D02*
X136652000Y-125222000D01*
X138176000Y-125984000D02*
X138176000Y-126174500D01*
X138176000Y-125031500D02*
X138176000Y-125222000D01*
X136652000Y-127127000D02*
X136652000Y-126936500D01*
X138176000Y-127127000D02*
X138176000Y-126936500D01*
X136652000Y-124079000D02*
X136652000Y-124269500D01*
X138176000Y-124079000D02*
X138176000Y-124269500D01*
X138176000Y-127127000D02*
X136652000Y-127127000D01*
X138176000Y-124079000D02*
X136652000Y-124079000D01*
X137464800Y-119608600D02*
G75*
G03X137464800Y-119608600I-254000J0D01*
G74*
G01*
X136652000Y-120904000D02*
X136652000Y-121094500D01*
X136652000Y-119951500D02*
X136652000Y-120142000D01*
X138176000Y-120904000D02*
X138176000Y-121094500D01*
X138176000Y-119951500D02*
X138176000Y-120142000D01*
X136652000Y-122047000D02*
X136652000Y-121856500D01*
X138176000Y-122047000D02*
X138176000Y-121856500D01*
X136652000Y-118999000D02*
X136652000Y-119189500D01*
X138176000Y-118999000D02*
X138176000Y-119189500D01*
X138176000Y-122047000D02*
X136652000Y-122047000D01*
X138176000Y-118999000D02*
X136652000Y-118999000D01*
X137464800Y-114528600D02*
G75*
G03X137464800Y-114528600I-254000J0D01*
G74*
G01*
X136652000Y-115824000D02*
X136652000Y-116014500D01*
X136652000Y-114871500D02*
X136652000Y-115062000D01*
X138176000Y-115824000D02*
X138176000Y-116014500D01*
X138176000Y-114871500D02*
X138176000Y-115062000D01*
X136652000Y-116967000D02*
X136652000Y-116776500D01*
X138176000Y-116967000D02*
X138176000Y-116776500D01*
X136652000Y-113919000D02*
X136652000Y-114109500D01*
X138176000Y-113919000D02*
X138176000Y-114109500D01*
X138176000Y-116967000D02*
X136652000Y-116967000D01*
X138176000Y-113919000D02*
X136652000Y-113919000D01*
D19*
X145288000Y-145161000D02*
G75*
G03X145288000Y-145161000I-127000J0D01*
G74*
G01*
X145161000Y-146304000D02*
X145161000Y-145288000D01*
X145161000Y-145288000D02*
X146685000Y-145288000D01*
X146685000Y-145288000D02*
X146685000Y-146304000D01*
X146685000Y-147320000D02*
X146685000Y-148336000D01*
X146685000Y-148336000D02*
X145161000Y-148336000D01*
X145161000Y-148336000D02*
X145161000Y-147320000D01*
X134747000Y-146431000D02*
G75*
G03X134747000Y-146431000I-127000J0D01*
G74*
G01*
X133477000Y-146431000D02*
X134493000Y-146431000D01*
X134493000Y-146431000D02*
X134493000Y-147955000D01*
X134493000Y-147955000D02*
X133477000Y-147955000D01*
X132461000Y-147955000D02*
X131445000Y-147955000D01*
X131445000Y-147955000D02*
X131445000Y-146431000D01*
X131445000Y-146431000D02*
X132461000Y-146431000D01*
X134747000Y-141351000D02*
G75*
G03X134747000Y-141351000I-127000J0D01*
G74*
G01*
X133477000Y-141351000D02*
X134493000Y-141351000D01*
X134493000Y-141351000D02*
X134493000Y-142875000D01*
X134493000Y-142875000D02*
X133477000Y-142875000D01*
X132461000Y-142875000D02*
X131445000Y-142875000D01*
X131445000Y-142875000D02*
X131445000Y-141351000D01*
X131445000Y-141351000D02*
X132461000Y-141351000D01*
X134747000Y-136271000D02*
G75*
G03X134747000Y-136271000I-127000J0D01*
G74*
G01*
X133477000Y-136271000D02*
X134493000Y-136271000D01*
X134493000Y-136271000D02*
X134493000Y-137795000D01*
X134493000Y-137795000D02*
X133477000Y-137795000D01*
X132461000Y-137795000D02*
X131445000Y-137795000D01*
X131445000Y-137795000D02*
X131445000Y-136271000D01*
X131445000Y-136271000D02*
X132461000Y-136271000D01*
X134747000Y-131191000D02*
G75*
G03X134747000Y-131191000I-127000J0D01*
G74*
G01*
X133477000Y-131191000D02*
X134493000Y-131191000D01*
X134493000Y-131191000D02*
X134493000Y-132715000D01*
X134493000Y-132715000D02*
X133477000Y-132715000D01*
X132461000Y-132715000D02*
X131445000Y-132715000D01*
X131445000Y-132715000D02*
X131445000Y-131191000D01*
X131445000Y-131191000D02*
X132461000Y-131191000D01*
X134747000Y-126111000D02*
G75*
G03X134747000Y-126111000I-127000J0D01*
G74*
G01*
X133477000Y-126111000D02*
X134493000Y-126111000D01*
X134493000Y-126111000D02*
X134493000Y-127635000D01*
X134493000Y-127635000D02*
X133477000Y-127635000D01*
X132461000Y-127635000D02*
X131445000Y-127635000D01*
X131445000Y-127635000D02*
X131445000Y-126111000D01*
X131445000Y-126111000D02*
X132461000Y-126111000D01*
X134747000Y-121031000D02*
G75*
G03X134747000Y-121031000I-127000J0D01*
G74*
G01*
X133477000Y-121031000D02*
X134493000Y-121031000D01*
X134493000Y-121031000D02*
X134493000Y-122555000D01*
X134493000Y-122555000D02*
X133477000Y-122555000D01*
X132461000Y-122555000D02*
X131445000Y-122555000D01*
X131445000Y-122555000D02*
X131445000Y-121031000D01*
X131445000Y-121031000D02*
X132461000Y-121031000D01*
X134747000Y-115951000D02*
G75*
G03X134747000Y-115951000I-127000J0D01*
G74*
G01*
X133477000Y-115951000D02*
X134493000Y-115951000D01*
X134493000Y-115951000D02*
X134493000Y-117475000D01*
X134493000Y-117475000D02*
X133477000Y-117475000D01*
X132461000Y-117475000D02*
X131445000Y-117475000D01*
X131445000Y-117475000D02*
X131445000Y-115951000D01*
X131445000Y-115951000D02*
X132461000Y-115951000D01*
X148971000Y-147701000D02*
G75*
G03X148971000Y-147701000I-127000J0D01*
G74*
G01*
X148844000Y-146558000D02*
X148844000Y-147574000D01*
X148844000Y-147574000D02*
X147320000Y-147574000D01*
X147320000Y-147574000D02*
X147320000Y-146558000D01*
X147320000Y-145542000D02*
X147320000Y-144526000D01*
X147320000Y-144526000D02*
X148844000Y-144526000D01*
X148844000Y-144526000D02*
X148844000Y-145542000D01*
X131445000Y-145415000D02*
G75*
G03X131445000Y-145415000I-127000J0D01*
G74*
G01*
X132461000Y-145415000D02*
X131445000Y-145415000D01*
X131445000Y-145415000D02*
X131445000Y-143891000D01*
X131445000Y-143891000D02*
X132461000Y-143891000D01*
X133477000Y-143891000D02*
X134493000Y-143891000D01*
X134493000Y-143891000D02*
X134493000Y-145415000D01*
X134493000Y-145415000D02*
X133477000Y-145415000D01*
X131445000Y-140335000D02*
G75*
G03X131445000Y-140335000I-127000J0D01*
G74*
G01*
X132461000Y-140335000D02*
X131445000Y-140335000D01*
X131445000Y-140335000D02*
X131445000Y-138811000D01*
X131445000Y-138811000D02*
X132461000Y-138811000D01*
X133477000Y-138811000D02*
X134493000Y-138811000D01*
X134493000Y-138811000D02*
X134493000Y-140335000D01*
X134493000Y-140335000D02*
X133477000Y-140335000D01*
X131445000Y-135255000D02*
G75*
G03X131445000Y-135255000I-127000J0D01*
G74*
G01*
X132461000Y-135255000D02*
X131445000Y-135255000D01*
X131445000Y-135255000D02*
X131445000Y-133731000D01*
X131445000Y-133731000D02*
X132461000Y-133731000D01*
X133477000Y-133731000D02*
X134493000Y-133731000D01*
X134493000Y-133731000D02*
X134493000Y-135255000D01*
X134493000Y-135255000D02*
X133477000Y-135255000D01*
X131445000Y-130175000D02*
G75*
G03X131445000Y-130175000I-127000J0D01*
G74*
G01*
X132461000Y-130175000D02*
X131445000Y-130175000D01*
X131445000Y-130175000D02*
X131445000Y-128651000D01*
X131445000Y-128651000D02*
X132461000Y-128651000D01*
X133477000Y-128651000D02*
X134493000Y-128651000D01*
X134493000Y-128651000D02*
X134493000Y-130175000D01*
X134493000Y-130175000D02*
X133477000Y-130175000D01*
X131445000Y-125095000D02*
G75*
G03X131445000Y-125095000I-127000J0D01*
G74*
G01*
X132461000Y-125095000D02*
X131445000Y-125095000D01*
X131445000Y-125095000D02*
X131445000Y-123571000D01*
X131445000Y-123571000D02*
X132461000Y-123571000D01*
X133477000Y-123571000D02*
X134493000Y-123571000D01*
X134493000Y-123571000D02*
X134493000Y-125095000D01*
X134493000Y-125095000D02*
X133477000Y-125095000D01*
X131445000Y-120015000D02*
G75*
G03X131445000Y-120015000I-127000J0D01*
G74*
G01*
X132461000Y-120015000D02*
X131445000Y-120015000D01*
X131445000Y-120015000D02*
X131445000Y-118491000D01*
X131445000Y-118491000D02*
X132461000Y-118491000D01*
X133477000Y-118491000D02*
X134493000Y-118491000D01*
X134493000Y-118491000D02*
X134493000Y-120015000D01*
X134493000Y-120015000D02*
X133477000Y-120015000D01*
X131445000Y-114935000D02*
G75*
G03X131445000Y-114935000I-127000J0D01*
G74*
G01*
X132461000Y-114935000D02*
X131445000Y-114935000D01*
X131445000Y-114935000D02*
X131445000Y-113411000D01*
X131445000Y-113411000D02*
X132461000Y-113411000D01*
X133477000Y-113411000D02*
X134493000Y-113411000D01*
X134493000Y-113411000D02*
X134493000Y-114935000D01*
X134493000Y-114935000D02*
X133477000Y-114935000D01*
D17*
X107315000Y-136144000D02*
X107315000Y-136017000D01*
X107315000Y-136017000D02*
X101981000Y-136017000D01*
X101981000Y-139827000D02*
X107315000Y-139827000D01*
X107315000Y-139827000D02*
X107315000Y-136144000D01*
X107315000Y-138430000D02*
X106807000Y-138430000D01*
X106807000Y-138430000D02*
X106807000Y-137414000D01*
X106807000Y-137414000D02*
X107315000Y-137414000D01*
X101981000Y-139827000D02*
X101981000Y-136017000D01*
D16*
X104648000Y-104140000D02*
X102108000Y-104140000D01*
X104648000Y-101600000D02*
X102108000Y-101600000D01*
X102108000Y-101600000D02*
X102108000Y-104140000D01*
X102108000Y-104140000D02*
X102108000Y-106680000D01*
X102108000Y-106680000D02*
X104648000Y-106680000D01*
X104648000Y-106680000D02*
X104648000Y-101600000D01*
X108712000Y-104775000D02*
X108712000Y-102235000D01*
X111252000Y-104775000D02*
X111252000Y-102235000D01*
X111252000Y-102235000D02*
X108712000Y-102235000D01*
X108712000Y-102235000D02*
X106172000Y-102235000D01*
X106172000Y-102235000D02*
X106172000Y-104775000D01*
X106172000Y-104775000D02*
X111252000Y-104775000D01*
X104648000Y-146050000D02*
X102108000Y-146050000D01*
X104648000Y-143510000D02*
X102108000Y-143510000D01*
X102108000Y-143510000D02*
X102108000Y-146050000D01*
X102108000Y-146050000D02*
X102108000Y-148590000D01*
X102108000Y-148590000D02*
X104648000Y-148590000D01*
X104648000Y-148590000D02*
X104648000Y-143510000D01*
X110363000Y-145542000D02*
X110363000Y-148082000D01*
X107823000Y-145542000D02*
X107823000Y-148082000D01*
X107823000Y-148082000D02*
X110363000Y-148082000D01*
X110363000Y-148082000D02*
X112903000Y-148082000D01*
X112903000Y-148082000D02*
X112903000Y-145542000D01*
X112903000Y-145542000D02*
X107823000Y-145542000D01*
X142367000Y-118745000D02*
X142367000Y-139065000D01*
X147447000Y-136525000D02*
X147447000Y-118745000D01*
X142367000Y-118745000D02*
X147447000Y-118745000D01*
X142367000Y-139065000D02*
X144907000Y-139065000D01*
X147447000Y-139065000D02*
X147447000Y-136525000D01*
X144907000Y-139065000D02*
X144907000Y-136525000D01*
X144907000Y-136525000D02*
X147447000Y-136525000D01*
X147447000Y-139065000D02*
X144907000Y-139065000D01*
D18*
X108465034Y-115570000D02*
G75*
G03X108465034Y-115570000I-1150034J0D01*
G74*
G01*
X107703034Y-129540000D02*
G75*
G03X107703034Y-129540000I-1150034J0D01*
G74*
G01*
D12*
X116075010Y-112669581D02*
X116075010Y-111669581D01*
X117122629Y-112574343D02*
X117075010Y-112621962D01*
X116932153Y-112669581D01*
X116836915Y-112669581D01*
X116694057Y-112621962D01*
X116598819Y-112526724D01*
X116551200Y-112431486D01*
X116503581Y-112241010D01*
X116503581Y-112098152D01*
X116551200Y-111907676D01*
X116598819Y-111812438D01*
X116694057Y-111717200D01*
X116836915Y-111669581D01*
X116932153Y-111669581D01*
X117075010Y-111717200D01*
X117122629Y-111764819D01*
X117503581Y-112621962D02*
X117646438Y-112669581D01*
X117884534Y-112669581D01*
X117979772Y-112621962D01*
X118027391Y-112574343D01*
X118075010Y-112479105D01*
X118075010Y-112383867D01*
X118027391Y-112288629D01*
X117979772Y-112241010D01*
X117884534Y-112193390D01*
X117694057Y-112145771D01*
X117598819Y-112098152D01*
X117551200Y-112050533D01*
X117503581Y-111955295D01*
X117503581Y-111860057D01*
X117551200Y-111764819D01*
X117598819Y-111717200D01*
X117694057Y-111669581D01*
X117932153Y-111669581D01*
X118075010Y-111717200D01*
X118503581Y-112669581D02*
X118503581Y-111669581D01*
X118884534Y-111669581D01*
X118979772Y-111717200D01*
X119027391Y-111764819D01*
X119075010Y-111860057D01*
X119075010Y-112002914D01*
X119027391Y-112098152D01*
X118979772Y-112145771D01*
X118884534Y-112193390D01*
X118503581Y-112193390D01*
X116784572Y-134818381D02*
X116213143Y-134818381D01*
X116498857Y-134818381D02*
X116498857Y-133818381D01*
X116403619Y-133961238D01*
X116308381Y-134056476D01*
X116213143Y-134104095D01*
X117641715Y-133818381D02*
X117451238Y-133818381D01*
X117356000Y-133866000D01*
X117308381Y-133913619D01*
X117213143Y-134056476D01*
X117165524Y-134246952D01*
X117165524Y-134627905D01*
X117213143Y-134723143D01*
X117260762Y-134770762D01*
X117356000Y-134818381D01*
X117546477Y-134818381D01*
X117641715Y-134770762D01*
X117689334Y-134723143D01*
X117736953Y-134627905D01*
X117736953Y-134389810D01*
X117689334Y-134294571D01*
X117641715Y-134246952D01*
X117546477Y-134199333D01*
X117356000Y-134199333D01*
X117260762Y-134246952D01*
X117213143Y-134294571D01*
X117165524Y-134389810D01*
X118165524Y-134151714D02*
X118165524Y-135151714D01*
X118165524Y-134199333D02*
X118260762Y-134151714D01*
X118451239Y-134151714D01*
X118546477Y-134199333D01*
X118594096Y-134246952D01*
X118641715Y-134342190D01*
X118641715Y-134627905D01*
X118594096Y-134723143D01*
X118546477Y-134770762D01*
X118451239Y-134818381D01*
X118260762Y-134818381D01*
X118165524Y-134770762D01*
X119403620Y-134294571D02*
X119070286Y-134294571D01*
X119070286Y-134818381D02*
X119070286Y-133818381D01*
X119546477Y-133818381D01*
X113609572Y-143327381D02*
X113038143Y-143327381D01*
X113323857Y-143327381D02*
X113323857Y-142327381D01*
X113228619Y-142470238D01*
X113133381Y-142565476D01*
X113038143Y-142613095D01*
X114466715Y-142327381D02*
X114276238Y-142327381D01*
X114181000Y-142375000D01*
X114133381Y-142422619D01*
X114038143Y-142565476D01*
X113990524Y-142755952D01*
X113990524Y-143136905D01*
X114038143Y-143232143D01*
X114085762Y-143279762D01*
X114181000Y-143327381D01*
X114371477Y-143327381D01*
X114466715Y-143279762D01*
X114514334Y-143232143D01*
X114561953Y-143136905D01*
X114561953Y-142898810D01*
X114514334Y-142803571D01*
X114466715Y-142755952D01*
X114371477Y-142708333D01*
X114181000Y-142708333D01*
X114085762Y-142755952D01*
X114038143Y-142803571D01*
X113990524Y-142898810D01*
X114990524Y-142660714D02*
X114990524Y-143660714D01*
X114990524Y-142708333D02*
X115085762Y-142660714D01*
X115276239Y-142660714D01*
X115371477Y-142708333D01*
X115419096Y-142755952D01*
X115466715Y-142851190D01*
X115466715Y-143136905D01*
X115419096Y-143232143D01*
X115371477Y-143279762D01*
X115276239Y-143327381D01*
X115085762Y-143327381D01*
X114990524Y-143279762D01*
X116228620Y-142803571D02*
X115895286Y-142803571D01*
X115895286Y-143327381D02*
X115895286Y-142327381D01*
X116371477Y-142327381D01*
X110450381Y-126452048D02*
X110450381Y-126356809D01*
X110498000Y-126261571D01*
X110545619Y-126213952D01*
X110640857Y-126166333D01*
X110831333Y-126118714D01*
X111069429Y-126118714D01*
X111259905Y-126166333D01*
X111355143Y-126213952D01*
X111402762Y-126261571D01*
X111450381Y-126356809D01*
X111450381Y-126452048D01*
X111402762Y-126547286D01*
X111355143Y-126594905D01*
X111259905Y-126642524D01*
X111069429Y-126690143D01*
X110831333Y-126690143D01*
X110640857Y-126642524D01*
X110545619Y-126594905D01*
X110498000Y-126547286D01*
X110450381Y-126452048D01*
X111355143Y-125690143D02*
X111402762Y-125642524D01*
X111450381Y-125690143D01*
X111402762Y-125737762D01*
X111355143Y-125690143D01*
X111450381Y-125690143D01*
X110450381Y-125309191D02*
X110450381Y-124690143D01*
X110831333Y-125023477D01*
X110831333Y-124880619D01*
X110878952Y-124785381D01*
X110926571Y-124737762D01*
X111021810Y-124690143D01*
X111259905Y-124690143D01*
X111355143Y-124737762D01*
X111402762Y-124785381D01*
X111450381Y-124880619D01*
X111450381Y-125166334D01*
X111402762Y-125261572D01*
X111355143Y-125309191D01*
X110450381Y-124356810D02*
X110450381Y-123737762D01*
X110831333Y-124071096D01*
X110831333Y-123928238D01*
X110878952Y-123833000D01*
X110926571Y-123785381D01*
X111021810Y-123737762D01*
X111259905Y-123737762D01*
X111355143Y-123785381D01*
X111402762Y-123833000D01*
X111450381Y-123928238D01*
X111450381Y-124213953D01*
X111402762Y-124309191D01*
X111355143Y-124356810D01*
X110783714Y-122880619D02*
X111450381Y-122880619D01*
X110783714Y-123309191D02*
X111307524Y-123309191D01*
X111402762Y-123261572D01*
X111450381Y-123166334D01*
X111450381Y-123023476D01*
X111402762Y-122928238D01*
X111355143Y-122880619D01*
X110926571Y-122071095D02*
X110926571Y-122404429D01*
X111450381Y-122404429D02*
X110450381Y-122404429D01*
X110450381Y-121928238D01*
X102370143Y-142073381D02*
X102465382Y-142073381D01*
X102560620Y-142121000D01*
X102608239Y-142168619D01*
X102655858Y-142263857D01*
X102703477Y-142454333D01*
X102703477Y-142692429D01*
X102655858Y-142882905D01*
X102608239Y-142978143D01*
X102560620Y-143025762D01*
X102465382Y-143073381D01*
X102370143Y-143073381D01*
X102274905Y-143025762D01*
X102227286Y-142978143D01*
X102179667Y-142882905D01*
X102132048Y-142692429D01*
X102132048Y-142454333D01*
X102179667Y-142263857D01*
X102227286Y-142168619D01*
X102274905Y-142121000D01*
X102370143Y-142073381D01*
X103132048Y-142978143D02*
X103179667Y-143025762D01*
X103132048Y-143073381D01*
X103084429Y-143025762D01*
X103132048Y-142978143D01*
X103132048Y-143073381D01*
X104132048Y-143073381D02*
X103560619Y-143073381D01*
X103846333Y-143073381D02*
X103846333Y-142073381D01*
X103751095Y-142216238D01*
X103655857Y-142311476D01*
X103560619Y-142359095D01*
X104989191Y-142406714D02*
X104989191Y-143073381D01*
X104560619Y-142406714D02*
X104560619Y-142930524D01*
X104608238Y-143025762D01*
X104703476Y-143073381D01*
X104846334Y-143073381D01*
X104941572Y-143025762D01*
X104989191Y-142978143D01*
X105798715Y-142549571D02*
X105465381Y-142549571D01*
X105465381Y-143073381D02*
X105465381Y-142073381D01*
X105941572Y-142073381D01*
X110450381Y-120641857D02*
X110450381Y-120546618D01*
X110498000Y-120451380D01*
X110545619Y-120403761D01*
X110640857Y-120356142D01*
X110831333Y-120308523D01*
X111069429Y-120308523D01*
X111259905Y-120356142D01*
X111355143Y-120403761D01*
X111402762Y-120451380D01*
X111450381Y-120546618D01*
X111450381Y-120641857D01*
X111402762Y-120737095D01*
X111355143Y-120784714D01*
X111259905Y-120832333D01*
X111069429Y-120879952D01*
X110831333Y-120879952D01*
X110640857Y-120832333D01*
X110545619Y-120784714D01*
X110498000Y-120737095D01*
X110450381Y-120641857D01*
X111355143Y-119879952D02*
X111402762Y-119832333D01*
X111450381Y-119879952D01*
X111402762Y-119927571D01*
X111355143Y-119879952D01*
X111450381Y-119879952D01*
X111450381Y-118879952D02*
X111450381Y-119451381D01*
X111450381Y-119165667D02*
X110450381Y-119165667D01*
X110593238Y-119260905D01*
X110688476Y-119356143D01*
X110736095Y-119451381D01*
X110783714Y-118022809D02*
X111450381Y-118022809D01*
X110783714Y-118451381D02*
X111307524Y-118451381D01*
X111402762Y-118403762D01*
X111450381Y-118308524D01*
X111450381Y-118165666D01*
X111402762Y-118070428D01*
X111355143Y-118022809D01*
X110926571Y-117213285D02*
X110926571Y-117546619D01*
X111450381Y-117546619D02*
X110450381Y-117546619D01*
X110450381Y-117070428D01*
X120835943Y-118730781D02*
X120931182Y-118730781D01*
X121026420Y-118778400D01*
X121074039Y-118826019D01*
X121121658Y-118921257D01*
X121169277Y-119111733D01*
X121169277Y-119349829D01*
X121121658Y-119540305D01*
X121074039Y-119635543D01*
X121026420Y-119683162D01*
X120931182Y-119730781D01*
X120835943Y-119730781D01*
X120740705Y-119683162D01*
X120693086Y-119635543D01*
X120645467Y-119540305D01*
X120597848Y-119349829D01*
X120597848Y-119111733D01*
X120645467Y-118921257D01*
X120693086Y-118826019D01*
X120740705Y-118778400D01*
X120835943Y-118730781D01*
X121597848Y-119635543D02*
X121645467Y-119683162D01*
X121597848Y-119730781D01*
X121550229Y-119683162D01*
X121597848Y-119635543D01*
X121597848Y-119730781D01*
X122597848Y-119730781D02*
X122026419Y-119730781D01*
X122312133Y-119730781D02*
X122312133Y-118730781D01*
X122216895Y-118873638D01*
X122121657Y-118968876D01*
X122026419Y-119016495D01*
X123454991Y-119064114D02*
X123454991Y-119730781D01*
X123026419Y-119064114D02*
X123026419Y-119587924D01*
X123074038Y-119683162D01*
X123169276Y-119730781D01*
X123312134Y-119730781D01*
X123407372Y-119683162D01*
X123454991Y-119635543D01*
X124264515Y-119206971D02*
X123931181Y-119206971D01*
X123931181Y-119730781D02*
X123931181Y-118730781D01*
X124407372Y-118730781D01*
D18*
X117221048Y-109799429D02*
X117982953Y-109799429D01*
X117602001Y-110180381D02*
X117602001Y-109418476D01*
X117094048Y-104973429D02*
X117855953Y-104973429D01*
X117475001Y-105354381D02*
X117475001Y-104592476D01*
X120269048Y-109799429D02*
X121030953Y-109799429D01*
X120650001Y-110180381D02*
X120650001Y-109418476D01*
X120396048Y-104973429D02*
X121157953Y-104973429D01*
X120777001Y-105354381D02*
X120777001Y-104592476D01*
D12*
X142144905Y-148010619D02*
X142192524Y-147963000D01*
X142287762Y-147915381D01*
X142525858Y-147915381D01*
X142621096Y-147963000D01*
X142668715Y-148010619D01*
X142716334Y-148105857D01*
X142716334Y-148201095D01*
X142668715Y-148343952D01*
X142097286Y-148915381D01*
X142716334Y-148915381D01*
X143573477Y-148248714D02*
X143573477Y-148915381D01*
X143335381Y-147867762D02*
X143097286Y-148582048D01*
X143716334Y-148582048D01*
X144287762Y-147915381D02*
X144383001Y-147915381D01*
X144478239Y-147963000D01*
X144525858Y-148010619D01*
X144573477Y-148105857D01*
X144621096Y-148296333D01*
X144621096Y-148534429D01*
X144573477Y-148724905D01*
X144525858Y-148820143D01*
X144478239Y-148867762D01*
X144383001Y-148915381D01*
X144287762Y-148915381D01*
X144192524Y-148867762D01*
X144144905Y-148820143D01*
X144097286Y-148724905D01*
X144049667Y-148534429D01*
X144049667Y-148296333D01*
X144097286Y-148105857D01*
X144144905Y-148010619D01*
X144192524Y-147963000D01*
X144287762Y-147915381D01*
X131730905Y-148493219D02*
X131778524Y-148445600D01*
X131873762Y-148397981D01*
X132111858Y-148397981D01*
X132207096Y-148445600D01*
X132254715Y-148493219D01*
X132302334Y-148588457D01*
X132302334Y-148683695D01*
X132254715Y-148826552D01*
X131683286Y-149397981D01*
X132302334Y-149397981D01*
X133159477Y-148731314D02*
X133159477Y-149397981D01*
X132921381Y-148350362D02*
X132683286Y-149064648D01*
X133302334Y-149064648D01*
X133873762Y-148397981D02*
X133969001Y-148397981D01*
X134064239Y-148445600D01*
X134111858Y-148493219D01*
X134159477Y-148588457D01*
X134207096Y-148778933D01*
X134207096Y-149017029D01*
X134159477Y-149207505D01*
X134111858Y-149302743D01*
X134064239Y-149350362D01*
X133969001Y-149397981D01*
X133873762Y-149397981D01*
X133778524Y-149350362D01*
X133730905Y-149302743D01*
X133683286Y-149207505D01*
X133635667Y-149017029D01*
X133635667Y-148778933D01*
X133683286Y-148588457D01*
X133730905Y-148493219D01*
X133778524Y-148445600D01*
X133873762Y-148397981D01*
X128555905Y-141787619D02*
X128603524Y-141740000D01*
X128698762Y-141692381D01*
X128936858Y-141692381D01*
X129032096Y-141740000D01*
X129079715Y-141787619D01*
X129127334Y-141882857D01*
X129127334Y-141978095D01*
X129079715Y-142120952D01*
X128508286Y-142692381D01*
X129127334Y-142692381D01*
X129984477Y-142025714D02*
X129984477Y-142692381D01*
X129746381Y-141644762D02*
X129508286Y-142359048D01*
X130127334Y-142359048D01*
X130698762Y-141692381D02*
X130794001Y-141692381D01*
X130889239Y-141740000D01*
X130936858Y-141787619D01*
X130984477Y-141882857D01*
X131032096Y-142073333D01*
X131032096Y-142311429D01*
X130984477Y-142501905D01*
X130936858Y-142597143D01*
X130889239Y-142644762D01*
X130794001Y-142692381D01*
X130698762Y-142692381D01*
X130603524Y-142644762D01*
X130555905Y-142597143D01*
X130508286Y-142501905D01*
X130460667Y-142311429D01*
X130460667Y-142073333D01*
X130508286Y-141882857D01*
X130555905Y-141787619D01*
X130603524Y-141740000D01*
X130698762Y-141692381D01*
X128555905Y-137596619D02*
X128603524Y-137549000D01*
X128698762Y-137501381D01*
X128936858Y-137501381D01*
X129032096Y-137549000D01*
X129079715Y-137596619D01*
X129127334Y-137691857D01*
X129127334Y-137787095D01*
X129079715Y-137929952D01*
X128508286Y-138501381D01*
X129127334Y-138501381D01*
X129984477Y-137834714D02*
X129984477Y-138501381D01*
X129746381Y-137453762D02*
X129508286Y-138168048D01*
X130127334Y-138168048D01*
X130698762Y-137501381D02*
X130794001Y-137501381D01*
X130889239Y-137549000D01*
X130936858Y-137596619D01*
X130984477Y-137691857D01*
X131032096Y-137882333D01*
X131032096Y-138120429D01*
X130984477Y-138310905D01*
X130936858Y-138406143D01*
X130889239Y-138453762D01*
X130794001Y-138501381D01*
X130698762Y-138501381D01*
X130603524Y-138453762D01*
X130555905Y-138406143D01*
X130508286Y-138310905D01*
X130460667Y-138120429D01*
X130460667Y-137882333D01*
X130508286Y-137691857D01*
X130555905Y-137596619D01*
X130603524Y-137549000D01*
X130698762Y-137501381D01*
X128555905Y-130738619D02*
X128603524Y-130691000D01*
X128698762Y-130643381D01*
X128936858Y-130643381D01*
X129032096Y-130691000D01*
X129079715Y-130738619D01*
X129127334Y-130833857D01*
X129127334Y-130929095D01*
X129079715Y-131071952D01*
X128508286Y-131643381D01*
X129127334Y-131643381D01*
X129984477Y-130976714D02*
X129984477Y-131643381D01*
X129746381Y-130595762D02*
X129508286Y-131310048D01*
X130127334Y-131310048D01*
X130698762Y-130643381D02*
X130794001Y-130643381D01*
X130889239Y-130691000D01*
X130936858Y-130738619D01*
X130984477Y-130833857D01*
X131032096Y-131024333D01*
X131032096Y-131262429D01*
X130984477Y-131452905D01*
X130936858Y-131548143D01*
X130889239Y-131595762D01*
X130794001Y-131643381D01*
X130698762Y-131643381D01*
X130603524Y-131595762D01*
X130555905Y-131548143D01*
X130508286Y-131452905D01*
X130460667Y-131262429D01*
X130460667Y-131024333D01*
X130508286Y-130833857D01*
X130555905Y-130738619D01*
X130603524Y-130691000D01*
X130698762Y-130643381D01*
X128555905Y-126420619D02*
X128603524Y-126373000D01*
X128698762Y-126325381D01*
X128936858Y-126325381D01*
X129032096Y-126373000D01*
X129079715Y-126420619D01*
X129127334Y-126515857D01*
X129127334Y-126611095D01*
X129079715Y-126753952D01*
X128508286Y-127325381D01*
X129127334Y-127325381D01*
X129984477Y-126658714D02*
X129984477Y-127325381D01*
X129746381Y-126277762D02*
X129508286Y-126992048D01*
X130127334Y-126992048D01*
X130698762Y-126325381D02*
X130794001Y-126325381D01*
X130889239Y-126373000D01*
X130936858Y-126420619D01*
X130984477Y-126515857D01*
X131032096Y-126706333D01*
X131032096Y-126944429D01*
X130984477Y-127134905D01*
X130936858Y-127230143D01*
X130889239Y-127277762D01*
X130794001Y-127325381D01*
X130698762Y-127325381D01*
X130603524Y-127277762D01*
X130555905Y-127230143D01*
X130508286Y-127134905D01*
X130460667Y-126944429D01*
X130460667Y-126706333D01*
X130508286Y-126515857D01*
X130555905Y-126420619D01*
X130603524Y-126373000D01*
X130698762Y-126325381D01*
X128555905Y-121340619D02*
X128603524Y-121293000D01*
X128698762Y-121245381D01*
X128936858Y-121245381D01*
X129032096Y-121293000D01*
X129079715Y-121340619D01*
X129127334Y-121435857D01*
X129127334Y-121531095D01*
X129079715Y-121673952D01*
X128508286Y-122245381D01*
X129127334Y-122245381D01*
X129984477Y-121578714D02*
X129984477Y-122245381D01*
X129746381Y-121197762D02*
X129508286Y-121912048D01*
X130127334Y-121912048D01*
X130698762Y-121245381D02*
X130794001Y-121245381D01*
X130889239Y-121293000D01*
X130936858Y-121340619D01*
X130984477Y-121435857D01*
X131032096Y-121626333D01*
X131032096Y-121864429D01*
X130984477Y-122054905D01*
X130936858Y-122150143D01*
X130889239Y-122197762D01*
X130794001Y-122245381D01*
X130698762Y-122245381D01*
X130603524Y-122197762D01*
X130555905Y-122150143D01*
X130508286Y-122054905D01*
X130460667Y-121864429D01*
X130460667Y-121626333D01*
X130508286Y-121435857D01*
X130555905Y-121340619D01*
X130603524Y-121293000D01*
X130698762Y-121245381D01*
X128530505Y-116286019D02*
X128578124Y-116238400D01*
X128673362Y-116190781D01*
X128911458Y-116190781D01*
X129006696Y-116238400D01*
X129054315Y-116286019D01*
X129101934Y-116381257D01*
X129101934Y-116476495D01*
X129054315Y-116619352D01*
X128482886Y-117190781D01*
X129101934Y-117190781D01*
X129959077Y-116524114D02*
X129959077Y-117190781D01*
X129720981Y-116143162D02*
X129482886Y-116857448D01*
X130101934Y-116857448D01*
X130673362Y-116190781D02*
X130768601Y-116190781D01*
X130863839Y-116238400D01*
X130911458Y-116286019D01*
X130959077Y-116381257D01*
X131006696Y-116571733D01*
X131006696Y-116809829D01*
X130959077Y-117000305D01*
X130911458Y-117095543D01*
X130863839Y-117143162D01*
X130768601Y-117190781D01*
X130673362Y-117190781D01*
X130578124Y-117143162D01*
X130530505Y-117095543D01*
X130482886Y-117000305D01*
X130435267Y-116809829D01*
X130435267Y-116571733D01*
X130482886Y-116381257D01*
X130530505Y-116286019D01*
X130578124Y-116238400D01*
X130673362Y-116190781D01*
X148915381Y-143343238D02*
X148915381Y-143914667D01*
X148915381Y-143628953D02*
X147915381Y-143628953D01*
X148058238Y-143724191D01*
X148153476Y-143819429D01*
X148201095Y-143914667D01*
X147915381Y-142724191D02*
X147915381Y-142628952D01*
X147963000Y-142533714D01*
X148010619Y-142486095D01*
X148105857Y-142438476D01*
X148296333Y-142390857D01*
X148534429Y-142390857D01*
X148724905Y-142438476D01*
X148820143Y-142486095D01*
X148867762Y-142533714D01*
X148915381Y-142628952D01*
X148915381Y-142724191D01*
X148867762Y-142819429D01*
X148820143Y-142867048D01*
X148724905Y-142914667D01*
X148534429Y-142962286D01*
X148296333Y-142962286D01*
X148105857Y-142914667D01*
X148010619Y-142867048D01*
X147963000Y-142819429D01*
X147915381Y-142724191D01*
X148915381Y-141962286D02*
X147915381Y-141962286D01*
X148534429Y-141867048D02*
X148915381Y-141581333D01*
X148248714Y-141581333D02*
X148629667Y-141962286D01*
X127852562Y-144800581D02*
X127281133Y-144800581D01*
X127566847Y-144800581D02*
X127566847Y-143800581D01*
X127471609Y-143943438D01*
X127376371Y-144038676D01*
X127281133Y-144086295D01*
X128471609Y-143800581D02*
X128566848Y-143800581D01*
X128662086Y-143848200D01*
X128709705Y-143895819D01*
X128757324Y-143991057D01*
X128804943Y-144181533D01*
X128804943Y-144419629D01*
X128757324Y-144610105D01*
X128709705Y-144705343D01*
X128662086Y-144752962D01*
X128566848Y-144800581D01*
X128471609Y-144800581D01*
X128376371Y-144752962D01*
X128328752Y-144705343D01*
X128281133Y-144610105D01*
X128233514Y-144419629D01*
X128233514Y-144181533D01*
X128281133Y-143991057D01*
X128328752Y-143895819D01*
X128376371Y-143848200D01*
X128471609Y-143800581D01*
X129233514Y-144800581D02*
X129233514Y-143800581D01*
X129328752Y-144419629D02*
X129614467Y-144800581D01*
X129614467Y-144133914D02*
X129233514Y-144514867D01*
X128131962Y-140101581D02*
X127560533Y-140101581D01*
X127846247Y-140101581D02*
X127846247Y-139101581D01*
X127751009Y-139244438D01*
X127655771Y-139339676D01*
X127560533Y-139387295D01*
X128751009Y-139101581D02*
X128846248Y-139101581D01*
X128941486Y-139149200D01*
X128989105Y-139196819D01*
X129036724Y-139292057D01*
X129084343Y-139482533D01*
X129084343Y-139720629D01*
X129036724Y-139911105D01*
X128989105Y-140006343D01*
X128941486Y-140053962D01*
X128846248Y-140101581D01*
X128751009Y-140101581D01*
X128655771Y-140053962D01*
X128608152Y-140006343D01*
X128560533Y-139911105D01*
X128512914Y-139720629D01*
X128512914Y-139482533D01*
X128560533Y-139292057D01*
X128608152Y-139196819D01*
X128655771Y-139149200D01*
X128751009Y-139101581D01*
X129512914Y-140101581D02*
X129512914Y-139101581D01*
X129608152Y-139720629D02*
X129893867Y-140101581D01*
X129893867Y-139434914D02*
X129512914Y-139815867D01*
X135421762Y-133929381D02*
X134850333Y-133929381D01*
X135136047Y-133929381D02*
X135136047Y-132929381D01*
X135040809Y-133072238D01*
X134945571Y-133167476D01*
X134850333Y-133215095D01*
X136040809Y-132929381D02*
X136136048Y-132929381D01*
X136231286Y-132977000D01*
X136278905Y-133024619D01*
X136326524Y-133119857D01*
X136374143Y-133310333D01*
X136374143Y-133548429D01*
X136326524Y-133738905D01*
X136278905Y-133834143D01*
X136231286Y-133881762D01*
X136136048Y-133929381D01*
X136040809Y-133929381D01*
X135945571Y-133881762D01*
X135897952Y-133834143D01*
X135850333Y-133738905D01*
X135802714Y-133548429D01*
X135802714Y-133310333D01*
X135850333Y-133119857D01*
X135897952Y-133024619D01*
X135945571Y-132977000D01*
X136040809Y-132929381D01*
X136802714Y-133929381D02*
X136802714Y-132929381D01*
X136897952Y-133548429D02*
X137183667Y-133929381D01*
X137183667Y-133262714D02*
X136802714Y-133643667D01*
X128106562Y-129712981D02*
X127535133Y-129712981D01*
X127820847Y-129712981D02*
X127820847Y-128712981D01*
X127725609Y-128855838D01*
X127630371Y-128951076D01*
X127535133Y-128998695D01*
X128725609Y-128712981D02*
X128820848Y-128712981D01*
X128916086Y-128760600D01*
X128963705Y-128808219D01*
X129011324Y-128903457D01*
X129058943Y-129093933D01*
X129058943Y-129332029D01*
X129011324Y-129522505D01*
X128963705Y-129617743D01*
X128916086Y-129665362D01*
X128820848Y-129712981D01*
X128725609Y-129712981D01*
X128630371Y-129665362D01*
X128582752Y-129617743D01*
X128535133Y-129522505D01*
X128487514Y-129332029D01*
X128487514Y-129093933D01*
X128535133Y-128903457D01*
X128582752Y-128808219D01*
X128630371Y-128760600D01*
X128725609Y-128712981D01*
X129487514Y-129712981D02*
X129487514Y-128712981D01*
X129582752Y-129332029D02*
X129868467Y-129712981D01*
X129868467Y-129046314D02*
X129487514Y-129427267D01*
X127928762Y-124759981D02*
X127357333Y-124759981D01*
X127643047Y-124759981D02*
X127643047Y-123759981D01*
X127547809Y-123902838D01*
X127452571Y-123998076D01*
X127357333Y-124045695D01*
X128547809Y-123759981D02*
X128643048Y-123759981D01*
X128738286Y-123807600D01*
X128785905Y-123855219D01*
X128833524Y-123950457D01*
X128881143Y-124140933D01*
X128881143Y-124379029D01*
X128833524Y-124569505D01*
X128785905Y-124664743D01*
X128738286Y-124712362D01*
X128643048Y-124759981D01*
X128547809Y-124759981D01*
X128452571Y-124712362D01*
X128404952Y-124664743D01*
X128357333Y-124569505D01*
X128309714Y-124379029D01*
X128309714Y-124140933D01*
X128357333Y-123950457D01*
X128404952Y-123855219D01*
X128452571Y-123807600D01*
X128547809Y-123759981D01*
X129309714Y-124759981D02*
X129309714Y-123759981D01*
X129404952Y-124379029D02*
X129690667Y-124759981D01*
X129690667Y-124093314D02*
X129309714Y-124474267D01*
X129249562Y-119121181D02*
X128678133Y-119121181D01*
X128963847Y-119121181D02*
X128963847Y-118121181D01*
X128868609Y-118264038D01*
X128773371Y-118359276D01*
X128678133Y-118406895D01*
X129868609Y-118121181D02*
X129963848Y-118121181D01*
X130059086Y-118168800D01*
X130106705Y-118216419D01*
X130154324Y-118311657D01*
X130201943Y-118502133D01*
X130201943Y-118740229D01*
X130154324Y-118930705D01*
X130106705Y-119025943D01*
X130059086Y-119073562D01*
X129963848Y-119121181D01*
X129868609Y-119121181D01*
X129773371Y-119073562D01*
X129725752Y-119025943D01*
X129678133Y-118930705D01*
X129630514Y-118740229D01*
X129630514Y-118502133D01*
X129678133Y-118311657D01*
X129725752Y-118216419D01*
X129773371Y-118168800D01*
X129868609Y-118121181D01*
X130630514Y-119121181D02*
X130630514Y-118121181D01*
X130725752Y-118740229D02*
X131011467Y-119121181D01*
X131011467Y-118454514D02*
X130630514Y-118835467D01*
X128004962Y-114625381D02*
X127433533Y-114625381D01*
X127719247Y-114625381D02*
X127719247Y-113625381D01*
X127624009Y-113768238D01*
X127528771Y-113863476D01*
X127433533Y-113911095D01*
X128624009Y-113625381D02*
X128719248Y-113625381D01*
X128814486Y-113673000D01*
X128862105Y-113720619D01*
X128909724Y-113815857D01*
X128957343Y-114006333D01*
X128957343Y-114244429D01*
X128909724Y-114434905D01*
X128862105Y-114530143D01*
X128814486Y-114577762D01*
X128719248Y-114625381D01*
X128624009Y-114625381D01*
X128528771Y-114577762D01*
X128481152Y-114530143D01*
X128433533Y-114434905D01*
X128385914Y-114244429D01*
X128385914Y-114006333D01*
X128433533Y-113815857D01*
X128481152Y-113720619D01*
X128528771Y-113673000D01*
X128624009Y-113625381D01*
X129385914Y-114625381D02*
X129385914Y-113625381D01*
X129481152Y-114244429D02*
X129766867Y-114625381D01*
X129766867Y-113958714D02*
X129385914Y-114339667D01*
D20*
X147915381Y-132039953D02*
X147915381Y-131849476D01*
X147963000Y-131754238D01*
X148058238Y-131659000D01*
X148248714Y-131611381D01*
X148582048Y-131611381D01*
X148772524Y-131659000D01*
X148867762Y-131754238D01*
X148915381Y-131849476D01*
X148915381Y-132039953D01*
X148867762Y-132135191D01*
X148772524Y-132230429D01*
X148582048Y-132278048D01*
X148248714Y-132278048D01*
X148058238Y-132230429D01*
X147963000Y-132135191D01*
X147915381Y-132039953D01*
X147915381Y-131182810D02*
X148724905Y-131182810D01*
X148820143Y-131135191D01*
X148867762Y-131087572D01*
X148915381Y-130992334D01*
X148915381Y-130801857D01*
X148867762Y-130706619D01*
X148820143Y-130659000D01*
X148724905Y-130611381D01*
X147915381Y-130611381D01*
X147915381Y-130278048D02*
X147915381Y-129706619D01*
X148915381Y-129992334D02*
X147915381Y-129992334D01*
X148915381Y-129373286D02*
X147915381Y-129373286D01*
X147915381Y-128992333D01*
X147963000Y-128897095D01*
X148010619Y-128849476D01*
X148105857Y-128801857D01*
X148248714Y-128801857D01*
X148343952Y-128849476D01*
X148391571Y-128897095D01*
X148439190Y-128992333D01*
X148439190Y-129373286D01*
X147915381Y-128373286D02*
X148724905Y-128373286D01*
X148820143Y-128325667D01*
X148867762Y-128278048D01*
X148915381Y-128182810D01*
X148915381Y-127992333D01*
X148867762Y-127897095D01*
X148820143Y-127849476D01*
X148724905Y-127801857D01*
X147915381Y-127801857D01*
X147915381Y-127468524D02*
X147915381Y-126897095D01*
X148915381Y-127182810D02*
X147915381Y-127182810D01*
X148867762Y-126611381D02*
X148915381Y-126468524D01*
X148915381Y-126230428D01*
X148867762Y-126135190D01*
X148820143Y-126087571D01*
X148724905Y-126039952D01*
X148629667Y-126039952D01*
X148534429Y-126087571D01*
X148486810Y-126135190D01*
X148439190Y-126230428D01*
X148391571Y-126420905D01*
X148343952Y-126516143D01*
X148296333Y-126563762D01*
X148201095Y-126611381D01*
X148105857Y-126611381D01*
X148010619Y-126563762D01*
X147963000Y-126516143D01*
X147915381Y-126420905D01*
X147915381Y-126182809D01*
X147963000Y-126039952D01*
D12*
X102981286Y-116276429D02*
X103743191Y-116276429D01*
X103362239Y-116657381D02*
X103362239Y-115895476D01*
X104695572Y-115657381D02*
X104219381Y-115657381D01*
X104171762Y-116133571D01*
X104219381Y-116085952D01*
X104314619Y-116038333D01*
X104552715Y-116038333D01*
X104647953Y-116085952D01*
X104695572Y-116133571D01*
X104743191Y-116228810D01*
X104743191Y-116466905D01*
X104695572Y-116562143D01*
X104647953Y-116609762D01*
X104552715Y-116657381D01*
X104314619Y-116657381D01*
X104219381Y-116609762D01*
X104171762Y-116562143D01*
X105028905Y-115657381D02*
X105362238Y-116657381D01*
X105695572Y-115657381D01*
X102743286Y-131627571D02*
X102886143Y-131675190D01*
X102933762Y-131722810D01*
X102981381Y-131818048D01*
X102981381Y-131960905D01*
X102933762Y-132056143D01*
X102886143Y-132103762D01*
X102790905Y-132151381D01*
X102409952Y-132151381D01*
X102409952Y-131151381D01*
X102743286Y-131151381D01*
X102838524Y-131199000D01*
X102886143Y-131246619D01*
X102933762Y-131341857D01*
X102933762Y-131437095D01*
X102886143Y-131532333D01*
X102838524Y-131579952D01*
X102743286Y-131627571D01*
X102409952Y-131627571D01*
X103409952Y-131151381D02*
X103409952Y-131960905D01*
X103457571Y-132056143D01*
X103505190Y-132103762D01*
X103600428Y-132151381D01*
X103790905Y-132151381D01*
X103886143Y-132103762D01*
X103933762Y-132056143D01*
X103981381Y-131960905D01*
X103981381Y-131151381D01*
X104409952Y-132103762D02*
X104552809Y-132151381D01*
X104790905Y-132151381D01*
X104886143Y-132103762D01*
X104933762Y-132056143D01*
X104981381Y-131960905D01*
X104981381Y-131865667D01*
X104933762Y-131770429D01*
X104886143Y-131722810D01*
X104790905Y-131675190D01*
X104600428Y-131627571D01*
X104505190Y-131579952D01*
X104457571Y-131532333D01*
X104409952Y-131437095D01*
X104409952Y-131341857D01*
X104457571Y-131246619D01*
X104505190Y-131199000D01*
X104600428Y-131151381D01*
X104838524Y-131151381D01*
X104981381Y-131199000D01*
X105171857Y-132246619D02*
X105933762Y-132246619D01*
X106743286Y-132151381D02*
X106409952Y-131675190D01*
X106171857Y-132151381D02*
X106171857Y-131151381D01*
X106552810Y-131151381D01*
X106648048Y-131199000D01*
X106695667Y-131246619D01*
X106743286Y-131341857D01*
X106743286Y-131484714D01*
X106695667Y-131579952D01*
X106648048Y-131627571D01*
X106552810Y-131675190D01*
X106171857Y-131675190D01*
X107076619Y-131151381D02*
X107743286Y-132151381D01*
X107743286Y-131151381D02*
X107076619Y-132151381D01*
%LPC*%
D21*
X129032000Y-109197140D03*
D22*
X129032000Y-103197660D03*
X124333000Y-106197400D03*
D23*
X122047000Y-114554000D03*
D24*
X122047000Y-117094000D03*
X119507000Y-114554000D03*
X119507000Y-117094000D03*
X116967000Y-114554000D03*
X116967000Y-117094000D03*
X105410000Y-125095000D03*
X105410000Y-122555000D03*
D23*
X105410000Y-120015000D03*
D25*
X110998000Y-133957060D03*
X110998000Y-138838940D03*
D23*
X119244000Y-142644000D03*
D24*
X121784000Y-142644000D03*
X124324000Y-142644000D03*
D10*
G36*
X141732118Y-102428413D02*
X143491882Y-101412413D01*
X144507882Y-103172177D01*
X142748118Y-104188177D01*
X141732118Y-102428413D01*
X141732118Y-102428413D01*
G37*
D24*
X144390000Y-105000000D03*
X145660000Y-107199705D03*
D10*
G36*
X105391882Y-114735587D02*
X103632118Y-113719587D01*
X104648118Y-111959823D01*
X106407882Y-112975823D01*
X105391882Y-114735587D01*
X105391882Y-114735587D01*
G37*
D24*
X106290000Y-111148000D03*
X107560000Y-108948295D03*
D26*
X114808000Y-135191500D03*
X114808000Y-137096500D03*
X114808000Y-141160500D03*
X114808000Y-139255500D03*
X109093000Y-124015500D03*
X109093000Y-122110500D03*
D27*
X108521500Y-142875000D03*
X106616500Y-142875000D03*
D26*
X109093000Y-117792500D03*
X109093000Y-119697500D03*
D27*
X127444500Y-119253000D03*
X125539500Y-119253000D03*
D28*
X125603000Y-132588000D03*
X125603000Y-131318000D03*
X125603000Y-130048000D03*
X125603000Y-128778000D03*
X125603000Y-127508000D03*
X125603000Y-126238000D03*
X125603000Y-124968000D03*
X125603000Y-123698000D03*
X125603000Y-122428000D03*
X125603000Y-121158000D03*
X115951000Y-121158000D03*
X115951000Y-122428000D03*
X115951000Y-123698000D03*
X115951000Y-124968000D03*
X115951000Y-126238000D03*
X115951000Y-127508000D03*
X115951000Y-128778000D03*
X115951000Y-130048000D03*
X115951000Y-131318000D03*
X115951000Y-132588000D03*
D29*
X114681000Y-107315000D03*
D30*
X119126000Y-107315000D03*
D25*
X115316000Y-102489000D03*
X118364000Y-102489000D03*
D31*
X145669000Y-141165000D03*
X145669000Y-143315000D03*
X144719000Y-141165000D03*
X146619000Y-143315000D03*
X146619000Y-141165000D03*
X144719000Y-143315000D03*
D32*
X136339000Y-145923000D03*
X138489000Y-145923000D03*
X136339000Y-146873000D03*
X138489000Y-144973000D03*
X136339000Y-144973000D03*
X138489000Y-146873000D03*
X136339000Y-140843000D03*
X138489000Y-140843000D03*
X136339000Y-141793000D03*
X138489000Y-139893000D03*
X136339000Y-139893000D03*
X138489000Y-141793000D03*
X136339000Y-135763000D03*
X138489000Y-135763000D03*
X136339000Y-136713000D03*
X138489000Y-134813000D03*
X136339000Y-134813000D03*
X138489000Y-136713000D03*
X136339000Y-130683000D03*
X138489000Y-130683000D03*
X136339000Y-131633000D03*
X138489000Y-129733000D03*
X136339000Y-129733000D03*
X138489000Y-131633000D03*
X136339000Y-125603000D03*
X138489000Y-125603000D03*
X136339000Y-126553000D03*
X138489000Y-124653000D03*
X136339000Y-124653000D03*
X138489000Y-126553000D03*
X136339000Y-120523000D03*
X138489000Y-120523000D03*
X136339000Y-121473000D03*
X138489000Y-119573000D03*
X136339000Y-119573000D03*
X138489000Y-121473000D03*
X136339000Y-115443000D03*
X138489000Y-115443000D03*
X136339000Y-116393000D03*
X138489000Y-114493000D03*
X136339000Y-114493000D03*
X138489000Y-116393000D03*
D33*
X145923000Y-145859500D03*
X145923000Y-147764500D03*
D34*
X133921500Y-147193000D03*
X132016500Y-147193000D03*
X133921500Y-142113000D03*
X132016500Y-142113000D03*
X133921500Y-137033000D03*
X132016500Y-137033000D03*
X133921500Y-131953000D03*
X132016500Y-131953000D03*
X133921500Y-126873000D03*
X132016500Y-126873000D03*
X133921500Y-121793000D03*
X132016500Y-121793000D03*
X133921500Y-116713000D03*
X132016500Y-116713000D03*
D33*
X148082000Y-147002500D03*
X148082000Y-145097500D03*
D34*
X132016500Y-144653000D03*
X133921500Y-144653000D03*
X132016500Y-139573000D03*
X133921500Y-139573000D03*
X132016500Y-134493000D03*
X133921500Y-134493000D03*
X132016500Y-129413000D03*
X133921500Y-129413000D03*
X132016500Y-124333000D03*
X133921500Y-124333000D03*
X132016500Y-119253000D03*
X133921500Y-119253000D03*
X132016500Y-114173000D03*
X133921500Y-114173000D03*
D35*
X106553000Y-140589000D03*
X106553000Y-135255000D03*
X105283000Y-140589000D03*
X104013000Y-140589000D03*
X102743000Y-140589000D03*
X105283000Y-135255000D03*
X104013000Y-135255000D03*
X102743000Y-135255000D03*
D23*
X103378000Y-102870000D03*
D36*
X103378000Y-105410000D03*
D23*
X109982000Y-103505000D03*
D36*
X107442000Y-103505000D03*
D23*
X103378000Y-144780000D03*
D36*
X103378000Y-147320000D03*
D23*
X109093000Y-146812000D03*
D36*
X111633000Y-146812000D03*
D37*
X146177000Y-137795000D03*
D38*
X143637000Y-137795000D03*
X146177000Y-135255000D03*
X143637000Y-135255000D03*
X146177000Y-132715000D03*
X143637000Y-132715000D03*
X146177000Y-130175000D03*
X143637000Y-130175000D03*
X146177000Y-127635000D03*
X143637000Y-127635000D03*
X146177000Y-125095000D03*
X143637000Y-125095000D03*
X146177000Y-122555000D03*
X143637000Y-122555000D03*
X146177000Y-120015000D03*
X143637000Y-120015000D03*
D25*
X107315000Y-115570000D03*
X106553000Y-129540000D03*
M02*
