M48
;DRILL file {kicad (2014-jul-16 BZR unknown)-product} date Sun 27 Jul 2014 23:01:13 BST
;FORMAT={-:-/ absolute / inch / decimal}
FMAT,2
INCH,TZ
T1C0.024
T2C0.025
T3C0.031
T4C0.032
T5C0.039
T6C0.040
T7C0.059
T8C0.079
T9C0.118
T10C0.118
T11C0.138
%
G90
G05
M72
T1
X4.335Y-4.56
X4.435Y-5.39
X4.525Y-4.62
X4.87Y-4.755
X4.945Y-4.62
X4.955Y-4.545
X5.14Y-5.7
X5.145Y-4.495
X5.145Y-4.895
X5.145Y-5.3
X5.15Y-5.095
X5.15Y-5.5
X5.155Y-4.725
X5.555Y-4.42
X5.625Y-4.565
X5.77Y-4.305
X5.82Y-5.835
X5.849Y-5.514
T2
X4.75Y-4.9
X4.75Y-4.975
X4.87Y-4.91
X4.87Y-4.98
X5.015Y-4.75
T3
X4.015Y-5.59
X4.115Y-5.255
X4.33Y-5.625
X5.43Y-5.425
X5.5Y-4.785
X5.5Y-4.99
X5.5Y-5.19
X5.505Y-4.585
X5.505Y-5.595
X5.515Y-5.785
X5.665Y-5.685
T4
X4.37Y-5.2739
X4.37Y-5.4661
T5
X4.635Y-5.21
T6
X4.07Y-4.05
X4.07Y-4.15
X4.07Y-5.7
X4.07Y-5.8
X4.1346Y-4.4625
X4.15Y-4.725
X4.15Y-4.825
X4.15Y-4.925
X4.1846Y-4.3759
X4.23Y-4.075
X4.2346Y-4.2893
X4.295Y-5.78
X4.33Y-4.075
X4.395Y-5.78
X4.605Y-4.51
X4.605Y-4.61
X4.6946Y-5.6159
X4.705Y-4.51
X4.705Y-4.61
X4.7946Y-5.6159
X4.805Y-4.51
X4.805Y-4.61
X4.8946Y-5.6159
X5.6346Y-4.0473
X5.655Y-4.725
X5.655Y-4.825
X5.655Y-4.925
X5.655Y-5.025
X5.655Y-5.125
X5.655Y-5.225
X5.655Y-5.325
X5.655Y-5.425
X5.6846Y-4.1339
X5.7346Y-4.2205
X5.755Y-4.725
X5.755Y-4.825
X5.755Y-4.925
X5.755Y-5.025
X5.755Y-5.125
X5.755Y-5.225
X5.755Y-5.325
X5.755Y-5.425
T7
X4.515Y-4.225
X4.69Y-4.225
T8
X4.54Y-4.035
X4.66Y-4.035
T9
X4.895Y-4.181
T10
X5.08Y-4.0629
T11
X5.08Y-4.2991
T0
M30
