%FSLAX46Y46*%
G04 Gerber Fmt 4.6, Leading zero omitted, Abs format (unit mm)*
G04 Created by KiCad (PCBNEW (2014-jan-25)-product) date Mon 28 Jul 2014 13:43:58 BST*
%MOMM*%
G01*
G04 APERTURE LIST*
%ADD10C,0.100000*%
%ADD11R,2.032000X2.032000*%
%ADD12C,2.032000*%
%ADD13C,2.000000*%
%ADD14R,1.498600X1.300480*%
%ADD15R,1.300480X1.498600*%
%ADD16C,5.500000*%
%ADD17C,5.000000*%
%ADD18R,1.270000X0.508000*%
%ADD19R,3.000000X5.000000*%
%ADD20O,3.000000X5.000000*%
%ADD21R,0.500000X1.000000*%
%ADD22R,1.000000X0.500000*%
%ADD23R,1.397000X0.889000*%
%ADD24R,0.889000X1.397000*%
%ADD25R,0.599440X1.399540*%
%ADD26O,2.032000X2.032000*%
%ADD27R,1.727200X1.727200*%
%ADD28O,1.727200X1.727200*%
G04 APERTURE END LIST*
D10*
D11*
X122047000Y-114554000D03*
D12*
X122047000Y-117094000D03*
X119507000Y-114554000D03*
X119507000Y-117094000D03*
X116967000Y-114554000D03*
X116967000Y-117094000D03*
X105410000Y-125095000D03*
X105410000Y-122555000D03*
D11*
X105410000Y-120015000D03*
D13*
X110998000Y-133957060D03*
X110998000Y-138838940D03*
D11*
X119244000Y-142644000D03*
D12*
X121784000Y-142644000D03*
X124324000Y-142644000D03*
D10*
G36*
X141732118Y-102428413D02*
X143491882Y-101412413D01*
X144507882Y-103172177D01*
X142748118Y-104188177D01*
X141732118Y-102428413D01*
X141732118Y-102428413D01*
G37*
D12*
X144390000Y-105000000D03*
X145660000Y-107199705D03*
D10*
G36*
X105391882Y-114735587D02*
X103632118Y-113719587D01*
X104648118Y-111959823D01*
X106407882Y-112975823D01*
X105391882Y-114735587D01*
X105391882Y-114735587D01*
G37*
D12*
X106290000Y-111148000D03*
X107560000Y-108948295D03*
D14*
X114808000Y-135191500D03*
X114808000Y-137096500D03*
X114808000Y-141160500D03*
X114808000Y-139255500D03*
X109093000Y-124015500D03*
X109093000Y-122110500D03*
D15*
X108521500Y-142875000D03*
X106616500Y-142875000D03*
D14*
X109093000Y-117792500D03*
X109093000Y-119697500D03*
D15*
X127444500Y-119253000D03*
X125539500Y-119253000D03*
D16*
X129032000Y-109197140D03*
D17*
X129032000Y-103197660D03*
X124333000Y-106197400D03*
D18*
X125603000Y-132588000D03*
X125603000Y-131318000D03*
X125603000Y-130048000D03*
X125603000Y-128778000D03*
X125603000Y-127508000D03*
X125603000Y-126238000D03*
X125603000Y-124968000D03*
X125603000Y-123698000D03*
X125603000Y-122428000D03*
X125603000Y-121158000D03*
X115951000Y-121158000D03*
X115951000Y-122428000D03*
X115951000Y-123698000D03*
X115951000Y-124968000D03*
X115951000Y-126238000D03*
X115951000Y-127508000D03*
X115951000Y-128778000D03*
X115951000Y-130048000D03*
X115951000Y-131318000D03*
X115951000Y-132588000D03*
D19*
X114681000Y-107315000D03*
D20*
X119126000Y-107315000D03*
D13*
X115316000Y-102489000D03*
X118364000Y-102489000D03*
D21*
X145669000Y-141165000D03*
X145669000Y-143315000D03*
X144719000Y-141165000D03*
X146619000Y-143315000D03*
X146619000Y-141165000D03*
X144719000Y-143315000D03*
D22*
X136339000Y-145923000D03*
X138489000Y-145923000D03*
X136339000Y-146873000D03*
X138489000Y-144973000D03*
X136339000Y-144973000D03*
X138489000Y-146873000D03*
X136339000Y-140843000D03*
X138489000Y-140843000D03*
X136339000Y-141793000D03*
X138489000Y-139893000D03*
X136339000Y-139893000D03*
X138489000Y-141793000D03*
X136339000Y-135763000D03*
X138489000Y-135763000D03*
X136339000Y-136713000D03*
X138489000Y-134813000D03*
X136339000Y-134813000D03*
X138489000Y-136713000D03*
X136339000Y-130683000D03*
X138489000Y-130683000D03*
X136339000Y-131633000D03*
X138489000Y-129733000D03*
X136339000Y-129733000D03*
X138489000Y-131633000D03*
X136339000Y-125603000D03*
X138489000Y-125603000D03*
X136339000Y-126553000D03*
X138489000Y-124653000D03*
X136339000Y-124653000D03*
X138489000Y-126553000D03*
X136339000Y-120523000D03*
X138489000Y-120523000D03*
X136339000Y-121473000D03*
X138489000Y-119573000D03*
X136339000Y-119573000D03*
X138489000Y-121473000D03*
X136339000Y-115443000D03*
X138489000Y-115443000D03*
X136339000Y-116393000D03*
X138489000Y-114493000D03*
X136339000Y-114493000D03*
X138489000Y-116393000D03*
D23*
X145923000Y-145859500D03*
X145923000Y-147764500D03*
D24*
X133921500Y-147193000D03*
X132016500Y-147193000D03*
X133921500Y-142113000D03*
X132016500Y-142113000D03*
X133921500Y-137033000D03*
X132016500Y-137033000D03*
X133921500Y-131953000D03*
X132016500Y-131953000D03*
X133921500Y-126873000D03*
X132016500Y-126873000D03*
X133921500Y-121793000D03*
X132016500Y-121793000D03*
X133921500Y-116713000D03*
X132016500Y-116713000D03*
D23*
X148082000Y-147002500D03*
X148082000Y-145097500D03*
D24*
X132016500Y-144653000D03*
X133921500Y-144653000D03*
X132016500Y-139573000D03*
X133921500Y-139573000D03*
X132016500Y-134493000D03*
X133921500Y-134493000D03*
X132016500Y-129413000D03*
X133921500Y-129413000D03*
X132016500Y-124333000D03*
X133921500Y-124333000D03*
X132016500Y-119253000D03*
X133921500Y-119253000D03*
X132016500Y-114173000D03*
X133921500Y-114173000D03*
D25*
X106553000Y-140589000D03*
X106553000Y-135255000D03*
X105283000Y-140589000D03*
X104013000Y-140589000D03*
X102743000Y-140589000D03*
X105283000Y-135255000D03*
X104013000Y-135255000D03*
X102743000Y-135255000D03*
D11*
X103378000Y-102870000D03*
D26*
X103378000Y-105410000D03*
D11*
X109982000Y-103505000D03*
D26*
X107442000Y-103505000D03*
D11*
X103378000Y-144780000D03*
D26*
X103378000Y-147320000D03*
D11*
X109093000Y-146812000D03*
D26*
X111633000Y-146812000D03*
D27*
X146177000Y-137795000D03*
D28*
X143637000Y-137795000D03*
X146177000Y-135255000D03*
X143637000Y-135255000D03*
X146177000Y-132715000D03*
X143637000Y-132715000D03*
X146177000Y-130175000D03*
X143637000Y-130175000D03*
X146177000Y-127635000D03*
X143637000Y-127635000D03*
X146177000Y-125095000D03*
X143637000Y-125095000D03*
X146177000Y-122555000D03*
X143637000Y-122555000D03*
X146177000Y-120015000D03*
X143637000Y-120015000D03*
D13*
X107315000Y-115570000D03*
X106553000Y-129540000D03*
M02*
