  0
SECTION
  2
HEADER
  9
$ANGBASE
  50
0.0
  9
$ANGDIR
  70
  1
  9
$MEASUREMENT
  70
0
  0
ENDSEC
  0
SECTION
  2
TABLES
  0
TABLE
  2
LTYPE
  70
1
  0
LTYPE
  2
CONTINUOUS
  70
0
  3
Solid line
  72
65
  73
0
  40
0.0
  0
ENDTAB
  0
TABLE
  2
STYLE
  70
4
  0
STYLE
  2
KICAD
  70
0
  40
0
  41
1
  42
1
  50
0
  71
0
  3
isocp.shx
  0
STYLE
  2
KICADB
  70
0
  40
0
  41
1
  42
1
  50
0
  71
0
  3
isocp.shx
  0
STYLE
  2
KICADI
  70
0
  40
0
  41
1
  42
1
  50
15
  71
0
  3
isocp.shx
  0
STYLE
  2
KICADBI
  70
0
  40
0
  41
1
  42
1
  50
15
  71
0
  3
isocp.shx
  0
ENDTAB
  0
TABLE
  2
LAYER
  70
30
  0
LAYER
  2
BLACK
  70
0
  62
7
  6
CONTINUOUS
  0
LAYER
  2
GRAY1
  70
0
  62
251
  6
CONTINUOUS
  0
LAYER
  2
GRAY2
  70
0
  62
8
  6
CONTINUOUS
  0
LAYER
  2
GRAY3
  70
0
  62
9
  6
CONTINUOUS
  0
LAYER
  2
WHITE
  70
0
  62
7
  6
CONTINUOUS
  0
LAYER
  2
LYELLOW
  70
0
  62
51
  6
CONTINUOUS
  0
LAYER
  2
BLUE1
  70
0
  62
178
  6
CONTINUOUS
  0
LAYER
  2
GREEN1
  70
0
  62
98
  6
CONTINUOUS
  0
LAYER
  2
CYAN1
  70
0
  62
138
  6
CONTINUOUS
  0
LAYER
  2
RED1
  70
0
  62
18
  6
CONTINUOUS
  0
LAYER
  2
MAGENTA1
  70
0
  62
228
  6
CONTINUOUS
  0
LAYER
  2
BROWN1
  70
0
  62
58
  6
CONTINUOUS
  0
LAYER
  2
BLUE2
  70
0
  62
5
  6
CONTINUOUS
  0
LAYER
  2
GREEN2
  70
0
  62
3
  6
CONTINUOUS
  0
LAYER
  2
CYAN2
  70
0
  62
4
  6
CONTINUOUS
  0
LAYER
  2
RED2
  70
0
  62
1
  6
CONTINUOUS
  0
LAYER
  2
MAGENTA2
  70
0
  62
6
  6
CONTINUOUS
  0
LAYER
  2
BROWN2
  70
0
  62
54
  6
CONTINUOUS
  0
LAYER
  2
BLUE3
  70
0
  62
171
  6
CONTINUOUS
  0
LAYER
  2
GREEN3
  70
0
  62
91
  6
CONTINUOUS
  0
LAYER
  2
CYAN3
  70
0
  62
131
  6
CONTINUOUS
  0
LAYER
  2
RED3
  70
0
  62
11
  6
CONTINUOUS
  0
LAYER
  2
MAGENTA3
  70
0
  62
221
  6
CONTINUOUS
  0
LAYER
  2
YELLOW3
  70
0
  62
2
  6
CONTINUOUS
  0
LAYER
  2
BLUE4
  70
0
  62
5
  6
CONTINUOUS
  0
LAYER
  2
GREEN4
  70
0
  62
3
  6
CONTINUOUS
  0
LAYER
  2
CYAN4
  70
0
  62
4
  6
CONTINUOUS
  0
LAYER
  2
RED4
  70
0
  62
1
  6
CONTINUOUS
  0
LAYER
  2
MAGENTA4
  70
0
  62
6
  6
CONTINUOUS
  0
LAYER
  2
YELLOW4
  70
0
  62
2
  6
CONTINUOUS
  0
ENDTAB
  0
ENDSEC
  0
SECTION
  2
ENTITIES
0
LINE
8
Black
10
103.043
20
-135.955
11
102.443
21
-135.955
0
LINE
8
Black
10
102.443
20
-135.955
11
102.443
21
-134.555
0
LINE
8
Black
10
102.443
20
-134.555
11
103.043
21
-134.555
0
LINE
8
Black
10
103.043
20
-134.555
11
103.043
21
-135.955
0
LINE
8
Black
10
103.043
20
-141.289
11
102.443
21
-141.289
0
LINE
8
Black
10
102.443
20
-141.289
11
102.443
21
-139.889
0
LINE
8
Black
10
102.443
20
-139.889
11
103.043
21
-139.889
0
LINE
8
Black
10
103.043
20
-139.889
11
103.043
21
-141.289
0
LINE
8
Black
10
104.313
20
-135.955
11
103.713
21
-135.955
0
LINE
8
Black
10
103.713
20
-135.955
11
103.713
21
-134.555
0
LINE
8
Black
10
103.713
20
-134.555
11
104.313
21
-134.555
0
LINE
8
Black
10
104.313
20
-134.555
11
104.313
21
-135.955
0
LINE
8
Black
10
104.313
20
-141.289
11
103.713
21
-141.289
0
LINE
8
Black
10
103.713
20
-141.289
11
103.713
21
-139.889
0
LINE
8
Black
10
103.713
20
-139.889
11
104.313
21
-139.889
0
LINE
8
Black
10
104.313
20
-139.889
11
104.313
21
-141.289
0
LINE
8
Black
10
105.583
20
-135.955
11
104.983
21
-135.955
0
LINE
8
Black
10
104.983
20
-135.955
11
104.983
21
-134.555
0
LINE
8
Black
10
104.983
20
-134.555
11
105.583
21
-134.555
0
LINE
8
Black
10
105.583
20
-134.555
11
105.583
21
-135.955
0
LINE
8
Black
10
105.583
20
-141.289
11
104.983
21
-141.289
0
LINE
8
Black
10
104.983
20
-141.289
11
104.983
21
-139.889
0
LINE
8
Black
10
104.983
20
-139.889
11
105.583
21
-139.889
0
LINE
8
Black
10
105.583
20
-139.889
11
105.583
21
-141.289
0
LINE
8
Black
10
106.853
20
-135.955
11
106.253
21
-135.955
0
LINE
8
Black
10
106.253
20
-135.955
11
106.253
21
-134.555
0
LINE
8
Black
10
106.253
20
-134.555
11
106.853
21
-134.555
0
LINE
8
Black
10
106.853
20
-134.555
11
106.853
21
-135.955
0
LINE
8
Black
10
106.853
20
-141.289
11
106.253
21
-141.289
0
LINE
8
Black
10
106.253
20
-141.289
11
106.253
21
-139.889
0
LINE
8
Black
10
106.253
20
-139.889
11
106.853
21
-139.889
0
LINE
8
Black
10
106.853
20
-139.889
11
106.853
21
-141.289
0
LINE
8
Black
10
107.267
20
-143.624
11
105.966
21
-143.624
0
LINE
8
Black
10
105.966
20
-143.624
11
105.966
21
-142.126
0
LINE
8
Black
10
105.966
20
-142.126
11
107.267
21
-142.126
0
LINE
8
Black
10
107.267
20
-142.126
11
107.267
21
-143.624
0
LINE
8
Black
10
109.172
20
-143.624
11
107.871
21
-143.624
0
LINE
8
Black
10
107.871
20
-143.624
11
107.871
21
-142.126
0
LINE
8
Black
10
107.871
20
-142.126
11
109.172
21
-142.126
0
LINE
8
Black
10
109.172
20
-142.126
11
109.172
21
-143.624
0
LINE
8
Black
10
109.842
20
-118.443
11
108.344
21
-118.443
0
LINE
8
Black
10
108.344
20
-118.443
11
108.344
21
-117.142
0
LINE
8
Black
10
108.344
20
-117.142
11
109.842
21
-117.142
0
LINE
8
Black
10
109.842
20
-117.142
11
109.842
21
-118.443
0
LINE
8
Black
10
109.842
20
-120.348
11
108.344
21
-120.348
0
LINE
8
Black
10
108.344
20
-120.348
11
108.344
21
-119.047
0
LINE
8
Black
10
108.344
20
-119.047
11
109.842
21
-119.047
0
LINE
8
Black
10
109.842
20
-119.047
11
109.842
21
-120.348
0
LINE
8
Black
10
109.842
20
-122.761
11
108.344
21
-122.761
0
LINE
8
Black
10
108.344
20
-122.761
11
108.344
21
-121.46
0
LINE
8
Black
10
108.344
20
-121.46
11
109.842
21
-121.46
0
LINE
8
Black
10
109.842
20
-121.46
11
109.842
21
-122.761
0
LINE
8
Black
10
109.842
20
-124.666
11
108.344
21
-124.666
0
LINE
8
Black
10
108.344
20
-124.666
11
108.344
21
-123.365
0
LINE
8
Black
10
108.344
20
-123.365
11
109.842
21
-123.365
0
LINE
8
Black
10
109.842
20
-123.365
11
109.842
21
-124.666
0
LINE
8
Black
10
115.557
20
-135.842
11
114.059
21
-135.842
0
LINE
8
Black
10
114.059
20
-135.842
11
114.059
21
-134.541
0
LINE
8
Black
10
114.059
20
-134.541
11
115.557
21
-134.541
0
LINE
8
Black
10
115.557
20
-134.541
11
115.557
21
-135.842
0
LINE
8
Black
10
115.557
20
-137.747
11
114.059
21
-137.747
0
LINE
8
Black
10
114.059
20
-137.747
11
114.059
21
-136.446
0
LINE
8
Black
10
114.059
20
-136.446
11
115.557
21
-136.446
0
LINE
8
Black
10
115.557
20
-136.446
11
115.557
21
-137.747
0
LINE
8
Black
10
115.557
20
-139.906
11
114.059
21
-139.906
0
LINE
8
Black
10
114.059
20
-139.906
11
114.059
21
-138.605
0
LINE
8
Black
10
114.059
20
-138.605
11
115.557
21
-138.605
0
LINE
8
Black
10
115.557
20
-138.605
11
115.557
21
-139.906
0
LINE
8
Black
10
115.557
20
-141.811
11
114.059
21
-141.811
0
LINE
8
Black
10
114.059
20
-141.811
11
114.059
21
-140.51
0
LINE
8
Black
10
114.059
20
-140.51
11
115.557
21
-140.51
0
LINE
8
Black
10
115.557
20
-140.51
11
115.557
21
-141.811
0
LINE
8
Black
10
116.586
20
-121.412
11
115.316
21
-121.412
0
LINE
8
Black
10
115.316
20
-121.412
11
115.316
21
-120.904
0
LINE
8
Black
10
115.316
20
-120.904
11
116.586
21
-120.904
0
LINE
8
Black
10
116.586
20
-120.904
11
116.586
21
-121.412
0
LINE
8
Black
10
116.586
20
-122.682
11
115.316
21
-122.682
0
LINE
8
Black
10
115.316
20
-122.682
11
115.316
21
-122.174
0
LINE
8
Black
10
115.316
20
-122.174
11
116.586
21
-122.174
0
LINE
8
Black
10
116.586
20
-122.174
11
116.586
21
-122.682
0
LINE
8
Black
10
116.586
20
-123.952
11
115.316
21
-123.952
0
LINE
8
Black
10
115.316
20
-123.952
11
115.316
21
-123.444
0
LINE
8
Black
10
115.316
20
-123.444
11
116.586
21
-123.444
0
LINE
8
Black
10
116.586
20
-123.444
11
116.586
21
-123.952
0
LINE
8
Black
10
116.586
20
-125.222
11
115.316
21
-125.222
0
LINE
8
Black
10
115.316
20
-125.222
11
115.316
21
-124.714
0
LINE
8
Black
10
115.316
20
-124.714
11
116.586
21
-124.714
0
LINE
8
Black
10
116.586
20
-124.714
11
116.586
21
-125.222
0
LINE
8
Black
10
116.586
20
-126.492
11
115.316
21
-126.492
0
LINE
8
Black
10
115.316
20
-126.492
11
115.316
21
-125.984
0
LINE
8
Black
10
115.316
20
-125.984
11
116.586
21
-125.984
0
LINE
8
Black
10
116.586
20
-125.984
11
116.586
21
-126.492
0
LINE
8
Black
10
116.586
20
-127.762
11
115.316
21
-127.762
0
LINE
8
Black
10
115.316
20
-127.762
11
115.316
21
-127.254
0
LINE
8
Black
10
115.316
20
-127.254
11
116.586
21
-127.254
0
LINE
8
Black
10
116.586
20
-127.254
11
116.586
21
-127.762
0
LINE
8
Black
10
116.586
20
-129.032
11
115.316
21
-129.032
0
LINE
8
Black
10
115.316
20
-129.032
11
115.316
21
-128.524
0
LINE
8
Black
10
115.316
20
-128.524
11
116.586
21
-128.524
0
LINE
8
Black
10
116.586
20
-128.524
11
116.586
21
-129.032
0
LINE
8
Black
10
116.586
20
-130.302
11
115.316
21
-130.302
0
LINE
8
Black
10
115.316
20
-130.302
11
115.316
21
-129.794
0
LINE
8
Black
10
115.316
20
-129.794
11
116.586
21
-129.794
0
LINE
8
Black
10
116.586
20
-129.794
11
116.586
21
-130.302
0
LINE
8
Black
10
116.586
20
-131.572
11
115.316
21
-131.572
0
LINE
8
Black
10
115.316
20
-131.572
11
115.316
21
-131.064
0
LINE
8
Black
10
115.316
20
-131.064
11
116.586
21
-131.064
0
LINE
8
Black
10
116.586
20
-131.064
11
116.586
21
-131.572
0
LINE
8
Black
10
116.586
20
-132.842
11
115.316
21
-132.842
0
LINE
8
Black
10
115.316
20
-132.842
11
115.316
21
-132.334
0
LINE
8
Black
10
115.316
20
-132.334
11
116.586
21
-132.334
0
LINE
8
Black
10
116.586
20
-132.334
11
116.586
21
-132.842
0
LINE
8
Black
10
126.19
20
-120.002
11
124.889
21
-120.002
0
LINE
8
Black
10
124.889
20
-120.002
11
124.889
21
-118.504
0
LINE
8
Black
10
124.889
20
-118.504
11
126.19
21
-118.504
0
LINE
8
Black
10
126.19
20
-118.504
11
126.19
21
-120.002
0
LINE
8
Black
10
126.238
20
-121.412
11
124.968
21
-121.412
0
LINE
8
Black
10
124.968
20
-121.412
11
124.968
21
-120.904
0
LINE
8
Black
10
124.968
20
-120.904
11
126.238
21
-120.904
0
LINE
8
Black
10
126.238
20
-120.904
11
126.238
21
-121.412
0
LINE
8
Black
10
126.238
20
-122.682
11
124.968
21
-122.682
0
LINE
8
Black
10
124.968
20
-122.682
11
124.968
21
-122.174
0
LINE
8
Black
10
124.968
20
-122.174
11
126.238
21
-122.174
0
LINE
8
Black
10
126.238
20
-122.174
11
126.238
21
-122.682
0
LINE
8
Black
10
126.238
20
-123.952
11
124.968
21
-123.952
0
LINE
8
Black
10
124.968
20
-123.952
11
124.968
21
-123.444
0
LINE
8
Black
10
124.968
20
-123.444
11
126.238
21
-123.444
0
LINE
8
Black
10
126.238
20
-123.444
11
126.238
21
-123.952
0
LINE
8
Black
10
126.238
20
-125.222
11
124.968
21
-125.222
0
LINE
8
Black
10
124.968
20
-125.222
11
124.968
21
-124.714
0
LINE
8
Black
10
124.968
20
-124.714
11
126.238
21
-124.714
0
LINE
8
Black
10
126.238
20
-124.714
11
126.238
21
-125.222
0
LINE
8
Black
10
126.238
20
-126.492
11
124.968
21
-126.492
0
LINE
8
Black
10
124.968
20
-126.492
11
124.968
21
-125.984
0
LINE
8
Black
10
124.968
20
-125.984
11
126.238
21
-125.984
0
LINE
8
Black
10
126.238
20
-125.984
11
126.238
21
-126.492
0
LINE
8
Black
10
126.238
20
-127.762
11
124.968
21
-127.762
0
LINE
8
Black
10
124.968
20
-127.762
11
124.968
21
-127.254
0
LINE
8
Black
10
124.968
20
-127.254
11
126.238
21
-127.254
0
LINE
8
Black
10
126.238
20
-127.254
11
126.238
21
-127.762
0
LINE
8
Black
10
126.238
20
-129.032
11
124.968
21
-129.032
0
LINE
8
Black
10
124.968
20
-129.032
11
124.968
21
-128.524
0
LINE
8
Black
10
124.968
20
-128.524
11
126.238
21
-128.524
0
LINE
8
Black
10
126.238
20
-128.524
11
126.238
21
-129.032
0
LINE
8
Black
10
126.238
20
-130.302
11
124.968
21
-130.302
0
LINE
8
Black
10
124.968
20
-130.302
11
124.968
21
-129.794
0
LINE
8
Black
10
124.968
20
-129.794
11
126.238
21
-129.794
0
LINE
8
Black
10
126.238
20
-129.794
11
126.238
21
-130.302
0
LINE
8
Black
10
126.238
20
-131.572
11
124.968
21
-131.572
0
LINE
8
Black
10
124.968
20
-131.572
11
124.968
21
-131.064
0
LINE
8
Black
10
124.968
20
-131.064
11
126.238
21
-131.064
0
LINE
8
Black
10
126.238
20
-131.064
11
126.238
21
-131.572
0
LINE
8
Black
10
126.238
20
-132.842
11
124.968
21
-132.842
0
LINE
8
Black
10
124.968
20
-132.842
11
124.968
21
-132.334
0
LINE
8
Black
10
124.968
20
-132.334
11
126.238
21
-132.334
0
LINE
8
Black
10
126.238
20
-132.334
11
126.238
21
-132.842
0
LINE
8
Black
10
128.095
20
-120.002
11
126.794
21
-120.002
0
LINE
8
Black
10
126.794
20
-120.002
11
126.794
21
-118.504
0
LINE
8
Black
10
126.794
20
-118.504
11
128.095
21
-118.504
0
LINE
8
Black
10
128.095
20
-118.504
11
128.095
21
-120.002
0
LINE
8
Black
10
132.461
20
-114.871
11
131.572
21
-114.871
0
LINE
8
Black
10
131.572
20
-114.871
11
131.572
21
-113.474
0
LINE
8
Black
10
131.572
20
-113.474
11
132.461
21
-113.474
0
LINE
8
Black
10
132.461
20
-113.474
11
132.461
21
-114.871
0
LINE
8
Black
10
132.461
20
-117.411
11
131.572
21
-117.411
0
LINE
8
Black
10
131.572
20
-117.411
11
131.572
21
-116.014
0
LINE
8
Black
10
131.572
20
-116.014
11
132.461
21
-116.014
0
LINE
8
Black
10
132.461
20
-116.014
11
132.461
21
-117.411
0
LINE
8
Black
10
132.461
20
-119.951
11
131.572
21
-119.951
0
LINE
8
Black
10
131.572
20
-119.951
11
131.572
21
-118.554
0
LINE
8
Black
10
131.572
20
-118.554
11
132.461
21
-118.554
0
LINE
8
Black
10
132.461
20
-118.554
11
132.461
21
-119.951
0
LINE
8
Black
10
132.461
20
-122.491
11
131.572
21
-122.491
0
LINE
8
Black
10
131.572
20
-122.491
11
131.572
21
-121.094
0
LINE
8
Black
10
131.572
20
-121.094
11
132.461
21
-121.094
0
LINE
8
Black
10
132.461
20
-121.094
11
132.461
21
-122.491
0
LINE
8
Black
10
132.461
20
-125.031
11
131.572
21
-125.031
0
LINE
8
Black
10
131.572
20
-125.031
11
131.572
21
-123.634
0
LINE
8
Black
10
131.572
20
-123.634
11
132.461
21
-123.634
0
LINE
8
Black
10
132.461
20
-123.634
11
132.461
21
-125.031
0
LINE
8
Black
10
132.461
20
-127.572
11
131.572
21
-127.572
0
LINE
8
Black
10
131.572
20
-127.572
11
131.572
21
-126.174
0
LINE
8
Black
10
131.572
20
-126.174
11
132.461
21
-126.174
0
LINE
8
Black
10
132.461
20
-126.174
11
132.461
21
-127.572
0
LINE
8
Black
10
132.461
20
-130.112
11
131.572
21
-130.112
0
LINE
8
Black
10
131.572
20
-130.112
11
131.572
21
-128.714
0
LINE
8
Black
10
131.572
20
-128.714
11
132.461
21
-128.714
0
LINE
8
Black
10
132.461
20
-128.714
11
132.461
21
-130.112
0
LINE
8
Black
10
132.461
20
-132.651
11
131.572
21
-132.651
0
LINE
8
Black
10
131.572
20
-132.651
11
131.572
21
-131.255
0
LINE
8
Black
10
131.572
20
-131.255
11
132.461
21
-131.255
0
LINE
8
Black
10
132.461
20
-131.255
11
132.461
21
-132.651
0
LINE
8
Black
10
132.461
20
-135.191
11
131.572
21
-135.191
0
LINE
8
Black
10
131.572
20
-135.191
11
131.572
21
-133.794
0
LINE
8
Black
10
131.572
20
-133.794
11
132.461
21
-133.794
0
LINE
8
Black
10
132.461
20
-133.794
11
132.461
21
-135.191
0
LINE
8
Black
10
132.461
20
-137.731
11
131.572
21
-137.731
0
LINE
8
Black
10
131.572
20
-137.731
11
131.572
21
-136.334
0
LINE
8
Black
10
131.572
20
-136.334
11
132.461
21
-136.334
0
LINE
8
Black
10
132.461
20
-136.334
11
132.461
21
-137.731
0
LINE
8
Black
10
132.461
20
-140.272
11
131.572
21
-140.272
0
LINE
8
Black
10
131.572
20
-140.272
11
131.572
21
-138.874
0
LINE
8
Black
10
131.572
20
-138.874
11
132.461
21
-138.874
0
LINE
8
Black
10
132.461
20
-138.874
11
132.461
21
-140.272
0
LINE
8
Black
10
132.461
20
-142.811
11
131.572
21
-142.811
0
LINE
8
Black
10
131.572
20
-142.811
11
131.572
21
-141.415
0
LINE
8
Black
10
131.572
20
-141.415
11
132.461
21
-141.415
0
LINE
8
Black
10
132.461
20
-141.415
11
132.461
21
-142.811
0
LINE
8
Black
10
132.461
20
-145.351
11
131.572
21
-145.351
0
LINE
8
Black
10
131.572
20
-145.351
11
131.572
21
-143.954
0
LINE
8
Black
10
131.572
20
-143.954
11
132.461
21
-143.954
0
LINE
8
Black
10
132.461
20
-143.954
11
132.461
21
-145.351
0
LINE
8
Black
10
132.461
20
-147.891
11
131.572
21
-147.891
0
LINE
8
Black
10
131.572
20
-147.891
11
131.572
21
-146.494
0
LINE
8
Black
10
131.572
20
-146.494
11
132.461
21
-146.494
0
LINE
8
Black
10
132.461
20
-146.494
11
132.461
21
-147.891
0
LINE
8
Black
10
134.366
20
-114.871
11
133.477
21
-114.871
0
LINE
8
Black
10
133.477
20
-114.871
11
133.477
21
-113.474
0
LINE
8
Black
10
133.477
20
-113.474
11
134.366
21
-113.474
0
LINE
8
Black
10
134.366
20
-113.474
11
134.366
21
-114.871
0
LINE
8
Black
10
134.366
20
-117.411
11
133.477
21
-117.411
0
LINE
8
Black
10
133.477
20
-117.411
11
133.477
21
-116.014
0
LINE
8
Black
10
133.477
20
-116.014
11
134.366
21
-116.014
0
LINE
8
Black
10
134.366
20
-116.014
11
134.366
21
-117.411
0
LINE
8
Black
10
134.366
20
-119.951
11
133.477
21
-119.951
0
LINE
8
Black
10
133.477
20
-119.951
11
133.477
21
-118.554
0
LINE
8
Black
10
133.477
20
-118.554
11
134.366
21
-118.554
0
LINE
8
Black
10
134.366
20
-118.554
11
134.366
21
-119.951
0
LINE
8
Black
10
134.366
20
-122.491
11
133.477
21
-122.491
0
LINE
8
Black
10
133.477
20
-122.491
11
133.477
21
-121.094
0
LINE
8
Black
10
133.477
20
-121.094
11
134.366
21
-121.094
0
LINE
8
Black
10
134.366
20
-121.094
11
134.366
21
-122.491
0
LINE
8
Black
10
134.366
20
-125.031
11
133.477
21
-125.031
0
LINE
8
Black
10
133.477
20
-125.031
11
133.477
21
-123.634
0
LINE
8
Black
10
133.477
20
-123.634
11
134.366
21
-123.634
0
LINE
8
Black
10
134.366
20
-123.634
11
134.366
21
-125.031
0
LINE
8
Black
10
134.366
20
-127.572
11
133.477
21
-127.572
0
LINE
8
Black
10
133.477
20
-127.572
11
133.477
21
-126.174
0
LINE
8
Black
10
133.477
20
-126.174
11
134.366
21
-126.174
0
LINE
8
Black
10
134.366
20
-126.174
11
134.366
21
-127.572
0
LINE
8
Black
10
134.366
20
-130.112
11
133.477
21
-130.112
0
LINE
8
Black
10
133.477
20
-130.112
11
133.477
21
-128.714
0
LINE
8
Black
10
133.477
20
-128.714
11
134.366
21
-128.714
0
LINE
8
Black
10
134.366
20
-128.714
11
134.366
21
-130.112
0
LINE
8
Black
10
134.366
20
-132.651
11
133.477
21
-132.651
0
LINE
8
Black
10
133.477
20
-132.651
11
133.477
21
-131.255
0
LINE
8
Black
10
133.477
20
-131.255
11
134.366
21
-131.255
0
LINE
8
Black
10
134.366
20
-131.255
11
134.366
21
-132.651
0
LINE
8
Black
10
134.366
20
-135.191
11
133.477
21
-135.191
0
LINE
8
Black
10
133.477
20
-135.191
11
133.477
21
-133.794
0
LINE
8
Black
10
133.477
20
-133.794
11
134.366
21
-133.794
0
LINE
8
Black
10
134.366
20
-133.794
11
134.366
21
-135.191
0
LINE
8
Black
10
134.366
20
-137.731
11
133.477
21
-137.731
0
LINE
8
Black
10
133.477
20
-137.731
11
133.477
21
-136.334
0
LINE
8
Black
10
133.477
20
-136.334
11
134.366
21
-136.334
0
LINE
8
Black
10
134.366
20
-136.334
11
134.366
21
-137.731
0
LINE
8
Black
10
134.366
20
-140.272
11
133.477
21
-140.272
0
LINE
8
Black
10
133.477
20
-140.272
11
133.477
21
-138.874
0
LINE
8
Black
10
133.477
20
-138.874
11
134.366
21
-138.874
0
LINE
8
Black
10
134.366
20
-138.874
11
134.366
21
-140.272
0
LINE
8
Black
10
134.366
20
-142.811
11
133.477
21
-142.811
0
LINE
8
Black
10
133.477
20
-142.811
11
133.477
21
-141.415
0
LINE
8
Black
10
133.477
20
-141.415
11
134.366
21
-141.415
0
LINE
8
Black
10
134.366
20
-141.415
11
134.366
21
-142.811
0
LINE
8
Black
10
134.366
20
-145.351
11
133.477
21
-145.351
0
LINE
8
Black
10
133.477
20
-145.351
11
133.477
21
-143.954
0
LINE
8
Black
10
133.477
20
-143.954
11
134.366
21
-143.954
0
LINE
8
Black
10
134.366
20
-143.954
11
134.366
21
-145.351
0
LINE
8
Black
10
134.366
20
-147.891
11
133.477
21
-147.891
0
LINE
8
Black
10
133.477
20
-147.891
11
133.477
21
-146.494
0
LINE
8
Black
10
133.477
20
-146.494
11
134.366
21
-146.494
0
LINE
8
Black
10
134.366
20
-146.494
11
134.366
21
-147.891
0
LINE
8
Black
10
136.839
20
-114.743
11
135.839
21
-114.743
0
LINE
8
Black
10
135.839
20
-114.743
11
135.839
21
-114.243
0
LINE
8
Black
10
135.839
20
-114.243
11
136.839
21
-114.243
0
LINE
8
Black
10
136.839
20
-114.243
11
136.839
21
-114.743
0
LINE
8
Black
10
136.839
20
-115.693
11
135.839
21
-115.693
0
LINE
8
Black
10
135.839
20
-115.693
11
135.839
21
-115.193
0
LINE
8
Black
10
135.839
20
-115.193
11
136.839
21
-115.193
0
LINE
8
Black
10
136.839
20
-115.193
11
136.839
21
-115.693
0
LINE
8
Black
10
136.839
20
-116.643
11
135.839
21
-116.643
0
LINE
8
Black
10
135.839
20
-116.643
11
135.839
21
-116.143
0
LINE
8
Black
10
135.839
20
-116.143
11
136.839
21
-116.143
0
LINE
8
Black
10
136.839
20
-116.143
11
136.839
21
-116.643
0
LINE
8
Black
10
136.839
20
-119.823
11
135.839
21
-119.823
0
LINE
8
Black
10
135.839
20
-119.823
11
135.839
21
-119.323
0
LINE
8
Black
10
135.839
20
-119.323
11
136.839
21
-119.323
0
LINE
8
Black
10
136.839
20
-119.323
11
136.839
21
-119.823
0
LINE
8
Black
10
136.839
20
-120.773
11
135.839
21
-120.773
0
LINE
8
Black
10
135.839
20
-120.773
11
135.839
21
-120.273
0
LINE
8
Black
10
135.839
20
-120.273
11
136.839
21
-120.273
0
LINE
8
Black
10
136.839
20
-120.273
11
136.839
21
-120.773
0
LINE
8
Black
10
136.839
20
-121.723
11
135.839
21
-121.723
0
LINE
8
Black
10
135.839
20
-121.723
11
135.839
21
-121.223
0
LINE
8
Black
10
135.839
20
-121.223
11
136.839
21
-121.223
0
LINE
8
Black
10
136.839
20
-121.223
11
136.839
21
-121.723
0
LINE
8
Black
10
136.839
20
-124.903
11
135.839
21
-124.903
0
LINE
8
Black
10
135.839
20
-124.903
11
135.839
21
-124.403
0
LINE
8
Black
10
135.839
20
-124.403
11
136.839
21
-124.403
0
LINE
8
Black
10
136.839
20
-124.403
11
136.839
21
-124.903
0
LINE
8
Black
10
136.839
20
-125.853
11
135.839
21
-125.853
0
LINE
8
Black
10
135.839
20
-125.853
11
135.839
21
-125.353
0
LINE
8
Black
10
135.839
20
-125.353
11
136.839
21
-125.353
0
LINE
8
Black
10
136.839
20
-125.353
11
136.839
21
-125.853
0
LINE
8
Black
10
136.839
20
-126.803
11
135.839
21
-126.803
0
LINE
8
Black
10
135.839
20
-126.803
11
135.839
21
-126.303
0
LINE
8
Black
10
135.839
20
-126.303
11
136.839
21
-126.303
0
LINE
8
Black
10
136.839
20
-126.303
11
136.839
21
-126.803
0
LINE
8
Black
10
136.839
20
-129.983
11
135.839
21
-129.983
0
LINE
8
Black
10
135.839
20
-129.983
11
135.839
21
-129.483
0
LINE
8
Black
10
135.839
20
-129.483
11
136.839
21
-129.483
0
LINE
8
Black
10
136.839
20
-129.483
11
136.839
21
-129.983
0
LINE
8
Black
10
136.839
20
-130.933
11
135.839
21
-130.933
0
LINE
8
Black
10
135.839
20
-130.933
11
135.839
21
-130.433
0
LINE
8
Black
10
135.839
20
-130.433
11
136.839
21
-130.433
0
LINE
8
Black
10
136.839
20
-130.433
11
136.839
21
-130.933
0
LINE
8
Black
10
136.839
20
-131.883
11
135.839
21
-131.883
0
LINE
8
Black
10
135.839
20
-131.883
11
135.839
21
-131.383
0
LINE
8
Black
10
135.839
20
-131.383
11
136.839
21
-131.383
0
LINE
8
Black
10
136.839
20
-131.383
11
136.839
21
-131.883
0
LINE
8
Black
10
136.839
20
-135.063
11
135.839
21
-135.063
0
LINE
8
Black
10
135.839
20
-135.063
11
135.839
21
-134.563
0
LINE
8
Black
10
135.839
20
-134.563
11
136.839
21
-134.563
0
LINE
8
Black
10
136.839
20
-134.563
11
136.839
21
-135.063
0
LINE
8
Black
10
136.839
20
-136.013
11
135.839
21
-136.013
0
LINE
8
Black
10
135.839
20
-136.013
11
135.839
21
-135.513
0
LINE
8
Black
10
135.839
20
-135.513
11
136.839
21
-135.513
0
LINE
8
Black
10
136.839
20
-135.513
11
136.839
21
-136.013
0
LINE
8
Black
10
136.839
20
-136.963
11
135.839
21
-136.963
0
LINE
8
Black
10
135.839
20
-136.963
11
135.839
21
-136.463
0
LINE
8
Black
10
135.839
20
-136.463
11
136.839
21
-136.463
0
LINE
8
Black
10
136.839
20
-136.463
11
136.839
21
-136.963
0
LINE
8
Black
10
136.839
20
-140.143
11
135.839
21
-140.143
0
LINE
8
Black
10
135.839
20
-140.143
11
135.839
21
-139.643
0
LINE
8
Black
10
135.839
20
-139.643
11
136.839
21
-139.643
0
LINE
8
Black
10
136.839
20
-139.643
11
136.839
21
-140.143
0
LINE
8
Black
10
136.839
20
-141.093
11
135.839
21
-141.093
0
LINE
8
Black
10
135.839
20
-141.093
11
135.839
21
-140.593
0
LINE
8
Black
10
135.839
20
-140.593
11
136.839
21
-140.593
0
LINE
8
Black
10
136.839
20
-140.593
11
136.839
21
-141.093
0
LINE
8
Black
10
136.839
20
-142.043
11
135.839
21
-142.043
0
LINE
8
Black
10
135.839
20
-142.043
11
135.839
21
-141.543
0
LINE
8
Black
10
135.839
20
-141.543
11
136.839
21
-141.543
0
LINE
8
Black
10
136.839
20
-141.543
11
136.839
21
-142.043
0
LINE
8
Black
10
136.839
20
-145.223
11
135.839
21
-145.223
0
LINE
8
Black
10
135.839
20
-145.223
11
135.839
21
-144.723
0
LINE
8
Black
10
135.839
20
-144.723
11
136.839
21
-144.723
0
LINE
8
Black
10
136.839
20
-144.723
11
136.839
21
-145.223
0
LINE
8
Black
10
136.839
20
-146.173
11
135.839
21
-146.173
0
LINE
8
Black
10
135.839
20
-146.173
11
135.839
21
-145.673
0
LINE
8
Black
10
135.839
20
-145.673
11
136.839
21
-145.673
0
LINE
8
Black
10
136.839
20
-145.673
11
136.839
21
-146.173
0
LINE
8
Black
10
136.839
20
-147.123
11
135.839
21
-147.123
0
LINE
8
Black
10
135.839
20
-147.123
11
135.839
21
-146.623
0
LINE
8
Black
10
135.839
20
-146.623
11
136.839
21
-146.623
0
LINE
8
Black
10
136.839
20
-146.623
11
136.839
21
-147.123
0
LINE
8
Black
10
138.989
20
-114.743
11
137.989
21
-114.743
0
LINE
8
Black
10
137.989
20
-114.743
11
137.989
21
-114.243
0
LINE
8
Black
10
137.989
20
-114.243
11
138.989
21
-114.243
0
LINE
8
Black
10
138.989
20
-114.243
11
138.989
21
-114.743
0
LINE
8
Black
10
138.989
20
-115.693
11
137.989
21
-115.693
0
LINE
8
Black
10
137.989
20
-115.693
11
137.989
21
-115.193
0
LINE
8
Black
10
137.989
20
-115.193
11
138.989
21
-115.193
0
LINE
8
Black
10
138.989
20
-115.193
11
138.989
21
-115.693
0
LINE
8
Black
10
138.989
20
-116.643
11
137.989
21
-116.643
0
LINE
8
Black
10
137.989
20
-116.643
11
137.989
21
-116.143
0
LINE
8
Black
10
137.989
20
-116.143
11
138.989
21
-116.143
0
LINE
8
Black
10
138.989
20
-116.143
11
138.989
21
-116.643
0
LINE
8
Black
10
138.989
20
-119.823
11
137.989
21
-119.823
0
LINE
8
Black
10
137.989
20
-119.823
11
137.989
21
-119.323
0
LINE
8
Black
10
137.989
20
-119.323
11
138.989
21
-119.323
0
LINE
8
Black
10
138.989
20
-119.323
11
138.989
21
-119.823
0
LINE
8
Black
10
138.989
20
-120.773
11
137.989
21
-120.773
0
LINE
8
Black
10
137.989
20
-120.773
11
137.989
21
-120.273
0
LINE
8
Black
10
137.989
20
-120.273
11
138.989
21
-120.273
0
LINE
8
Black
10
138.989
20
-120.273
11
138.989
21
-120.773
0
LINE
8
Black
10
138.989
20
-121.723
11
137.989
21
-121.723
0
LINE
8
Black
10
137.989
20
-121.723
11
137.989
21
-121.223
0
LINE
8
Black
10
137.989
20
-121.223
11
138.989
21
-121.223
0
LINE
8
Black
10
138.989
20
-121.223
11
138.989
21
-121.723
0
LINE
8
Black
10
138.989
20
-124.903
11
137.989
21
-124.903
0
LINE
8
Black
10
137.989
20
-124.903
11
137.989
21
-124.403
0
LINE
8
Black
10
137.989
20
-124.403
11
138.989
21
-124.403
0
LINE
8
Black
10
138.989
20
-124.403
11
138.989
21
-124.903
0
LINE
8
Black
10
138.989
20
-125.853
11
137.989
21
-125.853
0
LINE
8
Black
10
137.989
20
-125.853
11
137.989
21
-125.353
0
LINE
8
Black
10
137.989
20
-125.353
11
138.989
21
-125.353
0
LINE
8
Black
10
138.989
20
-125.353
11
138.989
21
-125.853
0
LINE
8
Black
10
138.989
20
-126.803
11
137.989
21
-126.803
0
LINE
8
Black
10
137.989
20
-126.803
11
137.989
21
-126.303
0
LINE
8
Black
10
137.989
20
-126.303
11
138.989
21
-126.303
0
LINE
8
Black
10
138.989
20
-126.303
11
138.989
21
-126.803
0
LINE
8
Black
10
138.989
20
-129.983
11
137.989
21
-129.983
0
LINE
8
Black
10
137.989
20
-129.983
11
137.989
21
-129.483
0
LINE
8
Black
10
137.989
20
-129.483
11
138.989
21
-129.483
0
LINE
8
Black
10
138.989
20
-129.483
11
138.989
21
-129.983
0
LINE
8
Black
10
138.989
20
-130.933
11
137.989
21
-130.933
0
LINE
8
Black
10
137.989
20
-130.933
11
137.989
21
-130.433
0
LINE
8
Black
10
137.989
20
-130.433
11
138.989
21
-130.433
0
LINE
8
Black
10
138.989
20
-130.433
11
138.989
21
-130.933
0
LINE
8
Black
10
138.989
20
-131.883
11
137.989
21
-131.883
0
LINE
8
Black
10
137.989
20
-131.883
11
137.989
21
-131.383
0
LINE
8
Black
10
137.989
20
-131.383
11
138.989
21
-131.383
0
LINE
8
Black
10
138.989
20
-131.383
11
138.989
21
-131.883
0
LINE
8
Black
10
138.989
20
-135.063
11
137.989
21
-135.063
0
LINE
8
Black
10
137.989
20
-135.063
11
137.989
21
-134.563
0
LINE
8
Black
10
137.989
20
-134.563
11
138.989
21
-134.563
0
LINE
8
Black
10
138.989
20
-134.563
11
138.989
21
-135.063
0
LINE
8
Black
10
138.989
20
-136.013
11
137.989
21
-136.013
0
LINE
8
Black
10
137.989
20
-136.013
11
137.989
21
-135.513
0
LINE
8
Black
10
137.989
20
-135.513
11
138.989
21
-135.513
0
LINE
8
Black
10
138.989
20
-135.513
11
138.989
21
-136.013
0
LINE
8
Black
10
138.989
20
-136.963
11
137.989
21
-136.963
0
LINE
8
Black
10
137.989
20
-136.963
11
137.989
21
-136.463
0
LINE
8
Black
10
137.989
20
-136.463
11
138.989
21
-136.463
0
LINE
8
Black
10
138.989
20
-136.463
11
138.989
21
-136.963
0
LINE
8
Black
10
138.989
20
-140.143
11
137.989
21
-140.143
0
LINE
8
Black
10
137.989
20
-140.143
11
137.989
21
-139.643
0
LINE
8
Black
10
137.989
20
-139.643
11
138.989
21
-139.643
0
LINE
8
Black
10
138.989
20
-139.643
11
138.989
21
-140.143
0
LINE
8
Black
10
138.989
20
-141.093
11
137.989
21
-141.093
0
LINE
8
Black
10
137.989
20
-141.093
11
137.989
21
-140.593
0
LINE
8
Black
10
137.989
20
-140.593
11
138.989
21
-140.593
0
LINE
8
Black
10
138.989
20
-140.593
11
138.989
21
-141.093
0
LINE
8
Black
10
138.989
20
-142.043
11
137.989
21
-142.043
0
LINE
8
Black
10
137.989
20
-142.043
11
137.989
21
-141.543
0
LINE
8
Black
10
137.989
20
-141.543
11
138.989
21
-141.543
0
LINE
8
Black
10
138.989
20
-141.543
11
138.989
21
-142.043
0
LINE
8
Black
10
138.989
20
-145.223
11
137.989
21
-145.223
0
LINE
8
Black
10
137.989
20
-145.223
11
137.989
21
-144.723
0
LINE
8
Black
10
137.989
20
-144.723
11
138.989
21
-144.723
0
LINE
8
Black
10
138.989
20
-144.723
11
138.989
21
-145.223
0
LINE
8
Black
10
138.989
20
-146.173
11
137.989
21
-146.173
0
LINE
8
Black
10
137.989
20
-146.173
11
137.989
21
-145.673
0
LINE
8
Black
10
137.989
20
-145.673
11
138.989
21
-145.673
0
LINE
8
Black
10
138.989
20
-145.673
11
138.989
21
-146.173
0
LINE
8
Black
10
138.989
20
-147.123
11
137.989
21
-147.123
0
LINE
8
Black
10
137.989
20
-147.123
11
137.989
21
-146.623
0
LINE
8
Black
10
137.989
20
-146.623
11
138.989
21
-146.623
0
LINE
8
Black
10
138.989
20
-146.623
11
138.989
21
-147.123
0
LINE
8
Black
10
144.969
20
-141.665
11
144.469
21
-141.665
0
LINE
8
Black
10
144.469
20
-141.665
11
144.469
21
-140.665
0
LINE
8
Black
10
144.469
20
-140.665
11
144.969
21
-140.665
0
LINE
8
Black
10
144.969
20
-140.665
11
144.969
21
-141.665
0
LINE
8
Black
10
144.969
20
-143.815
11
144.469
21
-143.815
0
LINE
8
Black
10
144.469
20
-143.815
11
144.469
21
-142.815
0
LINE
8
Black
10
144.469
20
-142.815
11
144.969
21
-142.815
0
LINE
8
Black
10
144.969
20
-142.815
11
144.969
21
-143.815
0
LINE
8
Black
10
145.919
20
-141.665
11
145.419
21
-141.665
0
LINE
8
Black
10
145.419
20
-141.665
11
145.419
21
-140.665
0
LINE
8
Black
10
145.419
20
-140.665
11
145.919
21
-140.665
0
LINE
8
Black
10
145.919
20
-140.665
11
145.919
21
-141.665
0
LINE
8
Black
10
145.919
20
-143.815
11
145.419
21
-143.815
0
LINE
8
Black
10
145.419
20
-143.815
11
145.419
21
-142.815
0
LINE
8
Black
10
145.419
20
-142.815
11
145.919
21
-142.815
0
LINE
8
Black
10
145.919
20
-142.815
11
145.919
21
-143.815
0
LINE
8
Black
10
146.621
20
-146.304
11
145.225
21
-146.304
0
LINE
8
Black
10
145.225
20
-146.304
11
145.225
21
-145.415
0
LINE
8
Black
10
145.225
20
-145.415
11
146.621
21
-145.415
0
LINE
8
Black
10
146.621
20
-145.415
11
146.621
21
-146.304
0
LINE
8
Black
10
146.621
20
-148.209
11
145.225
21
-148.209
0
LINE
8
Black
10
145.225
20
-148.209
11
145.225
21
-147.32
0
LINE
8
Black
10
145.225
20
-147.32
11
146.621
21
-147.32
0
LINE
8
Black
10
146.621
20
-147.32
11
146.621
21
-148.209
0
LINE
8
Black
10
146.869
20
-141.665
11
146.369
21
-141.665
0
LINE
8
Black
10
146.369
20
-141.665
11
146.369
21
-140.665
0
LINE
8
Black
10
146.369
20
-140.665
11
146.869
21
-140.665
0
LINE
8
Black
10
146.869
20
-140.665
11
146.869
21
-141.665
0
LINE
8
Black
10
146.869
20
-143.815
11
146.369
21
-143.815
0
LINE
8
Black
10
146.369
20
-143.815
11
146.369
21
-142.815
0
LINE
8
Black
10
146.369
20
-142.815
11
146.869
21
-142.815
0
LINE
8
Black
10
146.869
20
-142.815
11
146.869
21
-143.815
0
LINE
8
Black
10
148.78
20
-145.542
11
147.383
21
-145.542
0
LINE
8
Black
10
147.383
20
-145.542
11
147.383
21
-144.653
0
LINE
8
Black
10
147.383
20
-144.653
11
148.78
21
-144.653
0
LINE
8
Black
10
148.78
20
-144.653
11
148.78
21
-145.542
0
LINE
8
Black
10
148.78
20
-147.447
11
147.383
21
-147.447
0
LINE
8
Black
10
147.383
20
-147.447
11
147.383
21
-146.558
0
LINE
8
Black
10
147.383
20
-146.558
11
148.78
21
-146.558
0
LINE
8
Black
10
148.78
20
-146.558
11
148.78
21
-147.447
  0
ENDSEC
  0
EOF
