  0
SECTION
  2
HEADER
  9
$ANGBASE
  50
0.0
  9
$ANGDIR
  70
  1
  9
$MEASUREMENT
  70
0
  0
ENDSEC
  0
SECTION
  2
TABLES
  0
TABLE
  2
LTYPE
  70
1
  0
LTYPE
  2
CONTINUOUS
  70
0
  3
Solid line
  72
65
  73
0
  40
0.0
  0
ENDTAB
  0
TABLE
  2
STYLE
  70
4
  0
STYLE
  2
KICAD
  70
0
  40
0
  41
1
  42
1
  50
0
  71
0
  3
isocp.shx
  0
STYLE
  2
KICADB
  70
0
  40
0
  41
1
  42
1
  50
0
  71
0
  3
isocp.shx
  0
STYLE
  2
KICADI
  70
0
  40
0
  41
1
  42
1
  50
15
  71
0
  3
isocp.shx
  0
STYLE
  2
KICADBI
  70
0
  40
0
  41
1
  42
1
  50
15
  71
0
  3
isocp.shx
  0
ENDTAB
  0
TABLE
  2
LAYER
  70
30
  0
LAYER
  2
BLACK
  70
0
  62
7
  6
CONTINUOUS
  0
LAYER
  2
GRAY1
  70
0
  62
251
  6
CONTINUOUS
  0
LAYER
  2
GRAY2
  70
0
  62
8
  6
CONTINUOUS
  0
LAYER
  2
GRAY3
  70
0
  62
9
  6
CONTINUOUS
  0
LAYER
  2
WHITE
  70
0
  62
7
  6
CONTINUOUS
  0
LAYER
  2
LYELLOW
  70
0
  62
51
  6
CONTINUOUS
  0
LAYER
  2
BLUE1
  70
0
  62
178
  6
CONTINUOUS
  0
LAYER
  2
GREEN1
  70
0
  62
98
  6
CONTINUOUS
  0
LAYER
  2
CYAN1
  70
0
  62
138
  6
CONTINUOUS
  0
LAYER
  2
RED1
  70
0
  62
18
  6
CONTINUOUS
  0
LAYER
  2
MAGENTA1
  70
0
  62
228
  6
CONTINUOUS
  0
LAYER
  2
BROWN1
  70
0
  62
58
  6
CONTINUOUS
  0
LAYER
  2
BLUE2
  70
0
  62
5
  6
CONTINUOUS
  0
LAYER
  2
GREEN2
  70
0
  62
3
  6
CONTINUOUS
  0
LAYER
  2
CYAN2
  70
0
  62
4
  6
CONTINUOUS
  0
LAYER
  2
RED2
  70
0
  62
1
  6
CONTINUOUS
  0
LAYER
  2
MAGENTA2
  70
0
  62
6
  6
CONTINUOUS
  0
LAYER
  2
BROWN2
  70
0
  62
54
  6
CONTINUOUS
  0
LAYER
  2
BLUE3
  70
0
  62
171
  6
CONTINUOUS
  0
LAYER
  2
GREEN3
  70
0
  62
91
  6
CONTINUOUS
  0
LAYER
  2
CYAN3
  70
0
  62
131
  6
CONTINUOUS
  0
LAYER
  2
RED3
  70
0
  62
11
  6
CONTINUOUS
  0
LAYER
  2
MAGENTA3
  70
0
  62
221
  6
CONTINUOUS
  0
LAYER
  2
YELLOW3
  70
0
  62
2
  6
CONTINUOUS
  0
LAYER
  2
BLUE4
  70
0
  62
5
  6
CONTINUOUS
  0
LAYER
  2
GREEN4
  70
0
  62
3
  6
CONTINUOUS
  0
LAYER
  2
CYAN4
  70
0
  62
4
  6
CONTINUOUS
  0
LAYER
  2
RED4
  70
0
  62
1
  6
CONTINUOUS
  0
LAYER
  2
MAGENTA4
  70
0
  62
6
  6
CONTINUOUS
  0
LAYER
  2
YELLOW4
  70
0
  62
2
  6
CONTINUOUS
  0
ENDTAB
  0
ENDSEC
  0
SECTION
  2
ENTITIES
0
LINE
8
Black
10
111.442
20
-113.538
11
110.045
21
-113.538
0
LINE
8
Black
10
110.045
20
-113.538
11
110.045
21
-112.649
0
LINE
8
Black
10
110.045
20
-112.649
11
111.442
21
-112.649
0
LINE
8
Black
10
111.442
20
-112.649
11
111.442
21
-113.538
0
LINE
8
Black
10
111.442
20
-115.443
11
110.045
21
-115.443
0
LINE
8
Black
10
110.045
20
-115.443
11
110.045
21
-114.554
0
LINE
8
Black
10
110.045
20
-114.554
11
111.442
21
-114.554
0
LINE
8
Black
10
111.442
20
-114.554
11
111.442
21
-115.443
0
LINE
8
Black
10
112.005
20
-107.008
11
111.655
21
-107.008
0
LINE
8
Black
10
111.655
20
-107.008
11
111.655
21
-106.058
0
LINE
8
Black
10
111.655
20
-106.058
11
112.005
21
-106.058
0
LINE
8
Black
10
112.005
20
-106.058
11
112.005
21
-107.008
0
LINE
8
Black
10
112.005
20
-110.858
11
111.655
21
-110.858
0
LINE
8
Black
10
111.655
20
-110.858
11
111.655
21
-109.908
0
LINE
8
Black
10
111.655
20
-109.908
11
112.005
21
-109.908
0
LINE
8
Black
10
112.005
20
-109.908
11
112.005
21
-110.858
0
LINE
8
Black
10
112.805
20
-107.008
11
112.455
21
-107.008
0
LINE
8
Black
10
112.455
20
-107.008
11
112.455
21
-106.058
0
LINE
8
Black
10
112.455
20
-106.058
11
112.805
21
-106.058
0
LINE
8
Black
10
112.805
20
-106.058
11
112.805
21
-107.008
0
LINE
8
Black
10
112.805
20
-110.858
11
112.455
21
-110.858
0
LINE
8
Black
10
112.455
20
-110.858
11
112.455
21
-109.908
0
LINE
8
Black
10
112.455
20
-109.908
11
112.805
21
-109.908
0
LINE
8
Black
10
112.805
20
-109.908
11
112.805
21
-110.858
0
LINE
8
Black
10
113.605
20
-107.008
11
113.255
21
-107.008
0
LINE
8
Black
10
113.255
20
-107.008
11
113.255
21
-106.058
0
LINE
8
Black
10
113.255
20
-106.058
11
113.605
21
-106.058
0
LINE
8
Black
10
113.605
20
-106.058
11
113.605
21
-107.008
0
LINE
8
Black
10
113.605
20
-110.858
11
113.255
21
-110.858
0
LINE
8
Black
10
113.255
20
-110.858
11
113.255
21
-109.908
0
LINE
8
Black
10
113.255
20
-109.908
11
113.605
21
-109.908
0
LINE
8
Black
10
113.605
20
-109.908
11
113.605
21
-110.858
0
LINE
8
Black
10
114.405
20
-107.008
11
114.055
21
-107.008
0
LINE
8
Black
10
114.055
20
-107.008
11
114.055
21
-106.058
0
LINE
8
Black
10
114.055
20
-106.058
11
114.405
21
-106.058
0
LINE
8
Black
10
114.405
20
-106.058
11
114.405
21
-107.008
0
LINE
8
Black
10
114.405
20
-110.858
11
114.055
21
-110.858
0
LINE
8
Black
10
114.055
20
-110.858
11
114.055
21
-109.908
0
LINE
8
Black
10
114.055
20
-109.908
11
114.405
21
-109.908
0
LINE
8
Black
10
114.405
20
-109.908
11
114.405
21
-110.858
0
LINE
8
Black
10
114.53
20
-109.558
11
111.53
21
-109.558
0
LINE
8
Black
10
111.53
20
-109.558
11
111.53
21
-107.358
0
LINE
8
Black
10
111.53
20
-107.358
11
114.53
21
-107.358
0
LINE
8
Black
10
114.53
20
-107.358
11
114.53
21
-109.558
0
LINE
8
Black
10
115.268
20
-113.271
11
113.967
21
-113.271
0
LINE
8
Black
10
113.967
20
-113.271
11
113.967
21
-111.773
0
LINE
8
Black
10
113.967
20
-111.773
11
115.268
21
-111.773
0
LINE
8
Black
10
115.268
20
-111.773
11
115.268
21
-113.271
0
LINE
8
Black
10
116.586
20
-140.398
11
115.697
21
-140.398
0
LINE
8
Black
10
115.697
20
-140.398
11
115.697
21
-139.001
0
LINE
8
Black
10
115.697
20
-139.001
11
116.586
21
-139.001
0
LINE
8
Black
10
116.586
20
-139.001
11
116.586
21
-140.398
0
LINE
8
Black
10
117.173
20
-113.271
11
115.872
21
-113.271
0
LINE
8
Black
10
115.872
20
-113.271
11
115.872
21
-111.773
0
LINE
8
Black
10
115.872
20
-111.773
11
117.173
21
-111.773
0
LINE
8
Black
10
117.173
20
-111.773
11
117.173
21
-113.271
0
LINE
8
Black
10
118.491
20
-140.398
11
117.602
21
-140.398
0
LINE
8
Black
10
117.602
20
-140.398
11
117.602
21
-139.001
0
LINE
8
Black
10
117.602
20
-139.001
11
118.491
21
-139.001
0
LINE
8
Black
10
118.491
20
-139.001
11
118.491
21
-140.398
0
LINE
8
Black
10
120.216
20
-145.533
11
119.266
21
-145.533
0
LINE
8
Black
10
119.266
20
-145.533
11
119.266
21
-145.183
0
LINE
8
Black
10
119.266
20
-145.183
11
120.216
21
-145.183
0
LINE
8
Black
10
120.216
20
-145.183
11
120.216
21
-145.533
0
LINE
8
Black
10
120.216
20
-146.333
11
119.266
21
-146.333
0
LINE
8
Black
10
119.266
20
-146.333
11
119.266
21
-145.983
0
LINE
8
Black
10
119.266
20
-145.983
11
120.216
21
-145.983
0
LINE
8
Black
10
120.216
20
-145.983
11
120.216
21
-146.333
0
LINE
8
Black
10
120.216
20
-147.133
11
119.266
21
-147.133
0
LINE
8
Black
10
119.266
20
-147.133
11
119.266
21
-146.783
0
LINE
8
Black
10
119.266
20
-146.783
11
120.216
21
-146.783
0
LINE
8
Black
10
120.216
20
-146.783
11
120.216
21
-147.133
0
LINE
8
Black
10
120.216
20
-147.933
11
119.266
21
-147.933
0
LINE
8
Black
10
119.266
20
-147.933
11
119.266
21
-147.583
0
LINE
8
Black
10
119.266
20
-147.583
11
120.216
21
-147.583
0
LINE
8
Black
10
120.216
20
-147.583
11
120.216
21
-147.933
0
LINE
8
Black
10
122.766
20
-148.058
11
120.566
21
-148.058
0
LINE
8
Black
10
120.566
20
-148.058
11
120.566
21
-145.058
0
LINE
8
Black
10
120.566
20
-145.058
11
122.766
21
-145.058
0
LINE
8
Black
10
122.766
20
-145.058
11
122.766
21
-148.058
0
LINE
8
Black
10
124.066
20
-145.533
11
123.116
21
-145.533
0
LINE
8
Black
10
123.116
20
-145.533
11
123.116
21
-145.183
0
LINE
8
Black
10
123.116
20
-145.183
11
124.066
21
-145.183
0
LINE
8
Black
10
124.066
20
-145.183
11
124.066
21
-145.533
0
LINE
8
Black
10
124.066
20
-146.333
11
123.116
21
-146.333
0
LINE
8
Black
10
123.116
20
-146.333
11
123.116
21
-145.983
0
LINE
8
Black
10
123.116
20
-145.983
11
124.066
21
-145.983
0
LINE
8
Black
10
124.066
20
-145.983
11
124.066
21
-146.333
0
LINE
8
Black
10
124.066
20
-147.133
11
123.116
21
-147.133
0
LINE
8
Black
10
123.116
20
-147.133
11
123.116
21
-146.783
0
LINE
8
Black
10
123.116
20
-146.783
11
124.066
21
-146.783
0
LINE
8
Black
10
124.066
20
-146.783
11
124.066
21
-147.133
0
LINE
8
Black
10
124.066
20
-147.933
11
123.116
21
-147.933
0
LINE
8
Black
10
123.116
20
-147.933
11
123.116
21
-147.583
0
LINE
8
Black
10
123.116
20
-147.583
11
124.066
21
-147.583
0
LINE
8
Black
10
124.066
20
-147.583
11
124.066
21
-147.933
0
LINE
8
Black
10
125.412
20
-109.22
11
124.015
21
-109.22
0
LINE
8
Black
10
124.015
20
-109.22
11
124.015
21
-108.331
0
LINE
8
Black
10
124.015
20
-108.331
11
125.412
21
-108.331
0
LINE
8
Black
10
125.412
20
-108.331
11
125.412
21
-109.22
0
LINE
8
Black
10
125.412
20
-111.125
11
124.015
21
-111.125
0
LINE
8
Black
10
124.015
20
-111.125
11
124.015
21
-110.236
0
LINE
8
Black
10
124.015
20
-110.236
11
125.412
21
-110.236
0
LINE
8
Black
10
125.412
20
-110.236
11
125.412
21
-111.125
0
LINE
8
Black
10
126.19
20
-146.291
11
124.889
21
-146.291
0
LINE
8
Black
10
124.889
20
-146.291
11
124.889
21
-144.793
0
LINE
8
Black
10
124.889
20
-144.793
11
126.19
21
-144.793
0
LINE
8
Black
10
126.19
20
-144.793
11
126.19
21
-146.291
0
LINE
8
Black
10
127.328
20
-106.417
11
126.378
21
-106.417
0
LINE
8
Black
10
126.378
20
-106.417
11
126.378
21
-106.067
0
LINE
8
Black
10
126.378
20
-106.067
11
127.328
21
-106.067
0
LINE
8
Black
10
127.328
20
-106.067
11
127.328
21
-106.417
0
LINE
8
Black
10
127.328
20
-107.217
11
126.378
21
-107.217
0
LINE
8
Black
10
126.378
20
-107.217
11
126.378
21
-106.867
0
LINE
8
Black
10
126.378
20
-106.867
11
127.328
21
-106.867
0
LINE
8
Black
10
127.328
20
-106.867
11
127.328
21
-107.217
0
LINE
8
Black
10
127.328
20
-108.017
11
126.378
21
-108.017
0
LINE
8
Black
10
126.378
20
-108.017
11
126.378
21
-107.667
0
LINE
8
Black
10
126.378
20
-107.667
11
127.328
21
-107.667
0
LINE
8
Black
10
127.328
20
-107.667
11
127.328
21
-108.017
0
LINE
8
Black
10
127.328
20
-108.817
11
126.378
21
-108.817
0
LINE
8
Black
10
126.378
20
-108.817
11
126.378
21
-108.467
0
LINE
8
Black
10
126.378
20
-108.467
11
127.328
21
-108.467
0
LINE
8
Black
10
127.328
20
-108.467
11
127.328
21
-108.817
0
LINE
8
Black
10
128.095
20
-146.291
11
126.794
21
-146.291
0
LINE
8
Black
10
126.794
20
-146.291
11
126.794
21
-144.793
0
LINE
8
Black
10
126.794
20
-144.793
11
128.095
21
-144.793
0
LINE
8
Black
10
128.095
20
-144.793
11
128.095
21
-146.291
0
LINE
8
Black
10
129.878
20
-108.942
11
127.678
21
-108.942
0
LINE
8
Black
10
127.678
20
-108.942
11
127.678
21
-105.942
0
LINE
8
Black
10
127.678
20
-105.942
11
129.878
21
-105.942
0
LINE
8
Black
10
129.878
20
-105.942
11
129.878
21
-108.942
0
LINE
8
Black
10
131.178
20
-106.417
11
130.228
21
-106.417
0
LINE
8
Black
10
130.228
20
-106.417
11
130.228
21
-106.067
0
LINE
8
Black
10
130.228
20
-106.067
11
131.178
21
-106.067
0
LINE
8
Black
10
131.178
20
-106.067
11
131.178
21
-106.417
0
LINE
8
Black
10
131.178
20
-107.217
11
130.228
21
-107.217
0
LINE
8
Black
10
130.228
20
-107.217
11
130.228
21
-106.867
0
LINE
8
Black
10
130.228
20
-106.867
11
131.178
21
-106.867
0
LINE
8
Black
10
131.178
20
-106.867
11
131.178
21
-107.217
0
LINE
8
Black
10
131.178
20
-108.017
11
130.228
21
-108.017
0
LINE
8
Black
10
130.228
20
-108.017
11
130.228
21
-107.667
0
LINE
8
Black
10
130.228
20
-107.667
11
131.178
21
-107.667
0
LINE
8
Black
10
131.178
20
-107.667
11
131.178
21
-108.017
0
LINE
8
Black
10
131.178
20
-108.817
11
130.228
21
-108.817
0
LINE
8
Black
10
130.228
20
-108.817
11
130.228
21
-108.467
0
LINE
8
Black
10
130.228
20
-108.467
11
131.178
21
-108.467
0
LINE
8
Black
10
131.178
20
-108.467
11
131.178
21
-108.817
0
LINE
8
Black
10
133.175
20
-106.794
11
131.874
21
-106.794
0
LINE
8
Black
10
131.874
20
-106.794
11
131.874
21
-105.296
0
LINE
8
Black
10
131.874
20
-105.296
11
133.175
21
-105.296
0
LINE
8
Black
10
133.175
20
-105.296
11
133.175
21
-106.794
0
LINE
8
Black
10
135.08
20
-106.794
11
133.779
21
-106.794
0
LINE
8
Black
10
133.779
20
-106.794
11
133.779
21
-105.296
0
LINE
8
Black
10
133.779
20
-105.296
11
135.08
21
-105.296
0
LINE
8
Black
10
135.08
20
-105.296
11
135.08
21
-106.794
  0
ENDSEC
  0
EOF
