%FSLAX46Y46*%
G04 Gerber Fmt 4.6, Leading zero omitted, Abs format (unit mm)*
G04 Created by KiCad (PCBNEW (2014-jan-25)-product) date Mon 28 Jul 2014 17:03:22 BST*
%MOMM*%
G01*
G04 APERTURE LIST*
%ADD10C,0.100000*%
%ADD11R,3.000000X2.200000*%
%ADD12C,0.400000*%
%ADD13R,2.200000X3.000000*%
%ADD14C,3.000000*%
%ADD15C,3.400000*%
%ADD16C,1.397000*%
%ADD17R,1.397000X1.397000*%
%ADD18C,5.500000*%
%ADD19C,4.500000*%
%ADD20R,2.032000X2.032000*%
%ADD21O,2.032000X2.032000*%
%ADD22C,2.000000*%
G04 APERTURE END LIST*
D10*
D11*
X113030000Y-108458000D03*
D12*
X114230000Y-109258000D03*
X114230000Y-108458000D03*
X114230000Y-107658000D03*
X113430000Y-107658000D03*
X113430000Y-108458000D03*
X113430000Y-109258000D03*
X112630000Y-109258000D03*
X112630000Y-108458000D03*
X112630000Y-107658000D03*
X111830000Y-107658000D03*
X111830000Y-108458000D03*
X111830000Y-109258000D03*
D13*
X128778000Y-107442000D03*
D12*
X129578000Y-106242000D03*
X128778000Y-106242000D03*
X127978000Y-106242000D03*
X127978000Y-107042000D03*
X128778000Y-107042000D03*
X129578000Y-107042000D03*
X129578000Y-107842000D03*
X128778000Y-107842000D03*
X127978000Y-107842000D03*
X127978000Y-108642000D03*
X128778000Y-108642000D03*
X129578000Y-108642000D03*
D13*
X121666000Y-146558000D03*
D12*
X122466000Y-145358000D03*
X121666000Y-145358000D03*
X120866000Y-145358000D03*
X120866000Y-146158000D03*
X121666000Y-146158000D03*
X122466000Y-146158000D03*
X122466000Y-146958000D03*
X121666000Y-146958000D03*
X120866000Y-146958000D03*
X120866000Y-147758000D03*
X121666000Y-147758000D03*
X122466000Y-147758000D03*
D10*
G36*
X133093573Y-114785107D02*
X136629107Y-111249573D01*
X138750427Y-113370893D01*
X135214893Y-116906427D01*
X133093573Y-114785107D01*
X133093573Y-114785107D01*
G37*
D14*
X120677181Y-109048074D02*
X121194819Y-110979926D01*
X109048074Y-120677181D02*
X110979926Y-121194819D01*
X114785107Y-135468893D02*
X113370893Y-136883107D01*
X129059181Y-139147074D02*
X129576819Y-141078926D01*
X139020074Y-128678181D02*
X140951926Y-129195819D01*
D15*
X128302000Y-112681000D03*
X137319000Y-121698000D03*
X134017000Y-134017000D03*
X121698000Y-137319000D03*
X112681000Y-128302000D03*
X115983000Y-115983000D03*
D10*
G36*
X105275669Y-114301874D02*
X104065831Y-113603374D01*
X104764331Y-112393536D01*
X105974169Y-113092036D01*
X105275669Y-114301874D01*
X105275669Y-114301874D01*
G37*
D16*
X106290000Y-111148000D03*
X107560000Y-108948295D03*
D10*
G36*
X142165831Y-102544626D02*
X143375669Y-101846126D01*
X144074169Y-103055964D01*
X142864331Y-103754464D01*
X142165831Y-102544626D01*
X142165831Y-102544626D01*
G37*
D16*
X144390000Y-105000000D03*
X145660000Y-107199705D03*
D17*
X119244000Y-142644000D03*
D16*
X121784000Y-142644000D03*
X124324000Y-142644000D03*
D18*
X105791000Y-139595860D03*
D19*
X105791000Y-145595340D03*
X110490000Y-142595600D03*
D20*
X147574000Y-124714000D03*
D21*
X147574000Y-122174000D03*
D20*
X147574000Y-117602000D03*
D21*
X147574000Y-115062000D03*
D10*
G36*
X143313537Y-138392929D02*
X146849071Y-141928463D01*
X144727751Y-144049783D01*
X141192217Y-140514249D01*
X143313537Y-138392929D01*
X143313537Y-138392929D01*
G37*
D14*
X141584661Y-145071553D02*
X140170447Y-143657339D01*
D22*
X146984128Y-145082867D03*
X144828867Y-147238128D03*
M02*
