%FSLAX46Y46*%
G04 Gerber Fmt 4.6, Leading zero omitted, Abs format (unit mm)*
G04 Created by KiCad (PCBNEW (2014-jan-25)-product) date Mon 28 Jul 2014 16:56:47 BST*
%MOMM*%
G01*
G04 APERTURE LIST*
%ADD10C,0.100000*%
%ADD11R,3.000000X2.200000*%
%ADD12R,0.350000X0.950000*%
%ADD13C,0.400000*%
%ADD14R,2.200000X3.000000*%
%ADD15R,0.950000X0.350000*%
%ADD16C,3.000000*%
%ADD17C,3.400000*%
%ADD18C,1.397000*%
%ADD19R,1.397000X1.397000*%
%ADD20R,1.300480X1.498600*%
%ADD21C,5.500000*%
%ADD22C,4.500000*%
%ADD23R,2.032000X2.032000*%
%ADD24O,2.032000X2.032000*%
%ADD25R,1.397000X0.889000*%
%ADD26R,0.889000X1.397000*%
%ADD27C,1.260000*%
%ADD28C,0.500000*%
%ADD29C,1.000000*%
%ADD30C,0.750000*%
%ADD31C,2.000000*%
%ADD32C,0.254000*%
G04 APERTURE END LIST*
D10*
D11*
X113030000Y-108458000D03*
D12*
X114230000Y-106533000D03*
X113430000Y-106533000D03*
X112630000Y-106533000D03*
X111830000Y-106533000D03*
X111830000Y-110383000D03*
X112630000Y-110383000D03*
X113430000Y-110383000D03*
X114230000Y-110383000D03*
D13*
X114230000Y-109258000D03*
X114230000Y-108458000D03*
X114230000Y-107658000D03*
X113430000Y-107658000D03*
X113430000Y-108458000D03*
X113430000Y-109258000D03*
X112630000Y-109258000D03*
X112630000Y-108458000D03*
X112630000Y-107658000D03*
X111830000Y-107658000D03*
X111830000Y-108458000D03*
X111830000Y-109258000D03*
D14*
X128778000Y-107442000D03*
D15*
X126853000Y-106242000D03*
X126853000Y-107042000D03*
X126853000Y-107842000D03*
X126853000Y-108642000D03*
X130703000Y-108642000D03*
X130703000Y-107842000D03*
X130703000Y-107042000D03*
X130703000Y-106242000D03*
D13*
X129578000Y-106242000D03*
X128778000Y-106242000D03*
X127978000Y-106242000D03*
X127978000Y-107042000D03*
X128778000Y-107042000D03*
X129578000Y-107042000D03*
X129578000Y-107842000D03*
X128778000Y-107842000D03*
X127978000Y-107842000D03*
X127978000Y-108642000D03*
X128778000Y-108642000D03*
X129578000Y-108642000D03*
D14*
X121666000Y-146558000D03*
D15*
X119741000Y-145358000D03*
X119741000Y-146158000D03*
X119741000Y-146958000D03*
X119741000Y-147758000D03*
X123591000Y-147758000D03*
X123591000Y-146958000D03*
X123591000Y-146158000D03*
X123591000Y-145358000D03*
D13*
X122466000Y-145358000D03*
X121666000Y-145358000D03*
X120866000Y-145358000D03*
X120866000Y-146158000D03*
X121666000Y-146158000D03*
X122466000Y-146158000D03*
X122466000Y-146958000D03*
X121666000Y-146958000D03*
X120866000Y-146958000D03*
X120866000Y-147758000D03*
X121666000Y-147758000D03*
X122466000Y-147758000D03*
D10*
G36*
X133093573Y-114785107D02*
X136629107Y-111249573D01*
X138750427Y-113370893D01*
X135214893Y-116906427D01*
X133093573Y-114785107D01*
X133093573Y-114785107D01*
G37*
D16*
X120677181Y-109048074D02*
X121194819Y-110979926D01*
X109048074Y-120677181D02*
X110979926Y-121194819D01*
X114785107Y-135468893D02*
X113370893Y-136883107D01*
X129059181Y-139147074D02*
X129576819Y-141078926D01*
X139020074Y-128678181D02*
X140951926Y-129195819D01*
D17*
X128302000Y-112681000D03*
X137319000Y-121698000D03*
X134017000Y-134017000D03*
X121698000Y-137319000D03*
X112681000Y-128302000D03*
X115983000Y-115983000D03*
D10*
G36*
X105275669Y-114301874D02*
X104065831Y-113603374D01*
X104764331Y-112393536D01*
X105974169Y-113092036D01*
X105275669Y-114301874D01*
X105275669Y-114301874D01*
G37*
D18*
X106290000Y-111148000D03*
X107560000Y-108948295D03*
D10*
G36*
X142165831Y-102544626D02*
X143375669Y-101846126D01*
X144074169Y-103055964D01*
X142864331Y-103754464D01*
X142165831Y-102544626D01*
X142165831Y-102544626D01*
G37*
D18*
X144390000Y-105000000D03*
X145660000Y-107199705D03*
D19*
X119244000Y-142644000D03*
D18*
X121784000Y-142644000D03*
X124324000Y-142644000D03*
D20*
X114617500Y-112522000D03*
X116522500Y-112522000D03*
X132524500Y-106045000D03*
X134429500Y-106045000D03*
X125539500Y-145542000D03*
X127444500Y-145542000D03*
D21*
X105791000Y-139595860D03*
D22*
X105791000Y-145595340D03*
X110490000Y-142595600D03*
D23*
X147574000Y-124714000D03*
D24*
X147574000Y-122174000D03*
D23*
X147574000Y-117602000D03*
D24*
X147574000Y-115062000D03*
D10*
G36*
X143313537Y-138392929D02*
X146849071Y-141928463D01*
X144727751Y-144049783D01*
X141192217Y-140514249D01*
X143313537Y-138392929D01*
X143313537Y-138392929D01*
G37*
D16*
X141584661Y-145071553D02*
X140170447Y-143657339D01*
D25*
X124714000Y-108775500D03*
X124714000Y-110680500D03*
X110744000Y-114998500D03*
X110744000Y-113093500D03*
D26*
X116141500Y-139700000D03*
X118046500Y-139700000D03*
D27*
X147500000Y-132500000D03*
X130000000Y-102500000D03*
X125000000Y-102500000D03*
X120000000Y-102500000D03*
X107500000Y-102500000D03*
X102500000Y-102500000D03*
X102500000Y-120000000D03*
X102500000Y-130000000D03*
X124587000Y-111760000D03*
X120000000Y-117500000D03*
X115000000Y-122500000D03*
X135000000Y-147500000D03*
X140000000Y-132500000D03*
X120000000Y-127500000D03*
X130000000Y-132500000D03*
X125000000Y-132500000D03*
X127500000Y-117500000D03*
X132500000Y-120000000D03*
X132500000Y-125000000D03*
X125000000Y-122500000D03*
X140000000Y-117500000D03*
X140000000Y-110000000D03*
X128905000Y-145542000D03*
X117856000Y-112903000D03*
X135890000Y-106426000D03*
X110490000Y-111760000D03*
D28*
X130703000Y-107842000D02*
X132080000Y-107842000D01*
D29*
X132080000Y-111125000D02*
X132080000Y-107823000D01*
X132080000Y-111125000D02*
X135033000Y-114078000D01*
D28*
X132080000Y-107842000D02*
X132080000Y-107823000D01*
D29*
X135922000Y-114078000D02*
X135033000Y-114078000D01*
D28*
X126853000Y-108642000D02*
X124847500Y-108642000D01*
X124847500Y-108642000D02*
X124714000Y-108775500D01*
D29*
X120936000Y-110014000D02*
X121634000Y-110014000D01*
X121634000Y-110014000D02*
X122872500Y-108775500D01*
X122872500Y-108775500D02*
X124714000Y-108775500D01*
D28*
X110744000Y-114998500D02*
X110299500Y-114998500D01*
X110299500Y-114998500D02*
X109220000Y-113919000D01*
X111272000Y-106533000D02*
X111830000Y-106533000D01*
X110998000Y-106807000D02*
X111272000Y-106533000D01*
X110998000Y-110109000D02*
X110998000Y-106807000D01*
X110617000Y-110490000D02*
X110998000Y-110109000D01*
X109982000Y-110490000D02*
X110617000Y-110490000D01*
X109220000Y-111252000D02*
X109982000Y-110490000D01*
X109220000Y-113919000D02*
X109220000Y-111252000D01*
D29*
X110744000Y-114998500D02*
X110744000Y-120206000D01*
X110744000Y-120206000D02*
X110014000Y-120936000D01*
D28*
X116141500Y-139700000D02*
X116141500Y-145351500D01*
X118548000Y-147758000D02*
X119741000Y-147758000D01*
X116141500Y-145351500D02*
X118548000Y-147758000D01*
D29*
X116141500Y-139700000D02*
X116141500Y-138239500D01*
X116141500Y-138239500D02*
X114078000Y-136176000D01*
D28*
X123591000Y-146958000D02*
X124860000Y-146958000D01*
D29*
X129318000Y-143542000D02*
X130556000Y-144780000D01*
X130556000Y-144780000D02*
X130556000Y-146304000D01*
X130556000Y-146304000D02*
X129540000Y-147320000D01*
X129540000Y-147320000D02*
X125222000Y-147320000D01*
X125222000Y-147320000D02*
X124968000Y-147066000D01*
X129318000Y-143542000D02*
X129318000Y-140113000D01*
D28*
X124860000Y-146958000D02*
X124968000Y-147066000D01*
X112649000Y-110402000D02*
X112649000Y-111887000D01*
D29*
X123984000Y-128937000D02*
X139986000Y-128937000D01*
X112649000Y-117602000D02*
X112649000Y-111887000D01*
X123984000Y-128937000D02*
X112649000Y-117602000D01*
D28*
X112649000Y-110402000D02*
X112630000Y-110383000D01*
X120000000Y-102500000D02*
X125000000Y-102500000D01*
X102500000Y-102500000D02*
X107500000Y-102500000D01*
X126853000Y-107842000D02*
X128378000Y-107842000D01*
X128378000Y-107842000D02*
X128778000Y-107442000D01*
X112630000Y-106533000D02*
X112630000Y-108058000D01*
X112630000Y-108058000D02*
X113030000Y-108458000D01*
X119741000Y-146958000D02*
X121266000Y-146958000D01*
X121266000Y-146958000D02*
X121666000Y-146558000D01*
D29*
X118046500Y-139700000D02*
X118110000Y-139700000D01*
X118110000Y-139700000D02*
X119244000Y-140834000D01*
X119244000Y-140834000D02*
X119244000Y-142644000D01*
D28*
X102500000Y-120000000D02*
X102500000Y-130000000D01*
X124587000Y-111760000D02*
X124587000Y-112087000D01*
D29*
X124714000Y-110680500D02*
X124714000Y-111633000D01*
X124714000Y-111633000D02*
X124587000Y-111760000D01*
D28*
X120000000Y-116674000D02*
X120000000Y-117500000D01*
X124587000Y-112087000D02*
X120000000Y-116674000D01*
X125000000Y-132500000D02*
X130000000Y-132500000D01*
X132500000Y-120000000D02*
X132500000Y-125000000D01*
X120000000Y-117500000D02*
X127500000Y-117500000D01*
X135000000Y-120000000D02*
X137500000Y-117500000D01*
X137500000Y-117500000D02*
X140000000Y-117500000D01*
X132500000Y-120000000D02*
X135000000Y-120000000D01*
D30*
X127444500Y-145542000D02*
X128905000Y-145542000D01*
X117475000Y-112522000D02*
X117856000Y-112903000D01*
X116522500Y-112522000D02*
X117475000Y-112522000D01*
X135509000Y-106045000D02*
X135890000Y-106426000D01*
X134429500Y-106045000D02*
X135509000Y-106045000D01*
D29*
X110744000Y-112014000D02*
X110490000Y-111760000D01*
X110744000Y-112014000D02*
X110744000Y-113093500D01*
D28*
X114230000Y-106533000D02*
X114230000Y-105848000D01*
X108054000Y-111148000D02*
X106290000Y-111148000D01*
X110109000Y-109093000D02*
X108054000Y-111148000D01*
X110109000Y-106426000D02*
X110109000Y-109093000D01*
X110998000Y-105537000D02*
X110109000Y-106426000D01*
X113919000Y-105537000D02*
X110998000Y-105537000D01*
X114230000Y-105848000D02*
X113919000Y-105537000D01*
X144390000Y-105000000D02*
X143920000Y-105000000D01*
X143920000Y-105000000D02*
X142875000Y-106045000D01*
X142875000Y-106045000D02*
X139827000Y-106045000D01*
X139827000Y-106045000D02*
X136779000Y-102997000D01*
X136779000Y-102997000D02*
X132588000Y-102997000D01*
X132588000Y-102997000D02*
X130556000Y-105029000D01*
X130556000Y-105029000D02*
X127508000Y-105029000D01*
X127508000Y-105029000D02*
X126853000Y-105684000D01*
X126853000Y-105684000D02*
X126853000Y-106242000D01*
X119741000Y-145358000D02*
X119741000Y-144673000D01*
X119741000Y-144673000D02*
X121770000Y-142644000D01*
X121770000Y-142644000D02*
X121784000Y-142644000D01*
D31*
X105791000Y-131953000D02*
X112649000Y-131953000D01*
X123190000Y-133731000D02*
X125095000Y-135636000D01*
X117983000Y-133731000D02*
X123190000Y-133731000D01*
X116205000Y-131953000D02*
X117983000Y-133731000D01*
X112649000Y-131953000D02*
X116205000Y-131953000D01*
X102108000Y-111252000D02*
X102108000Y-114681000D01*
X104411705Y-108948295D02*
X102108000Y-111252000D01*
X107560000Y-108948295D02*
X104411705Y-108948295D01*
X105791000Y-118364000D02*
X105791000Y-131953000D01*
X105791000Y-131953000D02*
X105791000Y-139595860D01*
X102108000Y-114681000D02*
X105791000Y-118364000D01*
X130429000Y-135636000D02*
X139157446Y-144364446D01*
X125095000Y-135636000D02*
X130429000Y-135636000D01*
X139157446Y-144364446D02*
X140877554Y-144364446D01*
X140877554Y-144364446D02*
X139157446Y-144364446D01*
D29*
X145660000Y-107199705D02*
X139203705Y-107199705D01*
X132524500Y-104711500D02*
X132524500Y-106045000D01*
X133096000Y-104140000D02*
X132524500Y-104711500D01*
X136144000Y-104140000D02*
X133096000Y-104140000D01*
X139203705Y-107199705D02*
X136144000Y-104140000D01*
D28*
X130703000Y-106242000D02*
X132327500Y-106242000D01*
X132327500Y-106242000D02*
X132524500Y-106045000D01*
D29*
X124324000Y-142644000D02*
X124324000Y-142866000D01*
X124324000Y-142866000D02*
X125539500Y-144081500D01*
X125539500Y-144081500D02*
X125539500Y-145542000D01*
D28*
X114230000Y-110383000D02*
X114230000Y-110547000D01*
X114230000Y-110547000D02*
X114935000Y-111252000D01*
X114935000Y-111252000D02*
X114617500Y-111252000D01*
D29*
X115824000Y-109601000D02*
X115824000Y-110363000D01*
X108221705Y-108948295D02*
X108839000Y-108331000D01*
X115824000Y-105664000D02*
X115824000Y-109601000D01*
X114554000Y-104394000D02*
X115824000Y-105664000D01*
X110363000Y-104394000D02*
X114554000Y-104394000D01*
X108839000Y-105918000D02*
X110363000Y-104394000D01*
X108839000Y-108331000D02*
X108839000Y-105918000D01*
X114617500Y-111569500D02*
X114617500Y-111252000D01*
X114617500Y-111252000D02*
X114617500Y-112522000D01*
X115824000Y-110363000D02*
X114617500Y-111569500D01*
X107560000Y-108948295D02*
X108221705Y-108948295D01*
D28*
X123591000Y-145358000D02*
X125355500Y-145358000D01*
X125355500Y-145358000D02*
X125539500Y-145542000D01*
X114230000Y-112134500D02*
X114617500Y-112522000D01*
D31*
X140877554Y-144364446D02*
X140554446Y-144364446D01*
X140554446Y-144364446D02*
X138430000Y-142240000D01*
X138430000Y-142240000D02*
X138430000Y-139954000D01*
X138430000Y-139954000D02*
X144526000Y-133858000D01*
X144526000Y-133858000D02*
X144526000Y-123444000D01*
X144526000Y-123444000D02*
X145796000Y-122174000D01*
X145796000Y-122174000D02*
X147574000Y-122174000D01*
X145660000Y-107199705D02*
X145660000Y-113148000D01*
X145660000Y-113148000D02*
X147574000Y-115062000D01*
X147574000Y-115062000D02*
X145542000Y-115062000D01*
X145796000Y-122174000D02*
X147574000Y-122174000D01*
X144526000Y-120904000D02*
X145796000Y-122174000D01*
X144526000Y-116078000D02*
X144526000Y-120904000D01*
X145542000Y-115062000D02*
X144526000Y-116078000D01*
D29*
X124324000Y-140344000D02*
X125095000Y-139573000D01*
X125095000Y-139573000D02*
X125095000Y-135636000D01*
X124324000Y-142644000D02*
X124324000Y-140344000D01*
D32*
G36*
X109609000Y-118617165D02*
X109541327Y-118599033D01*
X108710075Y-118544550D01*
X107921249Y-118812321D01*
X107426000Y-119246642D01*
X107426000Y-118364005D01*
X107426000Y-118364000D01*
X107426001Y-118364000D01*
X107301543Y-117738313D01*
X106947120Y-117207881D01*
X106947120Y-117207880D01*
X106947116Y-117207877D01*
X103743000Y-114003760D01*
X103743000Y-111929239D01*
X105074664Y-110597575D01*
X104956732Y-110881587D01*
X104956269Y-111412086D01*
X105158854Y-111902380D01*
X105533647Y-112277827D01*
X106023587Y-112481268D01*
X106554086Y-112481731D01*
X107044380Y-112279146D01*
X107290955Y-112033000D01*
X108053994Y-112033000D01*
X108054000Y-112033001D01*
X108054000Y-112033000D01*
X108335000Y-111977105D01*
X108335000Y-113918994D01*
X108334999Y-113919000D01*
X108391189Y-114201484D01*
X108402367Y-114257675D01*
X108594210Y-114544790D01*
X109410500Y-115361079D01*
X109410500Y-115569309D01*
X109507173Y-115802698D01*
X109609000Y-115904525D01*
X109609000Y-118617165D01*
X109609000Y-118617165D01*
G37*
X109609000Y-118617165D02*
X109541327Y-118599033D01*
X108710075Y-118544550D01*
X107921249Y-118812321D01*
X107426000Y-119246642D01*
X107426000Y-118364005D01*
X107426000Y-118364000D01*
X107426001Y-118364000D01*
X107301543Y-117738313D01*
X106947120Y-117207881D01*
X106947120Y-117207880D01*
X106947116Y-117207877D01*
X103743000Y-114003760D01*
X103743000Y-111929239D01*
X105074664Y-110597575D01*
X104956732Y-110881587D01*
X104956269Y-111412086D01*
X105158854Y-111902380D01*
X105533647Y-112277827D01*
X106023587Y-112481268D01*
X106554086Y-112481731D01*
X107044380Y-112279146D01*
X107290955Y-112033000D01*
X108053994Y-112033000D01*
X108054000Y-112033001D01*
X108054000Y-112033000D01*
X108335000Y-111977105D01*
X108335000Y-113918994D01*
X108334999Y-113919000D01*
X108391189Y-114201484D01*
X108402367Y-114257675D01*
X108594210Y-114544790D01*
X109410500Y-115361079D01*
X109410500Y-115569309D01*
X109507173Y-115802698D01*
X109609000Y-115904525D01*
X109609000Y-118617165D01*
G36*
X111592371Y-111493000D02*
X111514000Y-111887000D01*
X111514000Y-112014000D01*
X111316191Y-112014000D01*
X111029750Y-112014000D01*
X110871000Y-112172750D01*
X110871000Y-112966500D01*
X110891000Y-112966500D01*
X110891000Y-113220500D01*
X110871000Y-113220500D01*
X110871000Y-113240500D01*
X110617000Y-113240500D01*
X110617000Y-113220500D01*
X110597000Y-113220500D01*
X110597000Y-112966500D01*
X110617000Y-112966500D01*
X110617000Y-112172750D01*
X110458250Y-112014000D01*
X110171809Y-112014000D01*
X110105000Y-112014000D01*
X110105000Y-111618579D01*
X110348579Y-111375000D01*
X110616994Y-111375000D01*
X110617000Y-111375001D01*
X110617000Y-111375000D01*
X110899484Y-111318810D01*
X110955674Y-111307633D01*
X110955675Y-111307633D01*
X111110950Y-111203882D01*
X111116673Y-111217698D01*
X111295301Y-111396327D01*
X111528690Y-111493000D01*
X111592371Y-111493000D01*
X111592371Y-111493000D01*
G37*
X111592371Y-111493000D02*
X111514000Y-111887000D01*
X111514000Y-112014000D01*
X111316191Y-112014000D01*
X111029750Y-112014000D01*
X110871000Y-112172750D01*
X110871000Y-112966500D01*
X110891000Y-112966500D01*
X110891000Y-113220500D01*
X110871000Y-113220500D01*
X110871000Y-113240500D01*
X110617000Y-113240500D01*
X110617000Y-113220500D01*
X110597000Y-113220500D01*
X110597000Y-112966500D01*
X110617000Y-112966500D01*
X110617000Y-112172750D01*
X110458250Y-112014000D01*
X110171809Y-112014000D01*
X110105000Y-112014000D01*
X110105000Y-111618579D01*
X110348579Y-111375000D01*
X110616994Y-111375000D01*
X110617000Y-111375001D01*
X110617000Y-111375000D01*
X110899484Y-111318810D01*
X110955674Y-111307633D01*
X110955675Y-111307633D01*
X111110950Y-111203882D01*
X111116673Y-111217698D01*
X111295301Y-111396327D01*
X111528690Y-111493000D01*
X111592371Y-111493000D01*
G36*
X114689000Y-109338317D02*
X114531310Y-109273000D01*
X114278691Y-109273000D01*
X113928691Y-109273000D01*
X113830000Y-109313878D01*
X113731310Y-109273000D01*
X113478691Y-109273000D01*
X113128691Y-109273000D01*
X113030000Y-109313878D01*
X112931310Y-109273000D01*
X112678691Y-109273000D01*
X112328691Y-109273000D01*
X112230000Y-109313878D01*
X112131310Y-109273000D01*
X111883000Y-109273000D01*
X111883000Y-107643000D01*
X112131309Y-107643000D01*
X112364698Y-107546327D01*
X112543327Y-107367699D01*
X112630000Y-107158451D01*
X112716673Y-107367698D01*
X112895301Y-107546327D01*
X113128690Y-107643000D01*
X113381309Y-107643000D01*
X113731309Y-107643000D01*
X113829999Y-107602121D01*
X113928690Y-107643000D01*
X114181309Y-107643000D01*
X114531309Y-107643000D01*
X114689000Y-107577682D01*
X114689000Y-109338317D01*
X114689000Y-109338317D01*
G37*
X114689000Y-109338317D02*
X114531310Y-109273000D01*
X114278691Y-109273000D01*
X113928691Y-109273000D01*
X113830000Y-109313878D01*
X113731310Y-109273000D01*
X113478691Y-109273000D01*
X113128691Y-109273000D01*
X113030000Y-109313878D01*
X112931310Y-109273000D01*
X112678691Y-109273000D01*
X112328691Y-109273000D01*
X112230000Y-109313878D01*
X112131310Y-109273000D01*
X111883000Y-109273000D01*
X111883000Y-107643000D01*
X112131309Y-107643000D01*
X112364698Y-107546327D01*
X112543327Y-107367699D01*
X112630000Y-107158451D01*
X112716673Y-107367698D01*
X112895301Y-107546327D01*
X113128690Y-107643000D01*
X113381309Y-107643000D01*
X113731309Y-107643000D01*
X113829999Y-107602121D01*
X113928690Y-107643000D01*
X114181309Y-107643000D01*
X114531309Y-107643000D01*
X114689000Y-107577682D01*
X114689000Y-109338317D01*
G36*
X123960000Y-139102868D02*
X123521434Y-139541434D01*
X123275397Y-139909654D01*
X123189000Y-140344000D01*
X123189000Y-141900104D01*
X123053906Y-142225446D01*
X122915146Y-141889620D01*
X122540353Y-141514173D01*
X122050413Y-141310732D01*
X121519914Y-141310269D01*
X121029620Y-141512854D01*
X120654173Y-141887647D01*
X120450732Y-142377587D01*
X120450440Y-142711980D01*
X119126000Y-144036420D01*
X119126000Y-140524810D01*
X119126000Y-140272191D01*
X119126000Y-139985750D01*
X119126000Y-139414250D01*
X119126000Y-139127809D01*
X119126000Y-138875190D01*
X119029327Y-138641801D01*
X118850698Y-138463173D01*
X118617309Y-138366500D01*
X118332250Y-138366500D01*
X118173500Y-138525250D01*
X118173500Y-139573000D01*
X118967250Y-139573000D01*
X119126000Y-139414250D01*
X119126000Y-139985750D01*
X118967250Y-139827000D01*
X118173500Y-139827000D01*
X118173500Y-140874750D01*
X118332250Y-141033500D01*
X118617309Y-141033500D01*
X118850698Y-140936827D01*
X119029327Y-140758199D01*
X119126000Y-140524810D01*
X119126000Y-144036420D01*
X119115210Y-144047210D01*
X118923367Y-144334325D01*
X118912189Y-144390515D01*
X118855999Y-144673000D01*
X118856000Y-144673005D01*
X118856000Y-144694974D01*
X118727673Y-144823301D01*
X118631000Y-145056690D01*
X118631000Y-145309309D01*
X118631000Y-145659309D01*
X118671878Y-145757999D01*
X118631000Y-145856690D01*
X118631000Y-146109309D01*
X118631000Y-146459309D01*
X118723003Y-146681423D01*
X117026500Y-144984920D01*
X117026500Y-140856025D01*
X117094000Y-140788525D01*
X117242302Y-140936827D01*
X117475691Y-141033500D01*
X117760750Y-141033500D01*
X117919500Y-140874750D01*
X117919500Y-139827000D01*
X117899500Y-139827000D01*
X117899500Y-139573000D01*
X117919500Y-139573000D01*
X117919500Y-138525250D01*
X117760750Y-138366500D01*
X117475691Y-138366500D01*
X117276500Y-138449007D01*
X117276500Y-138239500D01*
X117190104Y-137805155D01*
X117190103Y-137805154D01*
X116944066Y-137436934D01*
X116379889Y-136872757D01*
X116801019Y-136242494D01*
X116963536Y-135425464D01*
X116860985Y-134909908D01*
X117357313Y-135241543D01*
X117983000Y-135366001D01*
X117983000Y-135366000D01*
X117983005Y-135366000D01*
X120349337Y-135366000D01*
X119719638Y-135994602D01*
X119363407Y-136852502D01*
X119362596Y-137781422D01*
X119717329Y-138639943D01*
X120373602Y-139297362D01*
X121231502Y-139653593D01*
X122160422Y-139654404D01*
X123018943Y-139299671D01*
X123676362Y-138643398D01*
X123960000Y-137960321D01*
X123960000Y-139102868D01*
X123960000Y-139102868D01*
G37*
X123960000Y-139102868D02*
X123521434Y-139541434D01*
X123275397Y-139909654D01*
X123189000Y-140344000D01*
X123189000Y-141900104D01*
X123053906Y-142225446D01*
X122915146Y-141889620D01*
X122540353Y-141514173D01*
X122050413Y-141310732D01*
X121519914Y-141310269D01*
X121029620Y-141512854D01*
X120654173Y-141887647D01*
X120450732Y-142377587D01*
X120450440Y-142711980D01*
X119126000Y-144036420D01*
X119126000Y-140524810D01*
X119126000Y-140272191D01*
X119126000Y-139985750D01*
X119126000Y-139414250D01*
X119126000Y-139127809D01*
X119126000Y-138875190D01*
X119029327Y-138641801D01*
X118850698Y-138463173D01*
X118617309Y-138366500D01*
X118332250Y-138366500D01*
X118173500Y-138525250D01*
X118173500Y-139573000D01*
X118967250Y-139573000D01*
X119126000Y-139414250D01*
X119126000Y-139985750D01*
X118967250Y-139827000D01*
X118173500Y-139827000D01*
X118173500Y-140874750D01*
X118332250Y-141033500D01*
X118617309Y-141033500D01*
X118850698Y-140936827D01*
X119029327Y-140758199D01*
X119126000Y-140524810D01*
X119126000Y-144036420D01*
X119115210Y-144047210D01*
X118923367Y-144334325D01*
X118912189Y-144390515D01*
X118855999Y-144673000D01*
X118856000Y-144673005D01*
X118856000Y-144694974D01*
X118727673Y-144823301D01*
X118631000Y-145056690D01*
X118631000Y-145309309D01*
X118631000Y-145659309D01*
X118671878Y-145757999D01*
X118631000Y-145856690D01*
X118631000Y-146109309D01*
X118631000Y-146459309D01*
X118723003Y-146681423D01*
X117026500Y-144984920D01*
X117026500Y-140856025D01*
X117094000Y-140788525D01*
X117242302Y-140936827D01*
X117475691Y-141033500D01*
X117760750Y-141033500D01*
X117919500Y-140874750D01*
X117919500Y-139827000D01*
X117899500Y-139827000D01*
X117899500Y-139573000D01*
X117919500Y-139573000D01*
X117919500Y-138525250D01*
X117760750Y-138366500D01*
X117475691Y-138366500D01*
X117276500Y-138449007D01*
X117276500Y-138239500D01*
X117190104Y-137805155D01*
X117190103Y-137805154D01*
X116944066Y-137436934D01*
X116379889Y-136872757D01*
X116801019Y-136242494D01*
X116963536Y-135425464D01*
X116860985Y-134909908D01*
X117357313Y-135241543D01*
X117983000Y-135366001D01*
X117983000Y-135366000D01*
X117983005Y-135366000D01*
X120349337Y-135366000D01*
X119719638Y-135994602D01*
X119363407Y-136852502D01*
X119362596Y-137781422D01*
X119717329Y-138639943D01*
X120373602Y-139297362D01*
X121231502Y-139653593D01*
X122160422Y-139654404D01*
X123018943Y-139299671D01*
X123676362Y-138643398D01*
X123960000Y-137960321D01*
X123960000Y-139102868D01*
G36*
X129421000Y-145833868D02*
X129069868Y-146185000D01*
X128729740Y-146185000D01*
X128729740Y-146164991D01*
X128729740Y-145827750D01*
X128570990Y-145669000D01*
X127571500Y-145669000D01*
X127571500Y-145689000D01*
X127317500Y-145689000D01*
X127317500Y-145669000D01*
X127297500Y-145669000D01*
X127297500Y-145415000D01*
X127317500Y-145415000D01*
X127317500Y-144316450D01*
X127158750Y-144157700D01*
X126674500Y-144157700D01*
X126674500Y-144081500D01*
X126588104Y-143647155D01*
X126588103Y-143647154D01*
X126342066Y-143278934D01*
X125657543Y-142594411D01*
X125657731Y-142379914D01*
X125459000Y-141898947D01*
X125459000Y-140814132D01*
X125897566Y-140375566D01*
X126143603Y-140007346D01*
X126143604Y-140007345D01*
X126230000Y-139573000D01*
X126230000Y-137271000D01*
X127992875Y-137271000D01*
X127743580Y-137393939D01*
X127194321Y-138020249D01*
X126926550Y-138809075D01*
X126981033Y-139640327D01*
X127530463Y-141690830D01*
X127898905Y-142437957D01*
X128183000Y-142687101D01*
X128183000Y-143542000D01*
X128269397Y-143976346D01*
X128456640Y-144256575D01*
X128454438Y-144254373D01*
X128221049Y-144157700D01*
X127730250Y-144157700D01*
X127571500Y-144316450D01*
X127571500Y-145415000D01*
X128570990Y-145415000D01*
X128729740Y-145256250D01*
X128729740Y-144919009D01*
X128729740Y-144666390D01*
X128653713Y-144482845D01*
X129421000Y-145250132D01*
X129421000Y-145833868D01*
X129421000Y-145833868D01*
G37*
X129421000Y-145833868D02*
X129069868Y-146185000D01*
X128729740Y-146185000D01*
X128729740Y-146164991D01*
X128729740Y-145827750D01*
X128570990Y-145669000D01*
X127571500Y-145669000D01*
X127571500Y-145689000D01*
X127317500Y-145689000D01*
X127317500Y-145669000D01*
X127297500Y-145669000D01*
X127297500Y-145415000D01*
X127317500Y-145415000D01*
X127317500Y-144316450D01*
X127158750Y-144157700D01*
X126674500Y-144157700D01*
X126674500Y-144081500D01*
X126588104Y-143647155D01*
X126588103Y-143647154D01*
X126342066Y-143278934D01*
X125657543Y-142594411D01*
X125657731Y-142379914D01*
X125459000Y-141898947D01*
X125459000Y-140814132D01*
X125897566Y-140375566D01*
X126143603Y-140007346D01*
X126143604Y-140007345D01*
X126230000Y-139573000D01*
X126230000Y-137271000D01*
X127992875Y-137271000D01*
X127743580Y-137393939D01*
X127194321Y-138020249D01*
X126926550Y-138809075D01*
X126981033Y-139640327D01*
X127530463Y-141690830D01*
X127898905Y-142437957D01*
X128183000Y-142687101D01*
X128183000Y-143542000D01*
X128269397Y-143976346D01*
X128456640Y-144256575D01*
X128454438Y-144254373D01*
X128221049Y-144157700D01*
X127730250Y-144157700D01*
X127571500Y-144316450D01*
X127571500Y-145415000D01*
X128570990Y-145415000D01*
X128729740Y-145256250D01*
X128729740Y-144919009D01*
X128729740Y-144666390D01*
X128653713Y-144482845D01*
X129421000Y-145250132D01*
X129421000Y-145833868D01*
G36*
X142891000Y-133180760D02*
X137273880Y-138797880D01*
X136919457Y-139328312D01*
X136838839Y-139733600D01*
X133390319Y-136285079D01*
X133550502Y-136351593D01*
X134479422Y-136352404D01*
X135337943Y-135997671D01*
X135995362Y-135341398D01*
X136351593Y-134483498D01*
X136352404Y-133554578D01*
X135997671Y-132696057D01*
X135341398Y-132038638D01*
X134483498Y-131682407D01*
X133554578Y-131681596D01*
X132696057Y-132036329D01*
X132038638Y-132692602D01*
X131682407Y-133550502D01*
X131681596Y-134479422D01*
X131749850Y-134644610D01*
X131585120Y-134479880D01*
X131054688Y-134125457D01*
X130429000Y-134000999D01*
X130428994Y-134001000D01*
X125772239Y-134001000D01*
X124346120Y-132574880D01*
X123815688Y-132220457D01*
X123190000Y-132095999D01*
X123189994Y-132096000D01*
X118660239Y-132096000D01*
X117361120Y-130796880D01*
X116830688Y-130442457D01*
X116205000Y-130317999D01*
X116204994Y-130318000D01*
X113916440Y-130318000D01*
X114001943Y-130282671D01*
X114659362Y-129626398D01*
X115015593Y-128768498D01*
X115016404Y-127839578D01*
X114661671Y-126981057D01*
X114005398Y-126323638D01*
X113147498Y-125967407D01*
X112218578Y-125966596D01*
X111360057Y-126321329D01*
X110702638Y-126977602D01*
X110346407Y-127835502D01*
X110345596Y-128764422D01*
X110700329Y-129622943D01*
X111356602Y-130280362D01*
X111447244Y-130318000D01*
X107426000Y-130318000D01*
X107426000Y-122055150D01*
X107689044Y-122355095D01*
X108436171Y-122723537D01*
X110486673Y-123272967D01*
X111317925Y-123327450D01*
X112106752Y-123059679D01*
X112733061Y-122510420D01*
X113101503Y-121763293D01*
X113155986Y-120932041D01*
X112888215Y-120143215D01*
X112338957Y-119516905D01*
X111879000Y-119290079D01*
X111879000Y-118437132D01*
X123181434Y-129739566D01*
X123549654Y-129985603D01*
X123549655Y-129985603D01*
X123984000Y-130072000D01*
X137411899Y-130072000D01*
X137661044Y-130356095D01*
X138408171Y-130724537D01*
X140458673Y-131273967D01*
X141289925Y-131328450D01*
X142078752Y-131060679D01*
X142705061Y-130511420D01*
X142891000Y-130134372D01*
X142891000Y-133180760D01*
X142891000Y-133180760D01*
G37*
X142891000Y-133180760D02*
X137273880Y-138797880D01*
X136919457Y-139328312D01*
X136838839Y-139733600D01*
X133390319Y-136285079D01*
X133550502Y-136351593D01*
X134479422Y-136352404D01*
X135337943Y-135997671D01*
X135995362Y-135341398D01*
X136351593Y-134483498D01*
X136352404Y-133554578D01*
X135997671Y-132696057D01*
X135341398Y-132038638D01*
X134483498Y-131682407D01*
X133554578Y-131681596D01*
X132696057Y-132036329D01*
X132038638Y-132692602D01*
X131682407Y-133550502D01*
X131681596Y-134479422D01*
X131749850Y-134644610D01*
X131585120Y-134479880D01*
X131054688Y-134125457D01*
X130429000Y-134000999D01*
X130428994Y-134001000D01*
X125772239Y-134001000D01*
X124346120Y-132574880D01*
X123815688Y-132220457D01*
X123190000Y-132095999D01*
X123189994Y-132096000D01*
X118660239Y-132096000D01*
X117361120Y-130796880D01*
X116830688Y-130442457D01*
X116205000Y-130317999D01*
X116204994Y-130318000D01*
X113916440Y-130318000D01*
X114001943Y-130282671D01*
X114659362Y-129626398D01*
X115015593Y-128768498D01*
X115016404Y-127839578D01*
X114661671Y-126981057D01*
X114005398Y-126323638D01*
X113147498Y-125967407D01*
X112218578Y-125966596D01*
X111360057Y-126321329D01*
X110702638Y-126977602D01*
X110346407Y-127835502D01*
X110345596Y-128764422D01*
X110700329Y-129622943D01*
X111356602Y-130280362D01*
X111447244Y-130318000D01*
X107426000Y-130318000D01*
X107426000Y-122055150D01*
X107689044Y-122355095D01*
X108436171Y-122723537D01*
X110486673Y-123272967D01*
X111317925Y-123327450D01*
X112106752Y-123059679D01*
X112733061Y-122510420D01*
X113101503Y-121763293D01*
X113155986Y-120932041D01*
X112888215Y-120143215D01*
X112338957Y-119516905D01*
X111879000Y-119290079D01*
X111879000Y-118437132D01*
X123181434Y-129739566D01*
X123549654Y-129985603D01*
X123549655Y-129985603D01*
X123984000Y-130072000D01*
X137411899Y-130072000D01*
X137661044Y-130356095D01*
X138408171Y-130724537D01*
X140458673Y-131273967D01*
X141289925Y-131328450D01*
X142078752Y-131060679D01*
X142705061Y-130511420D01*
X142891000Y-130134372D01*
X142891000Y-133180760D01*
G36*
X149315000Y-149315000D02*
X148619412Y-149315000D01*
X148619412Y-144759072D01*
X148371022Y-144157924D01*
X147911491Y-143697589D01*
X147310776Y-143448151D01*
X146660333Y-143447583D01*
X146059185Y-143695973D01*
X145598850Y-144155504D01*
X145349412Y-144756219D01*
X145348844Y-145406662D01*
X145487016Y-145741062D01*
X145155515Y-145603412D01*
X144505072Y-145602844D01*
X143903924Y-145851234D01*
X143443589Y-146310765D01*
X143194151Y-146911480D01*
X143193583Y-147561923D01*
X143441973Y-148163071D01*
X143901504Y-148623406D01*
X144502219Y-148872844D01*
X145152662Y-148873412D01*
X145753810Y-148625022D01*
X146214145Y-148165491D01*
X146463583Y-147564776D01*
X146464151Y-146914333D01*
X146325978Y-146579932D01*
X146657480Y-146717583D01*
X147307923Y-146718151D01*
X147909071Y-146469761D01*
X148369406Y-146010230D01*
X148618844Y-145409515D01*
X148619412Y-144759072D01*
X148619412Y-149315000D01*
X100685000Y-149315000D01*
X100685000Y-115437705D01*
X100951880Y-115837120D01*
X104156000Y-119041239D01*
X104156000Y-131953000D01*
X104156000Y-136608853D01*
X103876057Y-136724523D01*
X102923010Y-137675908D01*
X102406589Y-138919588D01*
X102405414Y-140266224D01*
X102919663Y-141510803D01*
X103871048Y-142463850D01*
X105114728Y-142980271D01*
X106461364Y-142981446D01*
X107705943Y-142467197D01*
X108658990Y-141515812D01*
X109175411Y-140272132D01*
X109176586Y-138925496D01*
X108662337Y-137680917D01*
X107710952Y-136727870D01*
X107426000Y-136609547D01*
X107426000Y-133588000D01*
X112649000Y-133588000D01*
X113809436Y-133588000D01*
X113318863Y-133915791D01*
X111817791Y-135416863D01*
X111354981Y-136109507D01*
X111192464Y-136926536D01*
X111354981Y-137743565D01*
X111817791Y-138436209D01*
X112510435Y-138899019D01*
X113327464Y-139061536D01*
X114144493Y-138899019D01*
X114774757Y-138477889D01*
X115006500Y-138709632D01*
X115006500Y-139700000D01*
X115062000Y-139979016D01*
X115062000Y-140524809D01*
X115158673Y-140758198D01*
X115256500Y-140856025D01*
X115256500Y-145351494D01*
X115256499Y-145351500D01*
X115312689Y-145633984D01*
X115323867Y-145690175D01*
X115515710Y-145977290D01*
X117922207Y-148383786D01*
X117922210Y-148383790D01*
X117922211Y-148383790D01*
X118209325Y-148575633D01*
X118209326Y-148575633D01*
X118265515Y-148586810D01*
X118548000Y-148643001D01*
X118548000Y-148643000D01*
X118548005Y-148643000D01*
X119741000Y-148643000D01*
X120079675Y-148575633D01*
X120091098Y-148568000D01*
X120342309Y-148568000D01*
X120575698Y-148471327D01*
X120754327Y-148292699D01*
X120851000Y-148059310D01*
X120851000Y-147806691D01*
X120851000Y-147456691D01*
X120754327Y-147223302D01*
X120575699Y-147044673D01*
X120366451Y-146957999D01*
X120575698Y-146871327D01*
X120754327Y-146692699D01*
X120851000Y-146459310D01*
X120851000Y-146206691D01*
X120851000Y-145856691D01*
X120810121Y-145758000D01*
X120851000Y-145659310D01*
X120851000Y-145406691D01*
X120851000Y-145056691D01*
X120780087Y-144885492D01*
X121688162Y-143977416D01*
X122048086Y-143977731D01*
X122538380Y-143775146D01*
X122913827Y-143400353D01*
X123054093Y-143062553D01*
X123192854Y-143398380D01*
X123567647Y-143773827D01*
X123668624Y-143815756D01*
X124325868Y-144473000D01*
X123591000Y-144473000D01*
X123252325Y-144540367D01*
X123240901Y-144548000D01*
X122989691Y-144548000D01*
X122756302Y-144644673D01*
X122577673Y-144823301D01*
X122481000Y-145056690D01*
X122481000Y-145309309D01*
X122481000Y-145659309D01*
X122521878Y-145757999D01*
X122481000Y-145856690D01*
X122481000Y-146109309D01*
X122481000Y-146459309D01*
X122521878Y-146557999D01*
X122481000Y-146656690D01*
X122481000Y-146909309D01*
X122481000Y-147259309D01*
X122521878Y-147357999D01*
X122481000Y-147456690D01*
X122481000Y-147709309D01*
X122481000Y-148059309D01*
X122577673Y-148292698D01*
X122756301Y-148471327D01*
X122989690Y-148568000D01*
X123242309Y-148568000D01*
X124192309Y-148568000D01*
X124425698Y-148471327D01*
X124604327Y-148292699D01*
X124619442Y-148256207D01*
X124787654Y-148368603D01*
X124787655Y-148368603D01*
X125222000Y-148455000D01*
X129540000Y-148455000D01*
X129974345Y-148368603D01*
X129974346Y-148368603D01*
X130342566Y-148122566D01*
X131358566Y-147106566D01*
X131604603Y-146738346D01*
X131604603Y-146738345D01*
X131691000Y-146304000D01*
X131691000Y-144780000D01*
X131604603Y-144345654D01*
X131358566Y-143977434D01*
X130453000Y-143071868D01*
X130453000Y-143048758D01*
X130892420Y-142832061D01*
X131441679Y-142205752D01*
X131709450Y-141416925D01*
X131654967Y-140585673D01*
X131138334Y-138657574D01*
X138001323Y-145520562D01*
X138001326Y-145520566D01*
X138001327Y-145520566D01*
X138531759Y-145874989D01*
X139157446Y-145999447D01*
X139157446Y-145999446D01*
X139157451Y-145999446D01*
X139493208Y-145999446D01*
X140118417Y-146624655D01*
X140811060Y-147087465D01*
X141628090Y-147249982D01*
X142445119Y-147087465D01*
X143137763Y-146624655D01*
X143600573Y-145932011D01*
X143763090Y-145114982D01*
X143600573Y-144297952D01*
X143137763Y-143605309D01*
X141636691Y-142104237D01*
X140944047Y-141641427D01*
X140127018Y-141478910D01*
X140065000Y-141491246D01*
X140065000Y-140631239D01*
X145682116Y-135014122D01*
X145682120Y-135014120D01*
X145682120Y-135014119D01*
X145859331Y-134748903D01*
X146036543Y-134483688D01*
X146036543Y-134483687D01*
X146161000Y-133858000D01*
X146161001Y-133858000D01*
X146161000Y-133857994D01*
X146161000Y-124121239D01*
X146473239Y-123809000D01*
X147330953Y-123809000D01*
X147574000Y-123857345D01*
X148205810Y-123731670D01*
X148741433Y-123373778D01*
X149099325Y-122838155D01*
X149225000Y-122206345D01*
X149225000Y-122141655D01*
X149099325Y-121509845D01*
X148741433Y-120974222D01*
X148205810Y-120616330D01*
X147574000Y-120490655D01*
X147330953Y-120539000D01*
X146473239Y-120539000D01*
X146161000Y-120226760D01*
X146161000Y-116755240D01*
X146219240Y-116697000D01*
X147330953Y-116697000D01*
X147574000Y-116745345D01*
X148205810Y-116619670D01*
X148741433Y-116261778D01*
X149099325Y-115726155D01*
X149225000Y-115094345D01*
X149225000Y-115029655D01*
X149099325Y-114397845D01*
X148741433Y-113862222D01*
X148575765Y-113751526D01*
X147295000Y-112470760D01*
X147295000Y-107199705D01*
X147170543Y-106574018D01*
X146816120Y-106043585D01*
X146285687Y-105689162D01*
X145660000Y-105564705D01*
X145593950Y-105577842D01*
X145723268Y-105266413D01*
X145723731Y-104735914D01*
X145521146Y-104245620D01*
X145146353Y-103870173D01*
X144656413Y-103666732D01*
X144125914Y-103666269D01*
X143635620Y-103868854D01*
X143260173Y-104243647D01*
X143143291Y-104525129D01*
X142508420Y-105160000D01*
X140193579Y-105160000D01*
X137404790Y-102371210D01*
X137117675Y-102179367D01*
X137061484Y-102168189D01*
X136779000Y-102111999D01*
X136778994Y-102112000D01*
X132588005Y-102112000D01*
X132588000Y-102111999D01*
X132305515Y-102168189D01*
X132249325Y-102179367D01*
X131962210Y-102371210D01*
X131962207Y-102371213D01*
X130189420Y-104144000D01*
X127508005Y-104144000D01*
X127508000Y-104143999D01*
X127225515Y-104200189D01*
X127169325Y-104211367D01*
X126882210Y-104403210D01*
X126882207Y-104403213D01*
X126227210Y-105058210D01*
X126035367Y-105345325D01*
X126024189Y-105401515D01*
X125994077Y-105552897D01*
X125839673Y-105707301D01*
X125743000Y-105940690D01*
X125743000Y-106193309D01*
X125743000Y-106543309D01*
X125783878Y-106641999D01*
X125743000Y-106740690D01*
X125743000Y-106993309D01*
X125743000Y-107343309D01*
X125839673Y-107576698D01*
X126018301Y-107755327D01*
X126022339Y-107757000D01*
X125686076Y-107757000D01*
X125538810Y-107696000D01*
X125286191Y-107696000D01*
X124993016Y-107696000D01*
X124714000Y-107640500D01*
X122872500Y-107640500D01*
X122438154Y-107726897D01*
X122389721Y-107759258D01*
X122355095Y-107689044D01*
X121728785Y-107139785D01*
X120939959Y-106872014D01*
X120108707Y-106926497D01*
X119361580Y-107294939D01*
X118812321Y-107921249D01*
X118544550Y-108710075D01*
X118599033Y-109541327D01*
X119148463Y-111591830D01*
X119516905Y-112338957D01*
X120143215Y-112888215D01*
X120932041Y-113155986D01*
X121763293Y-113101503D01*
X122510420Y-112733061D01*
X123059679Y-112106752D01*
X123327450Y-111317925D01*
X123272967Y-110486673D01*
X123165929Y-110087203D01*
X123342632Y-109910500D01*
X123463007Y-109910500D01*
X123380500Y-110109691D01*
X123380500Y-110394750D01*
X123539250Y-110553500D01*
X124587000Y-110553500D01*
X124587000Y-110533500D01*
X124841000Y-110533500D01*
X124841000Y-110553500D01*
X125888750Y-110553500D01*
X126047500Y-110394750D01*
X126047500Y-110109691D01*
X125950827Y-109876302D01*
X125802525Y-109727999D01*
X125950827Y-109579699D01*
X125972655Y-109527000D01*
X126853000Y-109527000D01*
X127191675Y-109459633D01*
X127203098Y-109452000D01*
X127454309Y-109452000D01*
X127687698Y-109355327D01*
X127866327Y-109176699D01*
X127963000Y-108943310D01*
X127963000Y-108690691D01*
X127963000Y-108340691D01*
X127866327Y-108107302D01*
X127687699Y-107928673D01*
X127478451Y-107841999D01*
X127687698Y-107755327D01*
X127866327Y-107576699D01*
X127963000Y-107343310D01*
X127963000Y-107090691D01*
X127963000Y-106740691D01*
X127922121Y-106642000D01*
X127963000Y-106543310D01*
X127963000Y-106290691D01*
X127963000Y-105940691D01*
X127951944Y-105914000D01*
X129604055Y-105914000D01*
X129593000Y-105940690D01*
X129593000Y-106193309D01*
X129593000Y-106543309D01*
X129633878Y-106641999D01*
X129593000Y-106740690D01*
X129593000Y-106993309D01*
X129593000Y-107343309D01*
X129633878Y-107441999D01*
X129593000Y-107540690D01*
X129593000Y-107793309D01*
X129593000Y-108143309D01*
X129633878Y-108241999D01*
X129593000Y-108340690D01*
X129593000Y-108593309D01*
X129593000Y-108943309D01*
X129689673Y-109176698D01*
X129868301Y-109355327D01*
X130101690Y-109452000D01*
X130354309Y-109452000D01*
X130945000Y-109452000D01*
X130945000Y-111125000D01*
X131031397Y-111559346D01*
X131277434Y-111927566D01*
X133165261Y-113815392D01*
X132555246Y-114425408D01*
X132458573Y-114658797D01*
X132458573Y-114911416D01*
X132555245Y-115144805D01*
X132733874Y-115323434D01*
X134855194Y-117444754D01*
X135088583Y-117541427D01*
X135341202Y-117541427D01*
X135574591Y-117444755D01*
X135753220Y-117266126D01*
X139288754Y-113730592D01*
X139385427Y-113497203D01*
X139385427Y-113244584D01*
X139288755Y-113011195D01*
X139110126Y-112832566D01*
X136988806Y-110711246D01*
X136755417Y-110614573D01*
X136502798Y-110614573D01*
X136269409Y-110711245D01*
X136090780Y-110889874D01*
X135714740Y-111265914D01*
X135714740Y-106920610D01*
X135714740Y-106667991D01*
X135714740Y-106330750D01*
X135555990Y-106172000D01*
X134556500Y-106172000D01*
X134556500Y-107270550D01*
X134715250Y-107429300D01*
X135206049Y-107429300D01*
X135439438Y-107332627D01*
X135618067Y-107153999D01*
X135714740Y-106920610D01*
X135714740Y-111265914D01*
X134770393Y-112210261D01*
X133215000Y-110654868D01*
X133215000Y-107823000D01*
X133136688Y-107429300D01*
X133301049Y-107429300D01*
X133477000Y-107356418D01*
X133652951Y-107429300D01*
X134143750Y-107429300D01*
X134302500Y-107270550D01*
X134302500Y-106172000D01*
X134282500Y-106172000D01*
X134282500Y-105918000D01*
X134302500Y-105918000D01*
X134302500Y-105898000D01*
X134556500Y-105898000D01*
X134556500Y-105918000D01*
X135555990Y-105918000D01*
X135714740Y-105759250D01*
X135714740Y-105422009D01*
X135714740Y-105315872D01*
X138401139Y-108002271D01*
X138769359Y-108248308D01*
X139203705Y-108334705D01*
X144025000Y-108334705D01*
X144025000Y-113147994D01*
X144024999Y-113148000D01*
X144149457Y-113773688D01*
X144297103Y-113994656D01*
X143369880Y-114921880D01*
X143015457Y-115452312D01*
X142890999Y-116078000D01*
X142891000Y-116078005D01*
X142891000Y-120903994D01*
X142890999Y-120904000D01*
X143015457Y-121529688D01*
X143369880Y-122060120D01*
X143483760Y-122173999D01*
X143369880Y-122287880D01*
X143015457Y-122818312D01*
X142890999Y-123444000D01*
X142891000Y-123444005D01*
X142891000Y-128234904D01*
X142860215Y-128144215D01*
X142310957Y-127517905D01*
X141563830Y-127149463D01*
X139654404Y-126637834D01*
X139654404Y-121235578D01*
X139299671Y-120377057D01*
X138643398Y-119719638D01*
X137785498Y-119363407D01*
X136856578Y-119362596D01*
X135998057Y-119717329D01*
X135340638Y-120373602D01*
X134984407Y-121231502D01*
X134983596Y-122160422D01*
X135338329Y-123018943D01*
X135994602Y-123676362D01*
X136852502Y-124032593D01*
X137781422Y-124033404D01*
X138639943Y-123678671D01*
X139297362Y-123022398D01*
X139653593Y-122164498D01*
X139654404Y-121235578D01*
X139654404Y-126637834D01*
X139513327Y-126600033D01*
X138682075Y-126545550D01*
X137893249Y-126813321D01*
X137266939Y-127362580D01*
X137050241Y-127802000D01*
X130637404Y-127802000D01*
X130637404Y-112218578D01*
X130282671Y-111360057D01*
X129626398Y-110702638D01*
X128768498Y-110346407D01*
X127839578Y-110345596D01*
X126981057Y-110700329D01*
X126323638Y-111356602D01*
X126047500Y-112021616D01*
X126047500Y-111251309D01*
X126047500Y-110966250D01*
X125888750Y-110807500D01*
X124841000Y-110807500D01*
X124841000Y-111601250D01*
X124999750Y-111760000D01*
X125286191Y-111760000D01*
X125538810Y-111760000D01*
X125772199Y-111663327D01*
X125950827Y-111484698D01*
X126047500Y-111251309D01*
X126047500Y-112021616D01*
X125967407Y-112214502D01*
X125966596Y-113143422D01*
X126321329Y-114001943D01*
X126977602Y-114659362D01*
X127835502Y-115015593D01*
X128764422Y-115016404D01*
X129622943Y-114661671D01*
X130280362Y-114005398D01*
X130636593Y-113147498D01*
X130637404Y-112218578D01*
X130637404Y-127802000D01*
X124587000Y-127802000D01*
X124587000Y-111601250D01*
X124587000Y-110807500D01*
X123539250Y-110807500D01*
X123380500Y-110966250D01*
X123380500Y-111251309D01*
X123477173Y-111484698D01*
X123655801Y-111663327D01*
X123889190Y-111760000D01*
X124141809Y-111760000D01*
X124428250Y-111760000D01*
X124587000Y-111601250D01*
X124587000Y-127802000D01*
X124454132Y-127802000D01*
X113784000Y-117131868D01*
X113784000Y-116775545D01*
X114002329Y-117303943D01*
X114658602Y-117961362D01*
X115516502Y-118317593D01*
X116445422Y-118318404D01*
X117303943Y-117963671D01*
X117961362Y-117307398D01*
X118317593Y-116449498D01*
X118318404Y-115520578D01*
X117963671Y-114662057D01*
X117307398Y-114004638D01*
X117070573Y-113906300D01*
X117299049Y-113906300D01*
X117532438Y-113809627D01*
X117711067Y-113630999D01*
X117807740Y-113397610D01*
X117807740Y-113144991D01*
X117807740Y-112807750D01*
X117648990Y-112649000D01*
X116649500Y-112649000D01*
X116649500Y-112669000D01*
X116395500Y-112669000D01*
X116395500Y-112649000D01*
X116375500Y-112649000D01*
X116375500Y-112395000D01*
X116395500Y-112395000D01*
X116395500Y-112375000D01*
X116649500Y-112375000D01*
X116649500Y-112395000D01*
X117648990Y-112395000D01*
X117807740Y-112236250D01*
X117807740Y-111899009D01*
X117807740Y-111646390D01*
X117711067Y-111413001D01*
X117532438Y-111234373D01*
X117299049Y-111137700D01*
X116808250Y-111137700D01*
X116649502Y-111296448D01*
X116649502Y-111137700D01*
X116645185Y-111137700D01*
X116872603Y-110797346D01*
X116872604Y-110797345D01*
X116959000Y-110363000D01*
X116959000Y-109601000D01*
X116959000Y-105664000D01*
X116872603Y-105229655D01*
X116872603Y-105229654D01*
X116626566Y-104861434D01*
X115356566Y-103591434D01*
X114988346Y-103345397D01*
X114554000Y-103259000D01*
X110363000Y-103259000D01*
X109928654Y-103345397D01*
X109560433Y-103591434D01*
X108036434Y-105115434D01*
X107790397Y-105483654D01*
X107704000Y-105918000D01*
X107704000Y-107341938D01*
X107560000Y-107313295D01*
X104411710Y-107313295D01*
X104411705Y-107313294D01*
X103786017Y-107437752D01*
X103520801Y-107614963D01*
X103255585Y-107792175D01*
X103255582Y-107792178D01*
X100951880Y-110095880D01*
X100685000Y-110495294D01*
X100685000Y-100685000D01*
X149315000Y-100685000D01*
X149315000Y-149315000D01*
X149315000Y-149315000D01*
G37*
X149315000Y-149315000D02*
X148619412Y-149315000D01*
X148619412Y-144759072D01*
X148371022Y-144157924D01*
X147911491Y-143697589D01*
X147310776Y-143448151D01*
X146660333Y-143447583D01*
X146059185Y-143695973D01*
X145598850Y-144155504D01*
X145349412Y-144756219D01*
X145348844Y-145406662D01*
X145487016Y-145741062D01*
X145155515Y-145603412D01*
X144505072Y-145602844D01*
X143903924Y-145851234D01*
X143443589Y-146310765D01*
X143194151Y-146911480D01*
X143193583Y-147561923D01*
X143441973Y-148163071D01*
X143901504Y-148623406D01*
X144502219Y-148872844D01*
X145152662Y-148873412D01*
X145753810Y-148625022D01*
X146214145Y-148165491D01*
X146463583Y-147564776D01*
X146464151Y-146914333D01*
X146325978Y-146579932D01*
X146657480Y-146717583D01*
X147307923Y-146718151D01*
X147909071Y-146469761D01*
X148369406Y-146010230D01*
X148618844Y-145409515D01*
X148619412Y-144759072D01*
X148619412Y-149315000D01*
X100685000Y-149315000D01*
X100685000Y-115437705D01*
X100951880Y-115837120D01*
X104156000Y-119041239D01*
X104156000Y-131953000D01*
X104156000Y-136608853D01*
X103876057Y-136724523D01*
X102923010Y-137675908D01*
X102406589Y-138919588D01*
X102405414Y-140266224D01*
X102919663Y-141510803D01*
X103871048Y-142463850D01*
X105114728Y-142980271D01*
X106461364Y-142981446D01*
X107705943Y-142467197D01*
X108658990Y-141515812D01*
X109175411Y-140272132D01*
X109176586Y-138925496D01*
X108662337Y-137680917D01*
X107710952Y-136727870D01*
X107426000Y-136609547D01*
X107426000Y-133588000D01*
X112649000Y-133588000D01*
X113809436Y-133588000D01*
X113318863Y-133915791D01*
X111817791Y-135416863D01*
X111354981Y-136109507D01*
X111192464Y-136926536D01*
X111354981Y-137743565D01*
X111817791Y-138436209D01*
X112510435Y-138899019D01*
X113327464Y-139061536D01*
X114144493Y-138899019D01*
X114774757Y-138477889D01*
X115006500Y-138709632D01*
X115006500Y-139700000D01*
X115062000Y-139979016D01*
X115062000Y-140524809D01*
X115158673Y-140758198D01*
X115256500Y-140856025D01*
X115256500Y-145351494D01*
X115256499Y-145351500D01*
X115312689Y-145633984D01*
X115323867Y-145690175D01*
X115515710Y-145977290D01*
X117922207Y-148383786D01*
X117922210Y-148383790D01*
X117922211Y-148383790D01*
X118209325Y-148575633D01*
X118209326Y-148575633D01*
X118265515Y-148586810D01*
X118548000Y-148643001D01*
X118548000Y-148643000D01*
X118548005Y-148643000D01*
X119741000Y-148643000D01*
X120079675Y-148575633D01*
X120091098Y-148568000D01*
X120342309Y-148568000D01*
X120575698Y-148471327D01*
X120754327Y-148292699D01*
X120851000Y-148059310D01*
X120851000Y-147806691D01*
X120851000Y-147456691D01*
X120754327Y-147223302D01*
X120575699Y-147044673D01*
X120366451Y-146957999D01*
X120575698Y-146871327D01*
X120754327Y-146692699D01*
X120851000Y-146459310D01*
X120851000Y-146206691D01*
X120851000Y-145856691D01*
X120810121Y-145758000D01*
X120851000Y-145659310D01*
X120851000Y-145406691D01*
X120851000Y-145056691D01*
X120780087Y-144885492D01*
X121688162Y-143977416D01*
X122048086Y-143977731D01*
X122538380Y-143775146D01*
X122913827Y-143400353D01*
X123054093Y-143062553D01*
X123192854Y-143398380D01*
X123567647Y-143773827D01*
X123668624Y-143815756D01*
X124325868Y-144473000D01*
X123591000Y-144473000D01*
X123252325Y-144540367D01*
X123240901Y-144548000D01*
X122989691Y-144548000D01*
X122756302Y-144644673D01*
X122577673Y-144823301D01*
X122481000Y-145056690D01*
X122481000Y-145309309D01*
X122481000Y-145659309D01*
X122521878Y-145757999D01*
X122481000Y-145856690D01*
X122481000Y-146109309D01*
X122481000Y-146459309D01*
X122521878Y-146557999D01*
X122481000Y-146656690D01*
X122481000Y-146909309D01*
X122481000Y-147259309D01*
X122521878Y-147357999D01*
X122481000Y-147456690D01*
X122481000Y-147709309D01*
X122481000Y-148059309D01*
X122577673Y-148292698D01*
X122756301Y-148471327D01*
X122989690Y-148568000D01*
X123242309Y-148568000D01*
X124192309Y-148568000D01*
X124425698Y-148471327D01*
X124604327Y-148292699D01*
X124619442Y-148256207D01*
X124787654Y-148368603D01*
X124787655Y-148368603D01*
X125222000Y-148455000D01*
X129540000Y-148455000D01*
X129974345Y-148368603D01*
X129974346Y-148368603D01*
X130342566Y-148122566D01*
X131358566Y-147106566D01*
X131604603Y-146738346D01*
X131604603Y-146738345D01*
X131691000Y-146304000D01*
X131691000Y-144780000D01*
X131604603Y-144345654D01*
X131358566Y-143977434D01*
X130453000Y-143071868D01*
X130453000Y-143048758D01*
X130892420Y-142832061D01*
X131441679Y-142205752D01*
X131709450Y-141416925D01*
X131654967Y-140585673D01*
X131138334Y-138657574D01*
X138001323Y-145520562D01*
X138001326Y-145520566D01*
X138001327Y-145520566D01*
X138531759Y-145874989D01*
X139157446Y-145999447D01*
X139157446Y-145999446D01*
X139157451Y-145999446D01*
X139493208Y-145999446D01*
X140118417Y-146624655D01*
X140811060Y-147087465D01*
X141628090Y-147249982D01*
X142445119Y-147087465D01*
X143137763Y-146624655D01*
X143600573Y-145932011D01*
X143763090Y-145114982D01*
X143600573Y-144297952D01*
X143137763Y-143605309D01*
X141636691Y-142104237D01*
X140944047Y-141641427D01*
X140127018Y-141478910D01*
X140065000Y-141491246D01*
X140065000Y-140631239D01*
X145682116Y-135014122D01*
X145682120Y-135014120D01*
X145682120Y-135014119D01*
X145859331Y-134748903D01*
X146036543Y-134483688D01*
X146036543Y-134483687D01*
X146161000Y-133858000D01*
X146161001Y-133858000D01*
X146161000Y-133857994D01*
X146161000Y-124121239D01*
X146473239Y-123809000D01*
X147330953Y-123809000D01*
X147574000Y-123857345D01*
X148205810Y-123731670D01*
X148741433Y-123373778D01*
X149099325Y-122838155D01*
X149225000Y-122206345D01*
X149225000Y-122141655D01*
X149099325Y-121509845D01*
X148741433Y-120974222D01*
X148205810Y-120616330D01*
X147574000Y-120490655D01*
X147330953Y-120539000D01*
X146473239Y-120539000D01*
X146161000Y-120226760D01*
X146161000Y-116755240D01*
X146219240Y-116697000D01*
X147330953Y-116697000D01*
X147574000Y-116745345D01*
X148205810Y-116619670D01*
X148741433Y-116261778D01*
X149099325Y-115726155D01*
X149225000Y-115094345D01*
X149225000Y-115029655D01*
X149099325Y-114397845D01*
X148741433Y-113862222D01*
X148575765Y-113751526D01*
X147295000Y-112470760D01*
X147295000Y-107199705D01*
X147170543Y-106574018D01*
X146816120Y-106043585D01*
X146285687Y-105689162D01*
X145660000Y-105564705D01*
X145593950Y-105577842D01*
X145723268Y-105266413D01*
X145723731Y-104735914D01*
X145521146Y-104245620D01*
X145146353Y-103870173D01*
X144656413Y-103666732D01*
X144125914Y-103666269D01*
X143635620Y-103868854D01*
X143260173Y-104243647D01*
X143143291Y-104525129D01*
X142508420Y-105160000D01*
X140193579Y-105160000D01*
X137404790Y-102371210D01*
X137117675Y-102179367D01*
X137061484Y-102168189D01*
X136779000Y-102111999D01*
X136778994Y-102112000D01*
X132588005Y-102112000D01*
X132588000Y-102111999D01*
X132305515Y-102168189D01*
X132249325Y-102179367D01*
X131962210Y-102371210D01*
X131962207Y-102371213D01*
X130189420Y-104144000D01*
X127508005Y-104144000D01*
X127508000Y-104143999D01*
X127225515Y-104200189D01*
X127169325Y-104211367D01*
X126882210Y-104403210D01*
X126882207Y-104403213D01*
X126227210Y-105058210D01*
X126035367Y-105345325D01*
X126024189Y-105401515D01*
X125994077Y-105552897D01*
X125839673Y-105707301D01*
X125743000Y-105940690D01*
X125743000Y-106193309D01*
X125743000Y-106543309D01*
X125783878Y-106641999D01*
X125743000Y-106740690D01*
X125743000Y-106993309D01*
X125743000Y-107343309D01*
X125839673Y-107576698D01*
X126018301Y-107755327D01*
X126022339Y-107757000D01*
X125686076Y-107757000D01*
X125538810Y-107696000D01*
X125286191Y-107696000D01*
X124993016Y-107696000D01*
X124714000Y-107640500D01*
X122872500Y-107640500D01*
X122438154Y-107726897D01*
X122389721Y-107759258D01*
X122355095Y-107689044D01*
X121728785Y-107139785D01*
X120939959Y-106872014D01*
X120108707Y-106926497D01*
X119361580Y-107294939D01*
X118812321Y-107921249D01*
X118544550Y-108710075D01*
X118599033Y-109541327D01*
X119148463Y-111591830D01*
X119516905Y-112338957D01*
X120143215Y-112888215D01*
X120932041Y-113155986D01*
X121763293Y-113101503D01*
X122510420Y-112733061D01*
X123059679Y-112106752D01*
X123327450Y-111317925D01*
X123272967Y-110486673D01*
X123165929Y-110087203D01*
X123342632Y-109910500D01*
X123463007Y-109910500D01*
X123380500Y-110109691D01*
X123380500Y-110394750D01*
X123539250Y-110553500D01*
X124587000Y-110553500D01*
X124587000Y-110533500D01*
X124841000Y-110533500D01*
X124841000Y-110553500D01*
X125888750Y-110553500D01*
X126047500Y-110394750D01*
X126047500Y-110109691D01*
X125950827Y-109876302D01*
X125802525Y-109727999D01*
X125950827Y-109579699D01*
X125972655Y-109527000D01*
X126853000Y-109527000D01*
X127191675Y-109459633D01*
X127203098Y-109452000D01*
X127454309Y-109452000D01*
X127687698Y-109355327D01*
X127866327Y-109176699D01*
X127963000Y-108943310D01*
X127963000Y-108690691D01*
X127963000Y-108340691D01*
X127866327Y-108107302D01*
X127687699Y-107928673D01*
X127478451Y-107841999D01*
X127687698Y-107755327D01*
X127866327Y-107576699D01*
X127963000Y-107343310D01*
X127963000Y-107090691D01*
X127963000Y-106740691D01*
X127922121Y-106642000D01*
X127963000Y-106543310D01*
X127963000Y-106290691D01*
X127963000Y-105940691D01*
X127951944Y-105914000D01*
X129604055Y-105914000D01*
X129593000Y-105940690D01*
X129593000Y-106193309D01*
X129593000Y-106543309D01*
X129633878Y-106641999D01*
X129593000Y-106740690D01*
X129593000Y-106993309D01*
X129593000Y-107343309D01*
X129633878Y-107441999D01*
X129593000Y-107540690D01*
X129593000Y-107793309D01*
X129593000Y-108143309D01*
X129633878Y-108241999D01*
X129593000Y-108340690D01*
X129593000Y-108593309D01*
X129593000Y-108943309D01*
X129689673Y-109176698D01*
X129868301Y-109355327D01*
X130101690Y-109452000D01*
X130354309Y-109452000D01*
X130945000Y-109452000D01*
X130945000Y-111125000D01*
X131031397Y-111559346D01*
X131277434Y-111927566D01*
X133165261Y-113815392D01*
X132555246Y-114425408D01*
X132458573Y-114658797D01*
X132458573Y-114911416D01*
X132555245Y-115144805D01*
X132733874Y-115323434D01*
X134855194Y-117444754D01*
X135088583Y-117541427D01*
X135341202Y-117541427D01*
X135574591Y-117444755D01*
X135753220Y-117266126D01*
X139288754Y-113730592D01*
X139385427Y-113497203D01*
X139385427Y-113244584D01*
X139288755Y-113011195D01*
X139110126Y-112832566D01*
X136988806Y-110711246D01*
X136755417Y-110614573D01*
X136502798Y-110614573D01*
X136269409Y-110711245D01*
X136090780Y-110889874D01*
X135714740Y-111265914D01*
X135714740Y-106920610D01*
X135714740Y-106667991D01*
X135714740Y-106330750D01*
X135555990Y-106172000D01*
X134556500Y-106172000D01*
X134556500Y-107270550D01*
X134715250Y-107429300D01*
X135206049Y-107429300D01*
X135439438Y-107332627D01*
X135618067Y-107153999D01*
X135714740Y-106920610D01*
X135714740Y-111265914D01*
X134770393Y-112210261D01*
X133215000Y-110654868D01*
X133215000Y-107823000D01*
X133136688Y-107429300D01*
X133301049Y-107429300D01*
X133477000Y-107356418D01*
X133652951Y-107429300D01*
X134143750Y-107429300D01*
X134302500Y-107270550D01*
X134302500Y-106172000D01*
X134282500Y-106172000D01*
X134282500Y-105918000D01*
X134302500Y-105918000D01*
X134302500Y-105898000D01*
X134556500Y-105898000D01*
X134556500Y-105918000D01*
X135555990Y-105918000D01*
X135714740Y-105759250D01*
X135714740Y-105422009D01*
X135714740Y-105315872D01*
X138401139Y-108002271D01*
X138769359Y-108248308D01*
X139203705Y-108334705D01*
X144025000Y-108334705D01*
X144025000Y-113147994D01*
X144024999Y-113148000D01*
X144149457Y-113773688D01*
X144297103Y-113994656D01*
X143369880Y-114921880D01*
X143015457Y-115452312D01*
X142890999Y-116078000D01*
X142891000Y-116078005D01*
X142891000Y-120903994D01*
X142890999Y-120904000D01*
X143015457Y-121529688D01*
X143369880Y-122060120D01*
X143483760Y-122173999D01*
X143369880Y-122287880D01*
X143015457Y-122818312D01*
X142890999Y-123444000D01*
X142891000Y-123444005D01*
X142891000Y-128234904D01*
X142860215Y-128144215D01*
X142310957Y-127517905D01*
X141563830Y-127149463D01*
X139654404Y-126637834D01*
X139654404Y-121235578D01*
X139299671Y-120377057D01*
X138643398Y-119719638D01*
X137785498Y-119363407D01*
X136856578Y-119362596D01*
X135998057Y-119717329D01*
X135340638Y-120373602D01*
X134984407Y-121231502D01*
X134983596Y-122160422D01*
X135338329Y-123018943D01*
X135994602Y-123676362D01*
X136852502Y-124032593D01*
X137781422Y-124033404D01*
X138639943Y-123678671D01*
X139297362Y-123022398D01*
X139653593Y-122164498D01*
X139654404Y-121235578D01*
X139654404Y-126637834D01*
X139513327Y-126600033D01*
X138682075Y-126545550D01*
X137893249Y-126813321D01*
X137266939Y-127362580D01*
X137050241Y-127802000D01*
X130637404Y-127802000D01*
X130637404Y-112218578D01*
X130282671Y-111360057D01*
X129626398Y-110702638D01*
X128768498Y-110346407D01*
X127839578Y-110345596D01*
X126981057Y-110700329D01*
X126323638Y-111356602D01*
X126047500Y-112021616D01*
X126047500Y-111251309D01*
X126047500Y-110966250D01*
X125888750Y-110807500D01*
X124841000Y-110807500D01*
X124841000Y-111601250D01*
X124999750Y-111760000D01*
X125286191Y-111760000D01*
X125538810Y-111760000D01*
X125772199Y-111663327D01*
X125950827Y-111484698D01*
X126047500Y-111251309D01*
X126047500Y-112021616D01*
X125967407Y-112214502D01*
X125966596Y-113143422D01*
X126321329Y-114001943D01*
X126977602Y-114659362D01*
X127835502Y-115015593D01*
X128764422Y-115016404D01*
X129622943Y-114661671D01*
X130280362Y-114005398D01*
X130636593Y-113147498D01*
X130637404Y-112218578D01*
X130637404Y-127802000D01*
X124587000Y-127802000D01*
X124587000Y-111601250D01*
X124587000Y-110807500D01*
X123539250Y-110807500D01*
X123380500Y-110966250D01*
X123380500Y-111251309D01*
X123477173Y-111484698D01*
X123655801Y-111663327D01*
X123889190Y-111760000D01*
X124141809Y-111760000D01*
X124428250Y-111760000D01*
X124587000Y-111601250D01*
X124587000Y-127802000D01*
X124454132Y-127802000D01*
X113784000Y-117131868D01*
X113784000Y-116775545D01*
X114002329Y-117303943D01*
X114658602Y-117961362D01*
X115516502Y-118317593D01*
X116445422Y-118318404D01*
X117303943Y-117963671D01*
X117961362Y-117307398D01*
X118317593Y-116449498D01*
X118318404Y-115520578D01*
X117963671Y-114662057D01*
X117307398Y-114004638D01*
X117070573Y-113906300D01*
X117299049Y-113906300D01*
X117532438Y-113809627D01*
X117711067Y-113630999D01*
X117807740Y-113397610D01*
X117807740Y-113144991D01*
X117807740Y-112807750D01*
X117648990Y-112649000D01*
X116649500Y-112649000D01*
X116649500Y-112669000D01*
X116395500Y-112669000D01*
X116395500Y-112649000D01*
X116375500Y-112649000D01*
X116375500Y-112395000D01*
X116395500Y-112395000D01*
X116395500Y-112375000D01*
X116649500Y-112375000D01*
X116649500Y-112395000D01*
X117648990Y-112395000D01*
X117807740Y-112236250D01*
X117807740Y-111899009D01*
X117807740Y-111646390D01*
X117711067Y-111413001D01*
X117532438Y-111234373D01*
X117299049Y-111137700D01*
X116808250Y-111137700D01*
X116649502Y-111296448D01*
X116649502Y-111137700D01*
X116645185Y-111137700D01*
X116872603Y-110797346D01*
X116872604Y-110797345D01*
X116959000Y-110363000D01*
X116959000Y-109601000D01*
X116959000Y-105664000D01*
X116872603Y-105229655D01*
X116872603Y-105229654D01*
X116626566Y-104861434D01*
X115356566Y-103591434D01*
X114988346Y-103345397D01*
X114554000Y-103259000D01*
X110363000Y-103259000D01*
X109928654Y-103345397D01*
X109560433Y-103591434D01*
X108036434Y-105115434D01*
X107790397Y-105483654D01*
X107704000Y-105918000D01*
X107704000Y-107341938D01*
X107560000Y-107313295D01*
X104411710Y-107313295D01*
X104411705Y-107313294D01*
X103786017Y-107437752D01*
X103520801Y-107614963D01*
X103255585Y-107792175D01*
X103255582Y-107792178D01*
X100951880Y-110095880D01*
X100685000Y-110495294D01*
X100685000Y-100685000D01*
X149315000Y-100685000D01*
X149315000Y-149315000D01*
M02*
