%FSLAX46Y46*%
G04 Gerber Fmt 4.6, Leading zero omitted, Abs format (unit mm)*
G04 Created by KiCad (PCBNEW (2014-jan-25)-product) date Mon 28 Jul 2014 16:56:47 BST*
%MOMM*%
G01*
G04 APERTURE LIST*
%ADD10C,0.100000*%
%ADD11C,0.250000*%
%ADD12C,0.300000*%
%ADD13C,0.150000*%
%ADD14C,0.304800*%
%ADD15C,0.127000*%
%ADD16C,0.381000*%
%ADD17C,0.254000*%
%ADD18C,0.099060*%
%ADD19C,0.200000*%
%ADD20R,3.000000X2.200000*%
%ADD21R,0.350000X0.950000*%
%ADD22C,0.400000*%
%ADD23R,2.200000X3.000000*%
%ADD24R,0.950000X0.350000*%
%ADD25C,3.000000*%
%ADD26C,3.400000*%
%ADD27C,1.397000*%
%ADD28R,1.397000X1.397000*%
%ADD29R,1.300480X1.498600*%
%ADD30C,5.500000*%
%ADD31C,4.500000*%
%ADD32R,2.032000X2.032000*%
%ADD33O,2.032000X2.032000*%
%ADD34C,2.000000*%
%ADD35R,1.397000X0.889000*%
%ADD36R,0.889000X1.397000*%
G04 APERTURE END LIST*
D10*
D11*
X120356477Y-140390571D02*
X120499334Y-140438190D01*
X120546953Y-140485810D01*
X120594572Y-140581048D01*
X120594572Y-140723905D01*
X120546953Y-140819143D01*
X120499334Y-140866762D01*
X120404096Y-140914381D01*
X120023143Y-140914381D01*
X120023143Y-139914381D01*
X120356477Y-139914381D01*
X120451715Y-139962000D01*
X120499334Y-140009619D01*
X120546953Y-140104857D01*
X120546953Y-140200095D01*
X120499334Y-140295333D01*
X120451715Y-140342952D01*
X120356477Y-140390571D01*
X120023143Y-140390571D01*
X121499334Y-140914381D02*
X121023143Y-140914381D01*
X121023143Y-139914381D01*
X121832667Y-139914381D02*
X121832667Y-140723905D01*
X121880286Y-140819143D01*
X121927905Y-140866762D01*
X122023143Y-140914381D01*
X122213620Y-140914381D01*
X122308858Y-140866762D01*
X122356477Y-140819143D01*
X122404096Y-140723905D01*
X122404096Y-139914381D01*
X122880286Y-140390571D02*
X123213620Y-140390571D01*
X123356477Y-140914381D02*
X122880286Y-140914381D01*
X122880286Y-139914381D01*
X123356477Y-139914381D01*
D12*
X141258519Y-103885936D02*
X141248950Y-103726504D01*
X141141807Y-103540927D01*
X140972805Y-103391065D01*
X140777658Y-103338775D01*
X140618226Y-103348345D01*
X140335076Y-103429343D01*
X140149499Y-103536486D01*
X139937777Y-103741203D01*
X139849774Y-103874490D01*
X139797485Y-104069637D01*
X139842769Y-104290927D01*
X139914197Y-104414645D01*
X140083199Y-104564508D01*
X140180773Y-104590653D01*
X140613785Y-104340653D01*
X140470928Y-104093216D01*
X140807055Y-105961119D02*
X141175644Y-105170964D01*
X140378483Y-105218812D02*
X141677521Y-104468812D01*
X141963235Y-104963683D01*
X141972805Y-105123116D01*
X141946660Y-105220689D01*
X141858656Y-105353977D01*
X141673080Y-105461119D01*
X141513647Y-105470689D01*
X141416075Y-105444545D01*
X141282786Y-105356540D01*
X140997072Y-104861669D01*
X141808932Y-106124993D02*
X142058932Y-106558006D01*
X141485626Y-107136440D02*
X141128483Y-106517850D01*
X142427521Y-105767850D01*
X142784664Y-106386440D01*
X142487503Y-107300313D02*
X142737503Y-107733326D01*
X142164198Y-108311760D02*
X141807055Y-107693170D01*
X143106093Y-106943170D01*
X143463236Y-107561760D01*
X142485626Y-108868491D02*
X143784664Y-108118491D01*
X142914198Y-109610798D01*
X144213236Y-108860798D01*
X104118517Y-110775381D02*
X103249928Y-110851251D01*
X103689946Y-111517688D02*
X102390908Y-110767688D01*
X102676622Y-110272817D01*
X102809910Y-110184813D01*
X102907483Y-110158669D01*
X103066916Y-110168238D01*
X103252492Y-110275381D01*
X103340496Y-110408669D01*
X103366640Y-110506242D01*
X103357071Y-110665675D01*
X103071357Y-111160546D01*
X103759497Y-109825793D02*
X104009497Y-109392781D01*
X104797089Y-109600060D02*
X104439946Y-110218650D01*
X103140908Y-109468650D01*
X103498051Y-108850060D01*
X105118517Y-109043330D02*
X103819479Y-108293330D01*
X103998051Y-107984035D01*
X104167052Y-107834173D01*
X104362199Y-107781883D01*
X104521631Y-107791453D01*
X104804782Y-107872451D01*
X104990358Y-107979594D01*
X105202080Y-108184311D01*
X105290084Y-108317598D01*
X105342373Y-108512745D01*
X105297089Y-108734035D01*
X105118517Y-109043330D01*
X102398428Y-103953571D02*
X102398428Y-105167857D01*
X102469856Y-105310714D01*
X102541285Y-105382143D01*
X102684142Y-105453571D01*
X102969856Y-105453571D01*
X103112714Y-105382143D01*
X103184142Y-105310714D01*
X103255571Y-105167857D01*
X103255571Y-103953571D01*
X103969857Y-105453571D02*
X103969857Y-103953571D01*
X104541285Y-103953571D01*
X104684143Y-104025000D01*
X104755571Y-104096429D01*
X104827000Y-104239286D01*
X104827000Y-104453571D01*
X104755571Y-104596429D01*
X104684143Y-104667857D01*
X104541285Y-104739286D01*
X103969857Y-104739286D01*
X106184143Y-105453571D02*
X105469857Y-105453571D01*
X105469857Y-103953571D01*
X106684143Y-105453571D02*
X106684143Y-103953571D01*
X108184143Y-104025000D02*
X108041286Y-103953571D01*
X107827000Y-103953571D01*
X107612715Y-104025000D01*
X107469857Y-104167857D01*
X107398429Y-104310714D01*
X107327000Y-104596429D01*
X107327000Y-104810714D01*
X107398429Y-105096429D01*
X107469857Y-105239286D01*
X107612715Y-105382143D01*
X107827000Y-105453571D01*
X107969857Y-105453571D01*
X108184143Y-105382143D01*
X108255572Y-105310714D01*
X108255572Y-104810714D01*
X107969857Y-104810714D01*
X108898429Y-105453571D02*
X108898429Y-103953571D01*
X108898429Y-104667857D02*
X109755572Y-104667857D01*
X109755572Y-105453571D02*
X109755572Y-103953571D01*
X110255572Y-103953571D02*
X111112715Y-103953571D01*
X110684144Y-105453571D02*
X110684144Y-103953571D01*
X111612715Y-104667857D02*
X112112715Y-104667857D01*
X112327001Y-105453571D02*
X111612715Y-105453571D01*
X111612715Y-103953571D01*
X112327001Y-103953571D01*
X113827001Y-105453571D02*
X113327001Y-104739286D01*
X112969858Y-105453571D02*
X112969858Y-103953571D01*
X113541286Y-103953571D01*
X113684144Y-104025000D01*
X113755572Y-104096429D01*
X113827001Y-104239286D01*
X113827001Y-104453571D01*
X113755572Y-104596429D01*
X113684144Y-104667857D01*
X113541286Y-104739286D01*
X112969858Y-104739286D01*
X120622286Y-113423000D02*
X120479429Y-113351571D01*
X120265143Y-113351571D01*
X120050858Y-113423000D01*
X119908000Y-113565857D01*
X119836572Y-113708714D01*
X119765143Y-113994429D01*
X119765143Y-114208714D01*
X119836572Y-114494429D01*
X119908000Y-114637286D01*
X120050858Y-114780143D01*
X120265143Y-114851571D01*
X120408000Y-114851571D01*
X120622286Y-114780143D01*
X120693715Y-114708714D01*
X120693715Y-114208714D01*
X120408000Y-114208714D01*
X121336572Y-114280143D02*
X122479429Y-114280143D01*
X114089715Y-120439571D02*
X113589715Y-119725286D01*
X113232572Y-120439571D02*
X113232572Y-118939571D01*
X113804000Y-118939571D01*
X113946858Y-119011000D01*
X114018286Y-119082429D01*
X114089715Y-119225286D01*
X114089715Y-119439571D01*
X114018286Y-119582429D01*
X113946858Y-119653857D01*
X113804000Y-119725286D01*
X113232572Y-119725286D01*
X114732572Y-119868143D02*
X115875429Y-119868143D01*
X114748572Y-132480857D02*
X114962858Y-132552286D01*
X115034286Y-132623714D01*
X115105715Y-132766571D01*
X115105715Y-132980857D01*
X115034286Y-133123714D01*
X114962858Y-133195143D01*
X114820000Y-133266571D01*
X114248572Y-133266571D01*
X114248572Y-131766571D01*
X114748572Y-131766571D01*
X114891429Y-131838000D01*
X114962858Y-131909429D01*
X115034286Y-132052286D01*
X115034286Y-132195143D01*
X114962858Y-132338000D01*
X114891429Y-132409429D01*
X114748572Y-132480857D01*
X114248572Y-132480857D01*
X115748572Y-132695143D02*
X116891429Y-132695143D01*
X128210572Y-136163857D02*
X128424858Y-136235286D01*
X128496286Y-136306714D01*
X128567715Y-136449571D01*
X128567715Y-136663857D01*
X128496286Y-136806714D01*
X128424858Y-136878143D01*
X128282000Y-136949571D01*
X127710572Y-136949571D01*
X127710572Y-135449571D01*
X128210572Y-135449571D01*
X128353429Y-135521000D01*
X128424858Y-135592429D01*
X128496286Y-135735286D01*
X128496286Y-135878143D01*
X128424858Y-136021000D01*
X128353429Y-136092429D01*
X128210572Y-136163857D01*
X127710572Y-136163857D01*
X129210572Y-136378143D02*
X130353429Y-136378143D01*
X129782000Y-136949571D02*
X129782000Y-135806714D01*
X132179286Y-116217000D02*
X132036429Y-116145571D01*
X131822143Y-116145571D01*
X131607858Y-116217000D01*
X131465000Y-116359857D01*
X131393572Y-116502714D01*
X131322143Y-116788429D01*
X131322143Y-117002714D01*
X131393572Y-117288429D01*
X131465000Y-117431286D01*
X131607858Y-117574143D01*
X131822143Y-117645571D01*
X131965000Y-117645571D01*
X132179286Y-117574143D01*
X132250715Y-117502714D01*
X132250715Y-117002714D01*
X131965000Y-117002714D01*
X132893572Y-117074143D02*
X134036429Y-117074143D01*
X133465000Y-117645571D02*
X133465000Y-116502714D01*
X135425715Y-127678571D02*
X134925715Y-126964286D01*
X134568572Y-127678571D02*
X134568572Y-126178571D01*
X135140000Y-126178571D01*
X135282858Y-126250000D01*
X135354286Y-126321429D01*
X135425715Y-126464286D01*
X135425715Y-126678571D01*
X135354286Y-126821429D01*
X135282858Y-126892857D01*
X135140000Y-126964286D01*
X134568572Y-126964286D01*
X136068572Y-127107143D02*
X137211429Y-127107143D01*
X136640000Y-127678571D02*
X136640000Y-126535714D01*
X144145095Y-115077857D02*
X145668905Y-115077857D01*
X144907000Y-115839762D02*
X144907000Y-114315952D01*
X144145095Y-122189857D02*
X145668905Y-122189857D01*
X144907000Y-122951762D02*
X144907000Y-121427952D01*
X102530285Y-121486448D02*
X103829323Y-120736448D01*
X104007894Y-121045743D01*
X104053178Y-121267034D01*
X104000889Y-121462181D01*
X103912885Y-121595468D01*
X103701163Y-121800185D01*
X103515587Y-121907327D01*
X103232436Y-121988325D01*
X103073004Y-121997895D01*
X102877857Y-121945605D01*
X102708856Y-121795743D01*
X102530285Y-121486448D01*
X103615724Y-122509341D02*
X103972867Y-123127931D01*
X103173142Y-122599909D02*
X104722180Y-122282922D01*
X103673142Y-123465934D01*
X105115037Y-122963370D02*
X104065999Y-124146383D01*
X105615037Y-123829395D01*
X104565999Y-125012408D02*
X105865037Y-124262408D01*
X104923142Y-125630998D02*
X106222180Y-124880998D01*
X106400751Y-125190293D01*
X106446035Y-125411584D01*
X106393746Y-125606731D01*
X106305742Y-125740018D01*
X106094020Y-125944734D01*
X105908444Y-126051877D01*
X105625293Y-126132875D01*
X105465861Y-126142445D01*
X105270714Y-126090155D01*
X105101713Y-125940293D01*
X104923142Y-125630998D01*
X107436465Y-126984202D02*
X107865037Y-127726510D01*
X106351713Y-128105356D02*
X107650751Y-127355356D01*
X108115037Y-128159522D02*
X107063434Y-128766665D01*
X106975431Y-128899952D01*
X106949286Y-128997526D01*
X106958856Y-129156958D01*
X107101713Y-129404394D01*
X107235000Y-129492398D01*
X107332574Y-129518542D01*
X107492006Y-129508973D01*
X108543608Y-128901830D01*
X108030285Y-131012727D02*
X108398874Y-130222572D01*
X107601713Y-130270420D02*
X108900751Y-129520420D01*
X109186465Y-130015291D01*
X109196035Y-130174724D01*
X109169890Y-130272297D01*
X109081886Y-130405585D01*
X108896310Y-130512727D01*
X108736877Y-130522297D01*
X108639305Y-130496153D01*
X108506016Y-130408148D01*
X108220302Y-129913277D01*
X108351713Y-131569458D02*
X109650751Y-130819458D01*
X108780285Y-132311765D01*
X110079323Y-131561765D01*
X109817876Y-132537498D02*
X110067876Y-132970511D01*
X109494571Y-133548945D02*
X109137428Y-132930355D01*
X110436466Y-132180355D01*
X110793609Y-132798945D01*
X110244571Y-134847983D02*
X110613160Y-134057828D01*
X109815999Y-134105676D02*
X111115037Y-133355676D01*
X111400751Y-133850547D01*
X111410321Y-134009980D01*
X111384176Y-134107553D01*
X111296172Y-134240841D01*
X111110596Y-134347983D01*
X110951163Y-134357553D01*
X110853591Y-134331408D01*
X110720302Y-134243404D01*
X110434588Y-133748533D01*
X101430120Y-123523764D02*
X101787263Y-124142354D01*
X100987538Y-123614332D02*
X102536576Y-123297345D01*
X101487538Y-124480357D01*
X101737538Y-124913370D02*
X103036576Y-124163370D01*
X103215147Y-124472665D01*
X103260431Y-124693956D01*
X103208142Y-124889103D01*
X103120138Y-125022390D01*
X102908416Y-125227107D01*
X102722840Y-125334249D01*
X102439689Y-125415247D01*
X102280257Y-125424817D01*
X102085110Y-125372527D01*
X101916109Y-125222665D01*
X101737538Y-124913370D01*
X102822977Y-125936263D02*
X103180120Y-126554853D01*
X102380395Y-126026831D02*
X103929433Y-125709844D01*
X102880395Y-126892856D01*
X103130395Y-127325869D02*
X104429433Y-126575869D01*
X103751548Y-127544596D01*
X104929433Y-127441894D01*
X103630395Y-128191894D01*
X106189002Y-129766390D02*
X106179433Y-129606958D01*
X106072290Y-129421381D01*
X105903288Y-129271519D01*
X105708141Y-129219229D01*
X105548709Y-129228799D01*
X105265559Y-129309797D01*
X105079982Y-129416940D01*
X104868260Y-129621656D01*
X104780257Y-129754943D01*
X104727968Y-129950091D01*
X104773252Y-130171381D01*
X104844680Y-130295099D01*
X105013682Y-130444962D01*
X105111256Y-130471107D01*
X105544268Y-130221107D01*
X105401411Y-129973670D01*
X105737538Y-131841573D02*
X106106127Y-131051418D01*
X105308966Y-131099266D02*
X106608004Y-130349266D01*
X106893718Y-130844137D01*
X106903288Y-131003570D01*
X106877143Y-131101143D01*
X106789139Y-131234431D01*
X106603563Y-131341573D01*
X106444130Y-131351143D01*
X106346558Y-131324998D01*
X106213269Y-131236994D01*
X105927555Y-130742123D01*
X106739415Y-132005447D02*
X106989415Y-132438459D01*
X106416109Y-133016893D02*
X106058966Y-132398304D01*
X107358004Y-131648304D01*
X107715147Y-132266893D01*
X106737538Y-133573624D02*
X108036576Y-132823624D01*
X108724717Y-134158377D02*
X108715147Y-133998944D01*
X108608004Y-133813367D01*
X108439003Y-133663505D01*
X108243856Y-133611215D01*
X108084424Y-133620785D01*
X107801273Y-133701783D01*
X107615697Y-133808926D01*
X107403975Y-134013643D01*
X107315971Y-134146930D01*
X107263682Y-134342077D01*
X107308966Y-134563367D01*
X107380395Y-134687085D01*
X107549396Y-134836948D01*
X107646970Y-134863093D01*
X108079983Y-134613093D01*
X107937125Y-134365656D01*
X110256286Y-103294571D02*
X109542000Y-103294571D01*
X109542000Y-101794571D01*
X111042000Y-101794571D02*
X111327714Y-101794571D01*
X111470572Y-101866000D01*
X111613429Y-102008857D01*
X111684857Y-102294571D01*
X111684857Y-102794571D01*
X111613429Y-103080286D01*
X111470572Y-103223143D01*
X111327714Y-103294571D01*
X111042000Y-103294571D01*
X110899143Y-103223143D01*
X110756286Y-103080286D01*
X110684857Y-102794571D01*
X110684857Y-102294571D01*
X110756286Y-102008857D01*
X110899143Y-101866000D01*
X111042000Y-101794571D01*
X113184858Y-103294571D02*
X112684858Y-102580286D01*
X112327715Y-103294571D02*
X112327715Y-101794571D01*
X112899143Y-101794571D01*
X113042001Y-101866000D01*
X113113429Y-101937429D01*
X113184858Y-102080286D01*
X113184858Y-102294571D01*
X113113429Y-102437429D01*
X113042001Y-102508857D01*
X112899143Y-102580286D01*
X112327715Y-102580286D01*
X113756286Y-102866000D02*
X114470572Y-102866000D01*
X113613429Y-103294571D02*
X114113429Y-101794571D01*
X114613429Y-103294571D01*
X115113429Y-103294571D02*
X115113429Y-101794571D01*
X115827715Y-103294571D02*
X115827715Y-101794571D01*
X116684858Y-103294571D01*
X116684858Y-101794571D01*
X117399144Y-102508857D02*
X117899144Y-102508857D01*
X118113430Y-103294571D02*
X117399144Y-103294571D01*
X117399144Y-101794571D01*
X118113430Y-101794571D01*
D13*
X115443000Y-106426000D02*
G75*
G03X115443000Y-106426000I-381000J0D01*
G74*
G01*
X112331500Y-110490000D02*
X112141000Y-110490000D01*
X113093500Y-110490000D02*
X112966500Y-110490000D01*
X113919000Y-110490000D02*
X113728500Y-110490000D01*
X112268000Y-106426000D02*
X112141000Y-106426000D01*
X113093500Y-106426000D02*
X112966500Y-106426000D01*
X113919000Y-106426000D02*
X113728500Y-106426000D01*
X115062000Y-110490000D02*
X114554000Y-110490000D01*
X110998000Y-110490000D02*
X111506000Y-110490000D01*
X110998000Y-106426000D02*
X111506000Y-106426000D01*
X115062000Y-106426000D02*
X114554000Y-106426000D01*
X115062000Y-106426000D02*
X115062000Y-110490000D01*
X110998000Y-110490000D02*
X110998000Y-106426000D01*
X127105210Y-105410000D02*
G75*
G03X127105210Y-105410000I-359210J0D01*
G74*
G01*
X130810000Y-108140500D02*
X130810000Y-108331000D01*
X130810000Y-107378500D02*
X130810000Y-107505500D01*
X130810000Y-106553000D02*
X130810000Y-106743500D01*
X126746000Y-108204000D02*
X126746000Y-108331000D01*
X126746000Y-107378500D02*
X126746000Y-107505500D01*
X126746000Y-106553000D02*
X126746000Y-106743500D01*
X130810000Y-105410000D02*
X130810000Y-105918000D01*
X130810000Y-109474000D02*
X130810000Y-108966000D01*
X126746000Y-109474000D02*
X126746000Y-108966000D01*
X126746000Y-105410000D02*
X126746000Y-105918000D01*
X126746000Y-105410000D02*
X130810000Y-105410000D01*
X130810000Y-109474000D02*
X126746000Y-109474000D01*
X119993210Y-144526000D02*
G75*
G03X119993210Y-144526000I-359210J0D01*
G74*
G01*
X123698000Y-147256500D02*
X123698000Y-147447000D01*
X123698000Y-146494500D02*
X123698000Y-146621500D01*
X123698000Y-145669000D02*
X123698000Y-145859500D01*
X119634000Y-147320000D02*
X119634000Y-147447000D01*
X119634000Y-146494500D02*
X119634000Y-146621500D01*
X119634000Y-145669000D02*
X119634000Y-145859500D01*
X123698000Y-144526000D02*
X123698000Y-145034000D01*
X123698000Y-148590000D02*
X123698000Y-148082000D01*
X119634000Y-148590000D02*
X119634000Y-148082000D01*
X119634000Y-144526000D02*
X119634000Y-145034000D01*
X119634000Y-144526000D02*
X123698000Y-144526000D01*
X123698000Y-148590000D02*
X119634000Y-148590000D01*
D14*
X105484852Y-115082557D02*
X103285148Y-113812557D01*
X103285148Y-113812557D02*
X107095148Y-107213443D01*
X107095148Y-107213443D02*
X109294852Y-108483443D01*
X109294852Y-108483443D02*
X105484852Y-115082557D01*
X104555148Y-111612852D02*
X106754852Y-112882852D01*
X141385148Y-102335443D02*
X143584852Y-101065443D01*
X143584852Y-101065443D02*
X147394852Y-107664557D01*
X147394852Y-107664557D02*
X145195148Y-108934557D01*
X145195148Y-108934557D02*
X141385148Y-102335443D01*
X144854852Y-103265148D02*
X142655148Y-104535148D01*
X117974000Y-143914000D02*
X117974000Y-141374000D01*
X117974000Y-141374000D02*
X125594000Y-141374000D01*
X125594000Y-141374000D02*
X125594000Y-143914000D01*
X125594000Y-143914000D02*
X117974000Y-143914000D01*
X120514000Y-141374000D02*
X120514000Y-143914000D01*
D15*
X114935000Y-113157000D02*
X114935000Y-111887000D01*
X116205000Y-113157000D02*
X116205000Y-111912400D01*
X116586000Y-113157000D02*
X114554000Y-113157000D01*
X114554000Y-113157000D02*
X114554000Y-111887000D01*
X114554000Y-111887000D02*
X116586000Y-111887000D01*
X116586000Y-111887000D02*
X116586000Y-113157000D01*
X132842000Y-106680000D02*
X132842000Y-105410000D01*
X134112000Y-106680000D02*
X134112000Y-105435400D01*
X134493000Y-106680000D02*
X132461000Y-106680000D01*
X132461000Y-106680000D02*
X132461000Y-105410000D01*
X132461000Y-105410000D02*
X134493000Y-105410000D01*
X134493000Y-105410000D02*
X134493000Y-106680000D01*
X125857000Y-146177000D02*
X125857000Y-144907000D01*
X127127000Y-146177000D02*
X127127000Y-144932400D01*
X127508000Y-146177000D02*
X125476000Y-146177000D01*
X125476000Y-146177000D02*
X125476000Y-144907000D01*
X125476000Y-144907000D02*
X127508000Y-144907000D01*
X127508000Y-144907000D02*
X127508000Y-146177000D01*
D16*
X101290120Y-149796500D02*
X110291880Y-149796500D01*
X101290120Y-153296620D02*
X110291880Y-153296620D01*
X110291880Y-153296620D02*
X110291880Y-138795760D01*
X110291880Y-138795760D02*
X101290120Y-138795760D01*
X101290120Y-138795760D02*
X101290120Y-153296620D01*
D17*
X146304000Y-123444000D02*
X148844000Y-123444000D01*
X146304000Y-125984000D02*
X148844000Y-125984000D01*
X148844000Y-125984000D02*
X148844000Y-123444000D01*
X148844000Y-123444000D02*
X148844000Y-120904000D01*
X148844000Y-120904000D02*
X146304000Y-120904000D01*
X146304000Y-120904000D02*
X146304000Y-125984000D01*
X146304000Y-116332000D02*
X148844000Y-116332000D01*
X146304000Y-118872000D02*
X148844000Y-118872000D01*
X148844000Y-118872000D02*
X148844000Y-116332000D01*
X148844000Y-116332000D02*
X148844000Y-113792000D01*
X148844000Y-113792000D02*
X146304000Y-113792000D01*
X146304000Y-113792000D02*
X146304000Y-118872000D01*
D13*
X147702549Y-141849974D02*
X141506172Y-148046351D01*
X146984128Y-147238128D02*
X140248936Y-140502936D01*
X137105846Y-143646026D02*
X141506172Y-148046351D01*
X141506172Y-148046351D02*
X145098274Y-149123982D01*
X145098274Y-149123982D02*
X146984128Y-147238128D01*
X143302223Y-137449649D02*
X147702549Y-141849974D01*
X147702549Y-141849974D02*
X148959784Y-145262472D01*
X148959784Y-145262472D02*
X146984128Y-147238128D01*
X137105846Y-143646026D02*
X143302223Y-137449649D01*
D18*
X124079000Y-108077000D02*
G75*
G03X124079000Y-108077000I-127000J0D01*
G74*
G01*
X123952000Y-109220000D02*
X123952000Y-108204000D01*
X123952000Y-108204000D02*
X125476000Y-108204000D01*
X125476000Y-108204000D02*
X125476000Y-109220000D01*
X125476000Y-110236000D02*
X125476000Y-111252000D01*
X125476000Y-111252000D02*
X123952000Y-111252000D01*
X123952000Y-111252000D02*
X123952000Y-110236000D01*
X111633000Y-115697000D02*
G75*
G03X111633000Y-115697000I-127000J0D01*
G74*
G01*
X111506000Y-114554000D02*
X111506000Y-115570000D01*
X111506000Y-115570000D02*
X109982000Y-115570000D01*
X109982000Y-115570000D02*
X109982000Y-114554000D01*
X109982000Y-113538000D02*
X109982000Y-112522000D01*
X109982000Y-112522000D02*
X111506000Y-112522000D01*
X111506000Y-112522000D02*
X111506000Y-113538000D01*
X115570000Y-140462000D02*
G75*
G03X115570000Y-140462000I-127000J0D01*
G74*
G01*
X116586000Y-140462000D02*
X115570000Y-140462000D01*
X115570000Y-140462000D02*
X115570000Y-138938000D01*
X115570000Y-138938000D02*
X116586000Y-138938000D01*
X117602000Y-138938000D02*
X118618000Y-138938000D01*
X118618000Y-138938000D02*
X118618000Y-140462000D01*
X118618000Y-140462000D02*
X117602000Y-140462000D01*
D19*
X115133762Y-104735381D02*
X115705191Y-104735381D01*
X115419476Y-105735381D02*
X115419476Y-104735381D01*
X116514715Y-105735381D02*
X116038524Y-105735381D01*
X116038524Y-104735381D01*
X117276620Y-105068714D02*
X117276620Y-105735381D01*
X117038524Y-104687762D02*
X116800429Y-105402048D01*
X117419477Y-105402048D01*
X117752810Y-104830619D02*
X117800429Y-104783000D01*
X117895667Y-104735381D01*
X118133763Y-104735381D01*
X118229001Y-104783000D01*
X118276620Y-104830619D01*
X118324239Y-104925857D01*
X118324239Y-105021095D01*
X118276620Y-105163952D01*
X117705191Y-105735381D01*
X118324239Y-105735381D01*
X119181382Y-105068714D02*
X119181382Y-105735381D01*
X118943286Y-104687762D02*
X118705191Y-105402048D01*
X119324239Y-105402048D01*
X119657572Y-104830619D02*
X119705191Y-104783000D01*
X119800429Y-104735381D01*
X120038525Y-104735381D01*
X120133763Y-104783000D01*
X120181382Y-104830619D01*
X120229001Y-104925857D01*
X120229001Y-105021095D01*
X120181382Y-105163952D01*
X119609953Y-105735381D01*
X120229001Y-105735381D01*
X125420762Y-103719381D02*
X125992191Y-103719381D01*
X125706476Y-104719381D02*
X125706476Y-103719381D01*
X126801715Y-104719381D02*
X126325524Y-104719381D01*
X126325524Y-103719381D01*
X127563620Y-104052714D02*
X127563620Y-104719381D01*
X127325524Y-103671762D02*
X127087429Y-104386048D01*
X127706477Y-104386048D01*
X128039810Y-103814619D02*
X128087429Y-103767000D01*
X128182667Y-103719381D01*
X128420763Y-103719381D01*
X128516001Y-103767000D01*
X128563620Y-103814619D01*
X128611239Y-103909857D01*
X128611239Y-104005095D01*
X128563620Y-104147952D01*
X127992191Y-104719381D01*
X128611239Y-104719381D01*
X129468382Y-104052714D02*
X129468382Y-104719381D01*
X129230286Y-103671762D02*
X128992191Y-104386048D01*
X129611239Y-104386048D01*
X129944572Y-103814619D02*
X129992191Y-103767000D01*
X130087429Y-103719381D01*
X130325525Y-103719381D01*
X130420763Y-103767000D01*
X130468382Y-103814619D01*
X130516001Y-103909857D01*
X130516001Y-104005095D01*
X130468382Y-104147952D01*
X129896953Y-104719381D01*
X130516001Y-104719381D01*
X113736762Y-147661381D02*
X114308191Y-147661381D01*
X114022476Y-148661381D02*
X114022476Y-147661381D01*
X115117715Y-148661381D02*
X114641524Y-148661381D01*
X114641524Y-147661381D01*
X115879620Y-147994714D02*
X115879620Y-148661381D01*
X115641524Y-147613762D02*
X115403429Y-148328048D01*
X116022477Y-148328048D01*
X116355810Y-147756619D02*
X116403429Y-147709000D01*
X116498667Y-147661381D01*
X116736763Y-147661381D01*
X116832001Y-147709000D01*
X116879620Y-147756619D01*
X116927239Y-147851857D01*
X116927239Y-147947095D01*
X116879620Y-148089952D01*
X116308191Y-148661381D01*
X116927239Y-148661381D01*
X117784382Y-147994714D02*
X117784382Y-148661381D01*
X117546286Y-147613762D02*
X117308191Y-148328048D01*
X117927239Y-148328048D01*
X118260572Y-147756619D02*
X118308191Y-147709000D01*
X118403429Y-147661381D01*
X118641525Y-147661381D01*
X118736763Y-147709000D01*
X118784382Y-147756619D01*
X118832001Y-147851857D01*
X118832001Y-147947095D01*
X118784382Y-148089952D01*
X118212953Y-148661381D01*
X118832001Y-148661381D01*
X116228953Y-111323381D02*
X115657524Y-111323381D01*
X115943238Y-111323381D02*
X115943238Y-110323381D01*
X115848000Y-110466238D01*
X115752762Y-110561476D01*
X115657524Y-110609095D01*
X116848000Y-110323381D02*
X116943239Y-110323381D01*
X117038477Y-110371000D01*
X117086096Y-110418619D01*
X117133715Y-110513857D01*
X117181334Y-110704333D01*
X117181334Y-110942429D01*
X117133715Y-111132905D01*
X117086096Y-111228143D01*
X117038477Y-111275762D01*
X116943239Y-111323381D01*
X116848000Y-111323381D01*
X116752762Y-111275762D01*
X116705143Y-111228143D01*
X116657524Y-111132905D01*
X116609905Y-110942429D01*
X116609905Y-110704333D01*
X116657524Y-110513857D01*
X116705143Y-110418619D01*
X116752762Y-110371000D01*
X116848000Y-110323381D01*
X117800381Y-110323381D02*
X117895620Y-110323381D01*
X117990858Y-110371000D01*
X118038477Y-110418619D01*
X118086096Y-110513857D01*
X118133715Y-110704333D01*
X118133715Y-110942429D01*
X118086096Y-111132905D01*
X118038477Y-111228143D01*
X117990858Y-111275762D01*
X117895620Y-111323381D01*
X117800381Y-111323381D01*
X117705143Y-111275762D01*
X117657524Y-111228143D01*
X117609905Y-111132905D01*
X117562286Y-110942429D01*
X117562286Y-110704333D01*
X117609905Y-110513857D01*
X117657524Y-110418619D01*
X117705143Y-110371000D01*
X117800381Y-110323381D01*
X118562286Y-110656714D02*
X118562286Y-111323381D01*
X118562286Y-110751952D02*
X118609905Y-110704333D01*
X118705143Y-110656714D01*
X118848001Y-110656714D01*
X118943239Y-110704333D01*
X118990858Y-110799571D01*
X118990858Y-111323381D01*
X132865953Y-104973381D02*
X132294524Y-104973381D01*
X132580238Y-104973381D02*
X132580238Y-103973381D01*
X132485000Y-104116238D01*
X132389762Y-104211476D01*
X132294524Y-104259095D01*
X133485000Y-103973381D02*
X133580239Y-103973381D01*
X133675477Y-104021000D01*
X133723096Y-104068619D01*
X133770715Y-104163857D01*
X133818334Y-104354333D01*
X133818334Y-104592429D01*
X133770715Y-104782905D01*
X133723096Y-104878143D01*
X133675477Y-104925762D01*
X133580239Y-104973381D01*
X133485000Y-104973381D01*
X133389762Y-104925762D01*
X133342143Y-104878143D01*
X133294524Y-104782905D01*
X133246905Y-104592429D01*
X133246905Y-104354333D01*
X133294524Y-104163857D01*
X133342143Y-104068619D01*
X133389762Y-104021000D01*
X133485000Y-103973381D01*
X134437381Y-103973381D02*
X134532620Y-103973381D01*
X134627858Y-104021000D01*
X134675477Y-104068619D01*
X134723096Y-104163857D01*
X134770715Y-104354333D01*
X134770715Y-104592429D01*
X134723096Y-104782905D01*
X134675477Y-104878143D01*
X134627858Y-104925762D01*
X134532620Y-104973381D01*
X134437381Y-104973381D01*
X134342143Y-104925762D01*
X134294524Y-104878143D01*
X134246905Y-104782905D01*
X134199286Y-104592429D01*
X134199286Y-104354333D01*
X134246905Y-104163857D01*
X134294524Y-104068619D01*
X134342143Y-104021000D01*
X134437381Y-103973381D01*
X135199286Y-104306714D02*
X135199286Y-104973381D01*
X135199286Y-104401952D02*
X135246905Y-104354333D01*
X135342143Y-104306714D01*
X135485001Y-104306714D01*
X135580239Y-104354333D01*
X135627858Y-104449571D01*
X135627858Y-104973381D01*
X126134953Y-147772381D02*
X125563524Y-147772381D01*
X125849238Y-147772381D02*
X125849238Y-146772381D01*
X125754000Y-146915238D01*
X125658762Y-147010476D01*
X125563524Y-147058095D01*
X126754000Y-146772381D02*
X126849239Y-146772381D01*
X126944477Y-146820000D01*
X126992096Y-146867619D01*
X127039715Y-146962857D01*
X127087334Y-147153333D01*
X127087334Y-147391429D01*
X127039715Y-147581905D01*
X126992096Y-147677143D01*
X126944477Y-147724762D01*
X126849239Y-147772381D01*
X126754000Y-147772381D01*
X126658762Y-147724762D01*
X126611143Y-147677143D01*
X126563524Y-147581905D01*
X126515905Y-147391429D01*
X126515905Y-147153333D01*
X126563524Y-146962857D01*
X126611143Y-146867619D01*
X126658762Y-146820000D01*
X126754000Y-146772381D01*
X127706381Y-146772381D02*
X127801620Y-146772381D01*
X127896858Y-146820000D01*
X127944477Y-146867619D01*
X127992096Y-146962857D01*
X128039715Y-147153333D01*
X128039715Y-147391429D01*
X127992096Y-147581905D01*
X127944477Y-147677143D01*
X127896858Y-147724762D01*
X127801620Y-147772381D01*
X127706381Y-147772381D01*
X127611143Y-147724762D01*
X127563524Y-147677143D01*
X127515905Y-147581905D01*
X127468286Y-147391429D01*
X127468286Y-147153333D01*
X127515905Y-146962857D01*
X127563524Y-146867619D01*
X127611143Y-146820000D01*
X127706381Y-146772381D01*
X128468286Y-147105714D02*
X128468286Y-147772381D01*
X128468286Y-147200952D02*
X128515905Y-147153333D01*
X128611143Y-147105714D01*
X128754001Y-147105714D01*
X128849239Y-147153333D01*
X128896858Y-147248571D01*
X128896858Y-147772381D01*
D13*
X140030070Y-141900449D02*
X140568818Y-141361700D01*
X140568818Y-141900448D02*
X140030070Y-141361700D01*
X143532370Y-145223143D02*
X144071118Y-144684394D01*
X144071118Y-145223142D02*
X143532370Y-144684394D01*
X137874809Y-144055710D02*
X138413557Y-143516961D01*
X138413557Y-144055709D02*
X137874809Y-143516961D01*
X141197503Y-147558010D02*
X141736251Y-147019261D01*
X141736251Y-147558009D02*
X141197503Y-147019261D01*
D19*
X123515524Y-107767381D02*
X122944095Y-107767381D01*
X123229809Y-107767381D02*
X123229809Y-106767381D01*
X123134571Y-106910238D01*
X123039333Y-107005476D01*
X122944095Y-107053095D01*
X124515524Y-107767381D02*
X124182190Y-107291190D01*
X123944095Y-107767381D02*
X123944095Y-106767381D01*
X124325048Y-106767381D01*
X124420286Y-106815000D01*
X124467905Y-106862619D01*
X124515524Y-106957857D01*
X124515524Y-107100714D01*
X124467905Y-107195952D01*
X124420286Y-107243571D01*
X124325048Y-107291190D01*
X123944095Y-107291190D01*
X124896476Y-106862619D02*
X124944095Y-106815000D01*
X125039333Y-106767381D01*
X125277429Y-106767381D01*
X125372667Y-106815000D01*
X125420286Y-106862619D01*
X125467905Y-106957857D01*
X125467905Y-107053095D01*
X125420286Y-107195952D01*
X124848857Y-107767381D01*
X125467905Y-107767381D01*
X109545381Y-114736476D02*
X109545381Y-115307905D01*
X109545381Y-115022191D02*
X108545381Y-115022191D01*
X108688238Y-115117429D01*
X108783476Y-115212667D01*
X108831095Y-115307905D01*
X109545381Y-113736476D02*
X109069190Y-114069810D01*
X109545381Y-114307905D02*
X108545381Y-114307905D01*
X108545381Y-113926952D01*
X108593000Y-113831714D01*
X108640619Y-113784095D01*
X108735857Y-113736476D01*
X108878714Y-113736476D01*
X108973952Y-113784095D01*
X109021571Y-113831714D01*
X109069190Y-113926952D01*
X109069190Y-114307905D01*
X108640619Y-113355524D02*
X108593000Y-113307905D01*
X108545381Y-113212667D01*
X108545381Y-112974571D01*
X108593000Y-112879333D01*
X108640619Y-112831714D01*
X108735857Y-112784095D01*
X108831095Y-112784095D01*
X108973952Y-112831714D01*
X109545381Y-113403143D01*
X109545381Y-112784095D01*
X114879524Y-141930381D02*
X114308095Y-141930381D01*
X114593809Y-141930381D02*
X114593809Y-140930381D01*
X114498571Y-141073238D01*
X114403333Y-141168476D01*
X114308095Y-141216095D01*
X115879524Y-141930381D02*
X115546190Y-141454190D01*
X115308095Y-141930381D02*
X115308095Y-140930381D01*
X115689048Y-140930381D01*
X115784286Y-140978000D01*
X115831905Y-141025619D01*
X115879524Y-141120857D01*
X115879524Y-141263714D01*
X115831905Y-141358952D01*
X115784286Y-141406571D01*
X115689048Y-141454190D01*
X115308095Y-141454190D01*
X116260476Y-141025619D02*
X116308095Y-140978000D01*
X116403333Y-140930381D01*
X116641429Y-140930381D01*
X116736667Y-140978000D01*
X116784286Y-141025619D01*
X116831905Y-141120857D01*
X116831905Y-141216095D01*
X116784286Y-141358952D01*
X116212857Y-141930381D01*
X116831905Y-141930381D01*
%LPC*%
D20*
X113030000Y-108458000D03*
D21*
X114230000Y-106533000D03*
X113430000Y-106533000D03*
X112630000Y-106533000D03*
X111830000Y-106533000D03*
X111830000Y-110383000D03*
X112630000Y-110383000D03*
X113430000Y-110383000D03*
X114230000Y-110383000D03*
D22*
X114230000Y-109258000D03*
X114230000Y-108458000D03*
X114230000Y-107658000D03*
X113430000Y-107658000D03*
X113430000Y-108458000D03*
X113430000Y-109258000D03*
X112630000Y-109258000D03*
X112630000Y-108458000D03*
X112630000Y-107658000D03*
X111830000Y-107658000D03*
X111830000Y-108458000D03*
X111830000Y-109258000D03*
D23*
X128778000Y-107442000D03*
D24*
X126853000Y-106242000D03*
X126853000Y-107042000D03*
X126853000Y-107842000D03*
X126853000Y-108642000D03*
X130703000Y-108642000D03*
X130703000Y-107842000D03*
X130703000Y-107042000D03*
X130703000Y-106242000D03*
D22*
X129578000Y-106242000D03*
X128778000Y-106242000D03*
X127978000Y-106242000D03*
X127978000Y-107042000D03*
X128778000Y-107042000D03*
X129578000Y-107042000D03*
X129578000Y-107842000D03*
X128778000Y-107842000D03*
X127978000Y-107842000D03*
X127978000Y-108642000D03*
X128778000Y-108642000D03*
X129578000Y-108642000D03*
D23*
X121666000Y-146558000D03*
D24*
X119741000Y-145358000D03*
X119741000Y-146158000D03*
X119741000Y-146958000D03*
X119741000Y-147758000D03*
X123591000Y-147758000D03*
X123591000Y-146958000D03*
X123591000Y-146158000D03*
X123591000Y-145358000D03*
D22*
X122466000Y-145358000D03*
X121666000Y-145358000D03*
X120866000Y-145358000D03*
X120866000Y-146158000D03*
X121666000Y-146158000D03*
X122466000Y-146158000D03*
X122466000Y-146958000D03*
X121666000Y-146958000D03*
X120866000Y-146958000D03*
X120866000Y-147758000D03*
X121666000Y-147758000D03*
X122466000Y-147758000D03*
D10*
G36*
X133093573Y-114785107D02*
X136629107Y-111249573D01*
X138750427Y-113370893D01*
X135214893Y-116906427D01*
X133093573Y-114785107D01*
X133093573Y-114785107D01*
G37*
D25*
X120677181Y-109048074D02*
X121194819Y-110979926D01*
X109048074Y-120677181D02*
X110979926Y-121194819D01*
X114785107Y-135468893D02*
X113370893Y-136883107D01*
X129059181Y-139147074D02*
X129576819Y-141078926D01*
X139020074Y-128678181D02*
X140951926Y-129195819D01*
D26*
X128302000Y-112681000D03*
X137319000Y-121698000D03*
X134017000Y-134017000D03*
X121698000Y-137319000D03*
X112681000Y-128302000D03*
X115983000Y-115983000D03*
D10*
G36*
X105275669Y-114301874D02*
X104065831Y-113603374D01*
X104764331Y-112393536D01*
X105974169Y-113092036D01*
X105275669Y-114301874D01*
X105275669Y-114301874D01*
G37*
D27*
X106290000Y-111148000D03*
X107560000Y-108948295D03*
D10*
G36*
X142165831Y-102544626D02*
X143375669Y-101846126D01*
X144074169Y-103055964D01*
X142864331Y-103754464D01*
X142165831Y-102544626D01*
X142165831Y-102544626D01*
G37*
D27*
X144390000Y-105000000D03*
X145660000Y-107199705D03*
D28*
X119244000Y-142644000D03*
D27*
X121784000Y-142644000D03*
X124324000Y-142644000D03*
D29*
X114617500Y-112522000D03*
X116522500Y-112522000D03*
X132524500Y-106045000D03*
X134429500Y-106045000D03*
X125539500Y-145542000D03*
X127444500Y-145542000D03*
D30*
X105791000Y-139595860D03*
D31*
X105791000Y-145595340D03*
X110490000Y-142595600D03*
D32*
X147574000Y-124714000D03*
D33*
X147574000Y-122174000D03*
D32*
X147574000Y-117602000D03*
D33*
X147574000Y-115062000D03*
D10*
G36*
X143313537Y-138392929D02*
X146849071Y-141928463D01*
X144727751Y-144049783D01*
X141192217Y-140514249D01*
X143313537Y-138392929D01*
X143313537Y-138392929D01*
G37*
D25*
X141584661Y-145071553D02*
X140170447Y-143657339D01*
D34*
X146984128Y-145082867D03*
X144828867Y-147238128D03*
D35*
X124714000Y-108775500D03*
X124714000Y-110680500D03*
X110744000Y-114998500D03*
X110744000Y-113093500D03*
D36*
X116141500Y-139700000D03*
X118046500Y-139700000D03*
M02*
