M48
;DRILL file {kicad (2014-jan-25)-product} date Mon 28 Jul 2014 16:54:31 BST
;FORMAT={-:-/ absolute / inch / decimal}
FMAT,2
INCH,TZ
T1C0.010
T2C0.012
T3C0.025
T4C0.032
T5C0.040
T6C0.059
T7C0.079
T8C0.118
T9C0.134
T10C0.138
%
G90
G05
M72
T1
X4.4028Y-4.2385
X4.7585Y-5.8172
X5.0385Y-4.2772
T2
X4.4028Y-4.27
X4.4028Y-4.3015
X4.4343Y-4.2385
X4.4343Y-4.27
X4.4343Y-4.3015
X4.4657Y-4.2385
X4.4657Y-4.27
X4.4657Y-4.3015
X4.4972Y-4.2385
X4.4972Y-4.27
X4.4972Y-4.3015
X4.7585Y-5.7228
X4.7585Y-5.7543
X4.7585Y-5.7857
X4.79Y-5.7228
X4.79Y-5.7543
X4.79Y-5.7857
X4.79Y-5.8172
X4.8215Y-5.7228
X4.8215Y-5.7543
X4.8215Y-5.7857
X4.8215Y-5.8172
X5.0385Y-4.1828
X5.0385Y-4.2143
X5.0385Y-4.2457
X5.07Y-4.1828
X5.07Y-4.2143
X5.07Y-4.2457
X5.07Y-4.2772
X5.1015Y-4.1828
X5.1015Y-4.2143
X5.1015Y-4.2457
X5.1015Y-4.2772
T3
X4.0354Y-4.0354
X4.0354Y-4.7244
X4.0354Y-5.1181
X4.2323Y-4.0354
X4.35Y-4.4
X4.5276Y-4.8228
X4.64Y-4.445
X4.7244Y-4.0354
X4.7244Y-4.626
X4.7244Y-5.0197
X4.905Y-4.4
X4.9213Y-4.0354
X4.9213Y-4.8228
X4.9213Y-5.2165
X5.0197Y-4.626
X5.075Y-5.73
X5.1181Y-4.0354
X5.1181Y-5.2165
X5.2165Y-4.7244
X5.2165Y-4.9213
X5.315Y-5.8071
X5.35Y-4.19
X5.5118Y-4.3307
X5.5118Y-4.626
X5.5118Y-5.2165
X5.8071Y-5.2165
T4
X4.1346Y-4.4625
X4.1846Y-4.3759
X4.2346Y-4.2893
X4.6946Y-5.6159
X4.7946Y-5.6159
X4.8946Y-5.6159
X5.6346Y-4.0473
X5.6846Y-4.1339
X5.7346Y-4.2205
T5
X5.81Y-4.53
X5.81Y-4.63
X5.81Y-4.81
X5.81Y-4.91
T6
X5.5464Y-5.6836
X5.6701Y-5.5599
T7
X4.3313Y-4.7613
X4.4913Y-5.3613
X4.7613Y-4.3313
X5.0913Y-5.5163
X5.3513Y-4.4913
X5.5113Y-5.0763
X5.7019Y-5.7968
X5.7868Y-5.7119
T8
X4.165Y-5.7321
X4.35Y-5.614
T9
X4.4363Y-5.0513
X4.5663Y-4.5663
X4.7913Y-5.4063
X5.0513Y-4.4363
X5.2763Y-5.2763
X5.4063Y-4.7913
T10
X4.165Y-5.4959
T0
M30
